<svg id="Layer_1" enable-background="new 0 0 150 150" height="512" viewBox="0 0 150 150" width="512" xmlns="http://www.w3.org/2000/svg"><g><path d="m147.919 145h-131.038v-135.162h3.062v132.1h127.976z" fill="#3a556a"/><path d="m28.272 91.229h19.557v50.709h-19.557z" fill="#709584"/><path d="m57.852 68.182h19.557v73.756h-19.557z" fill="#21b3a9"/><path d="m87.453 77.123h19.557v64.815h-19.557z" fill="#fe7058"/><path d="m117.033 39.602h19.557v102.336h-19.557z" fill="#029bc5"/><path d="m32.886 61.547-1.654-3.736 29.641-22.496 30.989 12.085 33.438-36.398 3.022 2.756-35.031 38.133-31.989-12.289z" fill="#3a556a"/><circle cx="91.944" cy="48.36" fill="#3a556a" r="8.758"/><path d="m125.79 5c-4.837 0-8.758 3.921-8.758 8.758s3.921 8.758 8.758 8.758 8.758-3.921 8.758-8.758-3.921-8.758-8.758-8.758z" fill="#3a556a"/><path d="m125.79 8.675c-2.807 0-5.083 2.276-5.083 5.083s2.276 5.083 5.083 5.083 5.083-2.276 5.083-5.083c0-2.808-2.275-5.083-5.083-5.083z" fill="#e1e6e9"/><path d="m91.944 43.276c-2.807.001-5.083 2.277-5.082 5.084s2.277 5.083 5.084 5.082c2.767-.001 5.025-2.214 5.081-4.981.056-2.807-2.173-5.128-4.98-5.184-.035 0-.069-.001-.103-.001z" fill="#e1e6e9"/><path d="m61.098 29.701c-4.837 0-8.758 3.921-8.758 8.758s3.921 8.758 8.758 8.758 8.758-3.921 8.758-8.758-3.921-8.758-8.758-8.758z" fill="#3a556a"/><path d="m32.518 50.217c-4.837 0-8.758 3.921-8.758 8.758s3.921 8.758 8.758 8.758 8.758-3.921 8.758-8.758-3.921-8.758-8.758-8.758z" fill="#3a556a"/><path d="m61.098 33.355c-2.819-.011-5.113 2.264-5.124 5.083s2.264 5.113 5.083 5.124 5.113-2.264 5.124-5.083c0-.007 0-.014 0-.02.011-2.807-2.255-5.092-5.063-5.103-.006-.001-.013-.001-.02-.001z" fill="#e1e6e9"/><path d="m32.518 53.892c-2.807 0-5.083 2.276-5.083 5.083s2.276 5.083 5.083 5.083 5.083-2.276 5.083-5.083c-.011-2.803-2.28-5.072-5.083-5.083z" fill="#e1e6e9"/><g fill="#2f4859"><path d="m2.081 15.044h10.779v2.613h-10.779z"/><path d="m2.081 27.088h10.779v2.613h-10.779z"/><path d="m2.081 39.112h10.779v2.613h-10.779z"/><path d="m2.081 51.136h10.779v2.613h-10.779z"/><path d="m2.081 63.16h10.779v2.613h-10.779z"/><path d="m2.081 75.204h10.779v2.613h-10.779z"/><path d="m2.081 87.228h10.779v2.613h-10.779z"/><path d="m2.081 99.252h10.779v2.613h-10.779z"/><path d="m2.081 111.276h10.779v2.613h-10.779z"/><path d="m2.081 123.32h10.779v2.613h-10.779z"/><path d="m2.081 135.344h10.779v2.613h-10.779z"/></g></g></svg>