<?xml version="1.0" encoding="UTF-8"?>
<svg version="1.1" xmlns="http://www.w3.org/2000/svg" width="512" height="512">
<path d="M0 0 C12.54541178 11.78919685 21.07882886 27.73377498 24.21484375 44.625 C24.24707031 45.66269531 24.27929688 46.70039062 24.3125 47.76953125 C24.47961708 51.17614858 24.76041522 53.52605045 26.21484375 56.625 C29.69031739 59.1061899 33.25251787 60.79247049 37.11328125 62.578125 C53.8386551 70.47382002 64.38837642 87.34490202 70.50390625 104.171875 C73.80196529 114.84904457 74.49742085 124.96719186 73.7265625 136.0390625 C73.65375061 137.13891479 73.65375061 137.13891479 73.57946777 138.26098633 C73.46069229 140.04917675 73.33815985 141.83711697 73.21484375 143.625 C73.62847168 142.76745117 74.04209961 141.90990234 74.46826172 141.02636719 C76.00736333 137.83563651 77.54683891 134.64508639 79.08642578 131.45458984 C79.75189198 130.0754071 80.41725764 128.69617584 81.08251953 127.31689453 C82.04042361 125.33092598 82.99869272 123.34513393 83.95703125 121.359375 C84.25294159 120.74568054 84.54885193 120.13198608 84.85372925 119.49969482 C86.28694918 116.53082691 87.73678186 113.57175856 89.21484375 110.625 C97.02494251 112.69147988 104.74235202 114.98441953 112.4453125 117.41796875 C113.56174637 117.76886063 114.67818024 118.1197525 115.82844543 118.48127747 C119.35369405 119.58973886 122.87803033 120.70106924 126.40234375 121.8125 C128.80918478 122.56985221 131.21608527 123.32701547 133.62304688 124.08398438 C139.48766803 125.92880691 145.35154521 127.77597844 151.21484375 129.625 C150.74158457 133.1474073 150.26556191 136.66943594 149.7890625 140.19140625 C149.58935852 141.67815857 149.58935852 141.67815857 149.38562012 143.19494629 C148.5728609 149.19044573 147.67696611 155.14538075 146.546875 161.08984375 C146.10922046 164.43146489 145.8215138 167.25687364 146.21484375 170.625 C148.5639443 173.01571191 148.5639443 173.01571191 151.83984375 174.8125 C153.03319504 175.56444285 154.22183708 176.32389899 155.40625 177.08984375 C156.02902832 177.49187012 156.65180664 177.89389648 157.29345703 178.30810547 C160.64383211 180.60441083 163.70504108 183.2238013 166.77734375 185.875 C167.65156982 186.61786255 167.65156982 186.61786255 168.54345703 187.37573242 C171.82275143 190.2187115 174.6054951 193.1288556 177.21484375 196.625 C185.88098812 194.37142183 194.3881305 191.70495034 202.90234375 188.9375 C204.20109757 188.51734835 205.49992529 188.09742511 206.79882812 187.67773438 C209.93823059 186.6623886 213.07687547 185.64476774 216.21484375 184.625 C222.89354093 196.65967108 229.38046919 208.75666579 235.46533203 221.10351562 C238.23544056 226.71525891 241.10910588 232.20907268 244.2890625 237.6015625 C245.21484375 239.625 245.21484375 239.625 245.21484375 243.625 C243.64526367 245.23730469 243.64526367 245.23730469 241.4453125 246.796875 C240.64327393 247.37550293 239.84123535 247.95413086 239.01489258 248.55029297 C238.15275146 249.15244629 237.29061035 249.75459961 236.40234375 250.375 C235.53826904 250.99391113 234.67419434 251.61282227 233.78393555 252.25048828 C232.05989496 253.48441268 230.33215984 254.71319307 228.60058594 255.93652344 C225.55291989 258.0934676 222.53971767 260.29408839 219.52734375 262.5 C218.09032441 263.54232966 216.65305559 264.58431638 215.21484375 265.625 C215.65269364 269.27374912 216.09742747 272.90799075 216.69140625 276.53515625 C218.39889847 287.22609635 218.79337445 297.80728805 219.21484375 308.625 C230.43484375 313.575 241.65484375 318.525 253.21484375 323.625 C252.56426338 328.82964293 252.06814948 332.69313608 250.54077148 337.49023438 C250.20049423 338.57075073 249.86021698 339.65126709 249.5096283 340.76452637 C249.14293533 341.90442017 248.77624237 343.04431396 248.3984375 344.21875 C248.02251968 345.40601685 247.64660187 346.59328369 247.2592926 347.81652832 C246.26637244 350.94818755 245.26749908 354.07786156 244.265625 357.20666504 C243.24166383 360.40960092 242.22567648 363.61506343 241.20898438 366.8203125 C239.21822308 373.09087818 237.21958316 379.35889013 235.21484375 385.625 C230.81708633 386.62596243 227.58916139 386.40211406 223.12109375 385.62890625 C222.45194946 385.51651108 221.78280518 385.40411591 221.09338379 385.28831482 C218.96567456 384.9297625 216.84025514 384.55941084 214.71484375 384.1875 C212.58920049 383.82085185 210.46317884 383.4568318 208.33630371 383.09739685 C206.40619553 382.77043982 204.47746824 382.43536175 202.54882812 382.09985352 C199.67209429 381.69012539 197.1044014 381.33717486 194.21484375 381.625 C192.03264743 384.02114898 192.03264743 384.02114898 190.15234375 387.25 C186.73983884 392.5346635 183.06891289 397.41833453 178.96484375 402.1875 C178.46976318 402.77031738 177.97468262 403.35313477 177.46459961 403.95361328 C174.62103118 407.23248516 171.71107367 410.01558752 168.21484375 412.625 C169.99787311 421.74588097 173.07729124 430.34718348 176.11328125 439.11523438 C176.70882812 440.86223633 176.70882812 440.86223633 177.31640625 442.64453125 C177.68072754 443.69745361 178.04504883 444.75037598 178.42041016 445.83520508 C179.21484375 448.625 179.21484375 448.625 179.21484375 452.625 C178.19350342 453.14819824 177.17216309 453.67139648 176.11987305 454.21044922 C149.59617344 467.78082656 149.59617344 467.78082656 123.21484375 481.625 C118.16785348 476.96395605 114.20734426 471.54125068 110.08984375 466.0625 C109.37441406 465.11697266 108.65898437 464.17144531 107.921875 463.19726562 C106.01547955 460.67619127 104.11346117 458.15193493 102.21484375 455.625 C101.64523926 454.90707275 101.07563477 454.18914551 100.48876953 453.44946289 C99.21484375 451.625 99.21484375 451.625 99.21484375 449.625 C98.456875 449.81835938 97.69890625 450.01171875 96.91796875 450.2109375 C95.7784375 450.47132813 94.63890625 450.73171875 93.46484375 451 C92.50106812 451.23408569 92.50106812 451.23408569 91.51782227 451.47290039 C86.70299377 452.50056484 82.39340781 452.6036314 77.4765625 452.28515625 C66.58209747 451.73907699 66.58209747 451.73907699 56.21484375 454.625 C49.72219798 461.4462011 46.46020828 470.52237347 43.39624023 479.29174805 C42.14640487 482.81809692 40.71841152 486.20049338 39.21484375 489.625 C31.05954269 487.68598568 23.07810716 485.41677696 15.10546875 482.83203125 C14.01264587 482.48113937 12.919823 482.1302475 11.79388428 481.76872253 C8.34969497 480.66193051 4.9072528 479.54981515 1.46484375 478.4375 C-0.88920879 477.67998378 -3.24337448 476.92281912 -5.59765625 476.16601562 C-11.3281358 474.32306765 -17.0571959 472.47576195 -22.78515625 470.625 C-21.75273653 461.50948931 -20.70193762 452.42116618 -19.16015625 443.375 C-18.6644085 440.46248194 -18.19809396 437.55041259 -17.78515625 434.625 C-17.5840625 433.22701172 -17.5840625 433.22701172 -17.37890625 431.80078125 C-17.59000571 429.40520502 -17.59000571 429.40520502 -19.91796875 427.80859375 C-20.90539062 427.23238281 -21.8928125 426.65617187 -22.91015625 426.0625 C-28.04745319 422.85702172 -32.64919702 419.40527171 -37.22265625 415.4375 C-37.80096191 414.93855225 -38.37926758 414.43960449 -38.97509766 413.92553711 C-42.376843 410.95407353 -45.7172591 407.94521018 -48.78515625 404.625 C-48.78515625 403.965 -48.78515625 403.305 -48.78515625 402.625 C-61.32515625 406.915 -73.86515625 411.205 -86.78515625 415.625 C-89.75214891 412.65800734 -91.12230064 410.3592127 -93.0078125 406.65625 C-93.30970993 406.06776276 -93.61160736 405.47927551 -93.9226532 404.87295532 C-94.90292272 402.95961207 -95.8752892 401.04236951 -96.84765625 399.125 C-97.85897847 397.14566294 -98.87220591 395.1673089 -99.88552856 393.18899536 C-100.56058229 391.87071759 -101.23496035 390.55209361 -101.90866089 389.23312378 C-105.11436389 382.96162774 -108.40104257 376.73402866 -111.72680664 370.52539062 C-113.97191868 366.29999752 -115.9600947 362.04904161 -117.78515625 357.625 C-117.19613525 357.17697021 -116.60711426 356.72894043 -116.00024414 356.26733398 C-113.28233698 354.19955213 -110.564994 352.13103008 -107.84765625 350.0625 C-106.92146484 349.35802734 -105.99527344 348.65355469 -105.04101562 347.92773438 C-104.12255859 347.22841797 -103.20410156 346.52910156 -102.2578125 345.80859375 C-101.34402832 345.11362793 -100.43024414 344.41866211 -99.48876953 343.70263672 C-96.14398528 341.13228147 -92.84583331 338.50521264 -89.56030273 335.85961914 C-87.78515625 334.625 -87.78515625 334.625 -85.78515625 334.625 C-85.99011719 333.8515625 -86.19507813 333.078125 -86.40625 332.28125 C-86.67566406 331.2396875 -86.94507813 330.198125 -87.22265625 329.125 C-87.48949219 328.1040625 -87.75632813 327.083125 -88.03125 326.03125 C-89.7472754 318.27801609 -90.04536807 310.53534484 -90.34765625 302.625 C-90.56421875 297.18 -90.56421875 297.18 -90.78515625 291.625 C-108.11015625 283.21 -108.11015625 283.21 -125.78515625 274.625 C-123.76181723 266.53164392 -121.65971191 258.53686032 -119.28125 250.55078125 C-118.95729752 249.46033005 -118.63334503 248.36987885 -118.29957581 247.24638367 C-117.62122273 244.96792581 -116.94135222 242.68991922 -116.26000977 240.41235352 C-115.21461467 236.91056289 -114.18051757 233.40555062 -113.14648438 229.90039062 C-112.48376376 227.67948124 -111.82037682 225.45877054 -111.15625 223.23828125 C-110.84787704 222.18739822 -110.53950409 221.1365152 -110.2217865 220.05378723 C-109.93130936 219.09155746 -109.64083221 218.1293277 -109.34155273 217.13793945 C-109.08856918 216.28810989 -108.83558563 215.43828033 -108.57493591 214.56269836 C-107.78515625 212.625 -107.78515625 212.625 -105.78515625 211.625 C-103.01975668 211.94943445 -100.3096086 212.3435259 -97.56640625 212.8046875 C-96.75272583 212.93690704 -95.93904541 213.06912659 -95.10070801 213.20535278 C-93.37864876 213.4865487 -91.65710015 213.7708869 -89.93603516 214.05810547 C-87.29706441 214.49801494 -84.65656232 214.92754137 -82.015625 215.35546875 C-80.34495142 215.62959555 -78.674375 215.90431529 -77.00390625 216.1796875 C-76.2111731 216.30890594 -75.41843994 216.43812439 -74.60168457 216.57125854 C-69.01720338 217.50897644 -69.01720338 217.50897644 -66.78515625 218.625 C-66.54023438 217.91988281 -66.2953125 217.21476563 -66.04296875 216.48828125 C-64.61048097 213.22736963 -62.78993756 210.66365885 -60.66015625 207.8125 C-59.93570313 206.83667969 -59.21125 205.86085937 -58.46484375 204.85546875 C-57.63339844 203.75138672 -57.63339844 203.75138672 -56.78515625 202.625 C-57.47315874 202.62776538 -58.16116123 202.63053076 -58.87001228 202.63337994 C-75.66544852 202.6998376 -92.46084272 202.74937634 -109.25638008 202.78043652 C-117.37881336 202.79585894 -125.50115849 202.81685919 -133.62353516 202.85131836 C-140.70883589 202.88136322 -147.79407274 202.90060855 -154.87943542 202.90726548 C-158.6258008 202.91115239 -162.37198352 202.92018874 -166.11828995 202.94219017 C-169.65594437 202.96279476 -173.19334366 202.96878634 -176.7310524 202.96432304 C-178.62491388 202.96552143 -180.5187486 202.98153655 -182.41253662 202.9982605 C-203.56975221 202.92327387 -222.04052594 195.46706551 -237.44140625 180.9921875 C-252.28159292 166.00359896 -259.09928163 148.02040503 -259.28515625 127.125 C-259.10943692 107.37121865 -253.11041367 90.44867994 -239.78515625 75.625 C-239.26695312 75.01398438 -238.74875 74.40296875 -238.21484375 73.7734375 C-232.80488003 67.81975883 -225.72223398 63.59290049 -218.78515625 59.625 C-218.12515625 59.625 -217.46515625 59.625 -216.78515625 59.625 C-216.77097656 58.98175781 -216.75679687 58.33851562 -216.7421875 57.67578125 C-215.88217214 41.38197675 -207.87855195 28.94558336 -196.37890625 17.87890625 C-182.90176342 6.16759388 -166.48527771 2.73835172 -149.13916016 3.43261719 C-142.05370212 4.01168179 -134.82191877 5.93832525 -128.61328125 9.38671875 C-125.93888625 10.90850077 -125.93888625 10.90850077 -123.61328125 10.04296875 C-121.61510011 8.49309748 -120.12637934 6.90335571 -118.53515625 4.9375 C-106.40842561 -9.29599316 -89.32392545 -18.60483909 -70.78515625 -21.375 C-70.07101563 -21.49617188 -69.356875 -21.61734375 -68.62109375 -21.7421875 C-42.97438755 -25.25895992 -19.31618045 -16.47158165 0 0 Z " fill="#FCBE5E" transform="translate(258.78515625,22.375)"/>
<path d="M0 0 C1.21127911 0.99250182 2.39827212 2.0152033 3.5625 3.0625 C4.29726562 3.71734375 5.03203125 4.3721875 5.7890625 5.046875 C16.52471106 15.17213551 24.96327678 29.37572031 25.67602539 44.46606445 C25.67078857 45.277771 25.66555176 46.08947754 25.66015625 46.92578125 C25.65693359 47.81201172 25.65371094 48.69824219 25.65039062 49.61132812 C25.64201172 50.52333984 25.63363281 51.43535156 25.625 52.375 C25.62048828 53.30634766 25.61597656 54.23769531 25.61132812 55.19726562 C25.59959234 57.48574373 25.58317363 59.77408808 25.5625 62.0625 C26.4587207 62.2486084 26.4587207 62.2486084 27.37304688 62.43847656 C37.05296517 64.50713712 44.51872197 68.30567847 52.5625 74.0625 C53.42875 74.660625 54.295 75.25875 55.1875 75.875 C67.28778755 87.02000169 73.594752 102.48177598 74.83984375 118.66796875 C75.25174571 133.77653262 70.14766527 148.04232736 60.1875 159.5 C50.61618842 169.37901872 37.54298183 178.77210072 23.27141094 179.44281673 C21.76117417 179.46032303 20.25069411 179.4620123 18.74040222 179.45018005 C17.47974999 179.45825836 17.47974999 179.45825836 16.19363004 179.46649987 C13.40261546 179.48070496 10.61208017 179.47369424 7.82104492 179.46655273 C5.80965293 179.47226027 3.79826417 179.47922601 1.78688049 179.48735046 C-3.65954649 179.50525639 -9.10581213 179.50411806 -14.55225968 179.49840808 C-19.10719858 179.49531195 -23.66210668 179.50141354 -28.21704119 179.50744683 C-38.96804389 179.52148258 -49.7189671 179.51993918 -60.4699707 179.50854492 C-71.54162486 179.49706973 -82.61303661 179.51113159 -93.68465883 179.5379414 C-103.20768395 179.56013342 -112.73063318 179.56672772 -122.25368232 179.56086498 C-127.93366945 179.55750199 -133.6135013 179.55986659 -139.29346657 179.57711601 C-144.63781848 179.59263843 -149.98181284 179.58857083 -155.32615089 179.56981087 C-157.28037449 179.56613937 -159.23462489 179.56919114 -161.1888237 179.57969666 C-180.11391766 179.67361682 -194.0106381 175.65439307 -208.1171875 162.41015625 C-220.26108215 150.12315173 -225.63211515 135.23715771 -225.875 118.0625 C-225.76953656 102.57397649 -219.72694327 88.7459101 -209.12890625 77.484375 C-203.70348393 72.60228235 -197.11467561 67.87286685 -190.26708984 65.22241211 C-188.06597643 64.34122894 -186.295483 63.53991199 -184.4375 62.0625 C-183.26985109 59.19559579 -183.23887112 56.44442457 -183.1875 53.375 C-183.08329388 51.74669851 -182.9688279 50.11901883 -182.84375 48.4921875 C-182.75673828 47.33348145 -182.75673828 47.33348145 -182.66796875 46.15136719 C-182.20420831 41.94804694 -180.6145682 38.62628161 -178.4375 35.0625 C-178.01597656 34.32 -177.59445313 33.5775 -177.16015625 32.8125 C-170.51445509 21.91428646 -161.37887301 16.04295767 -149.4375 12.0625 C-146.40042191 11.81049201 -143.35896354 11.83118996 -140.3125 11.8125 C-139.49523437 11.791875 -138.67796875 11.77125 -137.8359375 11.75 C-125.2654569 11.67044 -113.51840204 17.52813373 -104.4375 26.0625 C-104.4375 26.7225 -104.4375 27.3825 -104.4375 28.0625 C-103.7775 28.0625 -103.1175 28.0625 -102.4375 28.0625 C-102.18355469 27.52109375 -101.92960937 26.9796875 -101.66796875 26.421875 C-92.98878436 9.77988334 -80.21653521 -3.33829479 -62.4375 -9.9375 C-61.62410156 -10.25589844 -60.81070313 -10.57429688 -59.97265625 -10.90234375 C-39.67939541 -17.6876097 -16.97422878 -12.09540853 0 0 Z " fill="#FEFEFE" transform="translate(242.4375,29.9375)"/>
<path d="M0 0 C12.54541178 11.78919685 21.07882886 27.73377498 24.21484375 44.625 C24.24707031 45.66269531 24.27929688 46.70039062 24.3125 47.76953125 C24.47961708 51.17614858 24.76041522 53.52605045 26.21484375 56.625 C29.69031739 59.1061899 33.25251787 60.79247049 37.11328125 62.578125 C53.8386551 70.47382002 64.38837642 87.34490202 70.50390625 104.171875 C73.80196529 114.84904457 74.49742085 124.96719186 73.7265625 136.0390625 C73.65375061 137.13891479 73.65375061 137.13891479 73.57946777 138.26098633 C73.46069229 140.04917675 73.33815985 141.83711697 73.21484375 143.625 C73.62847168 142.76745117 74.04209961 141.90990234 74.46826172 141.02636719 C76.00736333 137.83563651 77.54683891 134.64508639 79.08642578 131.45458984 C79.75189198 130.0754071 80.41725764 128.69617584 81.08251953 127.31689453 C82.04042361 125.33092598 82.99869272 123.34513393 83.95703125 121.359375 C84.25294159 120.74568054 84.54885193 120.13198608 84.85372925 119.49969482 C86.28694918 116.53082691 87.73678186 113.57175856 89.21484375 110.625 C97.02494251 112.69147988 104.74235202 114.98441953 112.4453125 117.41796875 C113.56174637 117.76886063 114.67818024 118.1197525 115.82844543 118.48127747 C119.35369405 119.58973886 122.87803033 120.70106924 126.40234375 121.8125 C128.80918478 122.56985221 131.21608527 123.32701547 133.62304688 124.08398438 C139.48766803 125.92880691 145.35154521 127.77597844 151.21484375 129.625 C150.74158457 133.1474073 150.26556191 136.66943594 149.7890625 140.19140625 C149.58935852 141.67815857 149.58935852 141.67815857 149.38562012 143.19494629 C148.5728609 149.19044573 147.67696611 155.14538075 146.546875 161.08984375 C146.10922046 164.43146489 145.8215138 167.25687364 146.21484375 170.625 C148.5639443 173.01571191 148.5639443 173.01571191 151.83984375 174.8125 C153.03319504 175.56444285 154.22183708 176.32389899 155.40625 177.08984375 C156.02902832 177.49187012 156.65180664 177.89389648 157.29345703 178.30810547 C160.64383211 180.60441083 163.70504108 183.2238013 166.77734375 185.875 C167.65156982 186.61786255 167.65156982 186.61786255 168.54345703 187.37573242 C171.82275143 190.2187115 174.6054951 193.1288556 177.21484375 196.625 C185.88098812 194.37142183 194.3881305 191.70495034 202.90234375 188.9375 C204.20109757 188.51734835 205.49992529 188.09742511 206.79882812 187.67773438 C209.93823059 186.6623886 213.07687547 185.64476774 216.21484375 184.625 C222.89354093 196.65967108 229.38046919 208.75666579 235.46533203 221.10351562 C238.23544056 226.71525891 241.10910588 232.20907268 244.2890625 237.6015625 C245.21484375 239.625 245.21484375 239.625 245.21484375 243.625 C243.64526367 245.23730469 243.64526367 245.23730469 241.4453125 246.796875 C240.64327393 247.37550293 239.84123535 247.95413086 239.01489258 248.55029297 C238.15275146 249.15244629 237.29061035 249.75459961 236.40234375 250.375 C235.53826904 250.99391113 234.67419434 251.61282227 233.78393555 252.25048828 C232.05989496 253.48441268 230.33215984 254.71319307 228.60058594 255.93652344 C225.55291989 258.0934676 222.53971767 260.29408839 219.52734375 262.5 C218.09032441 263.54232966 216.65305559 264.58431638 215.21484375 265.625 C215.65269364 269.27374912 216.09742747 272.90799075 216.69140625 276.53515625 C218.39889847 287.22609635 218.79337445 297.80728805 219.21484375 308.625 C230.43484375 313.575 241.65484375 318.525 253.21484375 323.625 C252.56426338 328.82964293 252.06814948 332.69313608 250.54077148 337.49023438 C250.20049423 338.57075073 249.86021698 339.65126709 249.5096283 340.76452637 C249.14293533 341.90442017 248.77624237 343.04431396 248.3984375 344.21875 C248.02251968 345.40601685 247.64660187 346.59328369 247.2592926 347.81652832 C246.26637244 350.94818755 245.26749908 354.07786156 244.265625 357.20666504 C243.24166383 360.40960092 242.22567648 363.61506343 241.20898438 366.8203125 C239.21822308 373.09087818 237.21958316 379.35889013 235.21484375 385.625 C230.81708633 386.62596243 227.58916139 386.40211406 223.12109375 385.62890625 C222.45194946 385.51651108 221.78280518 385.40411591 221.09338379 385.28831482 C218.96567456 384.9297625 216.84025514 384.55941084 214.71484375 384.1875 C212.58920049 383.82085185 210.46317884 383.4568318 208.33630371 383.09739685 C206.40619553 382.77043982 204.47746824 382.43536175 202.54882812 382.09985352 C199.67209429 381.69012539 197.1044014 381.33717486 194.21484375 381.625 C192.03264743 384.02114898 192.03264743 384.02114898 190.15234375 387.25 C186.73983884 392.5346635 183.06891289 397.41833453 178.96484375 402.1875 C178.46976318 402.77031738 177.97468262 403.35313477 177.46459961 403.95361328 C174.62103118 407.23248516 171.71107367 410.01558752 168.21484375 412.625 C169.99787311 421.74588097 173.07729124 430.34718348 176.11328125 439.11523438 C176.70882812 440.86223633 176.70882812 440.86223633 177.31640625 442.64453125 C177.68072754 443.69745361 178.04504883 444.75037598 178.42041016 445.83520508 C179.21484375 448.625 179.21484375 448.625 179.21484375 452.625 C178.19350342 453.14819824 177.17216309 453.67139648 176.11987305 454.21044922 C149.59617344 467.78082656 149.59617344 467.78082656 123.21484375 481.625 C118.16785348 476.96395605 114.20734426 471.54125068 110.08984375 466.0625 C109.37441406 465.11697266 108.65898437 464.17144531 107.921875 463.19726562 C106.01547955 460.67619127 104.11346117 458.15193493 102.21484375 455.625 C101.64523926 454.90707275 101.07563477 454.18914551 100.48876953 453.44946289 C99.21484375 451.625 99.21484375 451.625 99.21484375 449.625 C98.456875 449.81835938 97.69890625 450.01171875 96.91796875 450.2109375 C95.7784375 450.47132813 94.63890625 450.73171875 93.46484375 451 C92.50106812 451.23408569 92.50106812 451.23408569 91.51782227 451.47290039 C86.70299377 452.50056484 82.39340781 452.6036314 77.4765625 452.28515625 C66.58209747 451.73907699 66.58209747 451.73907699 56.21484375 454.625 C49.72219798 461.4462011 46.46020828 470.52237347 43.39624023 479.29174805 C42.14640487 482.81809692 40.71841152 486.20049338 39.21484375 489.625 C31.05954269 487.68598568 23.07810716 485.41677696 15.10546875 482.83203125 C14.01264587 482.48113937 12.919823 482.1302475 11.79388428 481.76872253 C8.34969497 480.66193051 4.9072528 479.54981515 1.46484375 478.4375 C-0.88920879 477.67998378 -3.24337448 476.92281912 -5.59765625 476.16601562 C-11.3281358 474.32306765 -17.0571959 472.47576195 -22.78515625 470.625 C-21.75273653 461.50948931 -20.70193762 452.42116618 -19.16015625 443.375 C-18.6644085 440.46248194 -18.19809396 437.55041259 -17.78515625 434.625 C-17.5840625 433.22701172 -17.5840625 433.22701172 -17.37890625 431.80078125 C-17.59000571 429.40520502 -17.59000571 429.40520502 -19.91796875 427.80859375 C-20.90539062 427.23238281 -21.8928125 426.65617187 -22.91015625 426.0625 C-28.04745319 422.85702172 -32.64919702 419.40527171 -37.22265625 415.4375 C-37.80096191 414.93855225 -38.37926758 414.43960449 -38.97509766 413.92553711 C-42.376843 410.95407353 -45.7172591 407.94521018 -48.78515625 404.625 C-48.78515625 403.965 -48.78515625 403.305 -48.78515625 402.625 C-61.32515625 406.915 -73.86515625 411.205 -86.78515625 415.625 C-89.75214891 412.65800734 -91.12230064 410.3592127 -93.0078125 406.65625 C-93.30970993 406.06776276 -93.61160736 405.47927551 -93.9226532 404.87295532 C-94.90292272 402.95961207 -95.8752892 401.04236951 -96.84765625 399.125 C-97.85897847 397.14566294 -98.87220591 395.1673089 -99.88552856 393.18899536 C-100.56058229 391.87071759 -101.23496035 390.55209361 -101.90866089 389.23312378 C-105.11436389 382.96162774 -108.40104257 376.73402866 -111.72680664 370.52539062 C-113.97191868 366.29999752 -115.9600947 362.04904161 -117.78515625 357.625 C-117.19613525 357.17697021 -116.60711426 356.72894043 -116.00024414 356.26733398 C-113.28233698 354.19955213 -110.564994 352.13103008 -107.84765625 350.0625 C-106.92146484 349.35802734 -105.99527344 348.65355469 -105.04101562 347.92773438 C-104.12255859 347.22841797 -103.20410156 346.52910156 -102.2578125 345.80859375 C-101.34402832 345.11362793 -100.43024414 344.41866211 -99.48876953 343.70263672 C-96.14398528 341.13228147 -92.84583331 338.50521264 -89.56030273 335.85961914 C-87.78515625 334.625 -87.78515625 334.625 -85.78515625 334.625 C-85.99011719 333.8515625 -86.19507813 333.078125 -86.40625 332.28125 C-86.67566406 331.2396875 -86.94507813 330.198125 -87.22265625 329.125 C-87.48949219 328.1040625 -87.75632813 327.083125 -88.03125 326.03125 C-89.7472754 318.27801609 -90.04536807 310.53534484 -90.34765625 302.625 C-90.56421875 297.18 -90.56421875 297.18 -90.78515625 291.625 C-108.11015625 283.21 -108.11015625 283.21 -125.78515625 274.625 C-123.76181723 266.53164392 -121.65971191 258.53686032 -119.28125 250.55078125 C-118.95729752 249.46033005 -118.63334503 248.36987885 -118.29957581 247.24638367 C-117.62122273 244.96792581 -116.94135222 242.68991922 -116.26000977 240.41235352 C-115.21461467 236.91056289 -114.18051757 233.40555062 -113.14648438 229.90039062 C-112.48376376 227.67948124 -111.82037682 225.45877054 -111.15625 223.23828125 C-110.84787704 222.18739822 -110.53950409 221.1365152 -110.2217865 220.05378723 C-109.93130936 219.09155746 -109.64083221 218.1293277 -109.34155273 217.13793945 C-109.08856918 216.28810989 -108.83558563 215.43828033 -108.57493591 214.56269836 C-107.78515625 212.625 -107.78515625 212.625 -105.78515625 211.625 C-103.01975668 211.94943445 -100.3096086 212.3435259 -97.56640625 212.8046875 C-96.75272583 212.93690704 -95.93904541 213.06912659 -95.10070801 213.20535278 C-93.37864876 213.4865487 -91.65710015 213.7708869 -89.93603516 214.05810547 C-87.29706441 214.49801494 -84.65656232 214.92754137 -82.015625 215.35546875 C-80.34495142 215.62959555 -78.674375 215.90431529 -77.00390625 216.1796875 C-76.2111731 216.30890594 -75.41843994 216.43812439 -74.60168457 216.57125854 C-69.01720338 217.50897644 -69.01720338 217.50897644 -66.78515625 218.625 C-66.54023438 217.91988281 -66.2953125 217.21476563 -66.04296875 216.48828125 C-64.61048097 213.22736963 -62.78993756 210.66365885 -60.66015625 207.8125 C-59.93570313 206.83667969 -59.21125 205.86085937 -58.46484375 204.85546875 C-57.63339844 203.75138672 -57.63339844 203.75138672 -56.78515625 202.625 C-57.47315874 202.62776538 -58.16116123 202.63053076 -58.87001228 202.63337994 C-75.66544852 202.6998376 -92.46084272 202.74937634 -109.25638008 202.78043652 C-117.37881336 202.79585894 -125.50115849 202.81685919 -133.62353516 202.85131836 C-140.70883589 202.88136322 -147.79407274 202.90060855 -154.87943542 202.90726548 C-158.6258008 202.91115239 -162.37198352 202.92018874 -166.11828995 202.94219017 C-169.65594437 202.96279476 -173.19334366 202.96878634 -176.7310524 202.96432304 C-178.62491388 202.96552143 -180.5187486 202.98153655 -182.41253662 202.9982605 C-203.56975221 202.92327387 -222.04052594 195.46706551 -237.44140625 180.9921875 C-252.28159292 166.00359896 -259.09928163 148.02040503 -259.28515625 127.125 C-259.10943692 107.37121865 -253.11041367 90.44867994 -239.78515625 75.625 C-239.26695312 75.01398438 -238.74875 74.40296875 -238.21484375 73.7734375 C-232.80488003 67.81975883 -225.72223398 63.59290049 -218.78515625 59.625 C-218.12515625 59.625 -217.46515625 59.625 -216.78515625 59.625 C-216.77097656 58.98175781 -216.75679687 58.33851562 -216.7421875 57.67578125 C-215.88217214 41.38197675 -207.87855195 28.94558336 -196.37890625 17.87890625 C-182.90176342 6.16759388 -166.48527771 2.73835172 -149.13916016 3.43261719 C-142.05370212 4.01168179 -134.82191877 5.93832525 -128.61328125 9.38671875 C-125.93888625 10.90850077 -125.93888625 10.90850077 -123.61328125 10.04296875 C-121.61510011 8.49309748 -120.12637934 6.90335571 -118.53515625 4.9375 C-106.40842561 -9.29599316 -89.32392545 -18.60483909 -70.78515625 -21.375 C-70.07101563 -21.49617188 -69.356875 -21.61734375 -68.62109375 -21.7421875 C-42.97438755 -25.25895992 -19.31618045 -16.47158165 0 0 Z M-105.78515625 15.625 C-109.35763562 20.12377316 -112.56101155 24.87456295 -115.78515625 29.625 C-116.37425781 30.38167969 -116.96335937 31.13835938 -117.5703125 31.91796875 C-118.97843173 33.54738248 -118.97843173 33.54738248 -118.78515625 35.625 C-119.44515625 35.625 -120.10515625 35.625 -120.78515625 35.625 C-120.78515625 34.965 -120.78515625 34.305 -120.78515625 33.625 C-134.03789593 22.00923155 -146.16000908 18.59002572 -163.4765625 19.40722656 C-173.8243365 20.38334907 -182.81967042 27.11373878 -189.59765625 34.63671875 C-195.64735771 42.33496386 -200.27002824 51.38222468 -199.59765625 61.42578125 C-199.45546993 64.63830349 -199.51523902 66.65142622 -200.78515625 69.625 C-204.90073995 72.58505443 -209.30372287 74.56298889 -213.890625 76.68212891 C-226.74204713 83.07802997 -234.89556486 95.57570834 -239.78515625 108.625 C-244.68835217 124.16187595 -242.36057749 142.0753124 -235.09765625 156.5 C-226.66118584 170.60307209 -214.13907353 180.50725921 -198.64868069 185.67043304 C-194.37544598 186.72622775 -190.60487164 186.91572584 -186.23048401 186.90588379 C-184.97662845 186.91479716 -184.97662845 186.91479716 -183.69744247 186.92389059 C-180.9096633 186.94116785 -178.12205688 186.94427281 -175.33422852 186.94726562 C-173.32962176 186.95652912 -171.32501851 186.9665794 -169.32041931 186.97735596 C-163.88191773 187.00354565 -158.44346547 187.01648327 -153.00491071 187.02537727 C-149.60144663 187.0312502 -146.19799585 187.03946212 -142.7945385 187.04838562 C-132.12969292 187.07572465 -121.46487796 187.09506138 -110.79999977 187.1027894 C-98.51983581 187.11173839 -86.24011846 187.14678151 -73.96009022 187.20479059 C-64.44894055 187.24814796 -54.93791594 187.26820465 -45.42666858 187.27087164 C-39.75535092 187.27295956 -34.08445338 187.28459792 -28.41324043 187.32051086 C-23.07044652 187.35368606 -17.72838362 187.35768154 -12.38552284 187.34023285 C-10.4361855 187.33870322 -8.48680712 187.34722937 -6.53757095 187.36714935 C10.88310465 187.5345817 24.64726788 184.26069518 38.21484375 172.625 C38.93027344 172.03203125 39.64570313 171.4390625 40.3828125 170.828125 C50.55178889 161.62293941 57.35227693 147.31517242 58.453125 133.671875 C58.84628067 116.20748613 54.09945531 99.26323996 41.96875 86.20703125 C33.50669792 78.57422258 21.18637985 69.625 9.21484375 69.625 C9.24964844 68.32046875 9.28445313 67.0159375 9.3203125 65.671875 C9.67194219 47.22810278 6.65768308 31.12130068 -6.28515625 17.125 C-8.08842181 15.25699874 -9.92784723 13.44054045 -11.78515625 11.625 C-12.34589844 11.03203125 -12.90664062 10.4390625 -13.484375 9.828125 C-25.75118081 -2.14891374 -43.85991901 -5.69416286 -60.28149414 -5.76000977 C-77.7331889 -5.44954111 -94.02692105 2.83862023 -105.78515625 15.625 Z M97.21484375 131.625 C91.93484375 142.185 86.65484375 152.745 81.21484375 163.625 C78.38921875 163.41875 75.56359375 163.2125 72.65234375 163 C66.28851177 162.75916792 66.28851177 162.75916792 60.77734375 165.5 C59.06637138 168.13226518 57.65781975 170.83803844 56.21484375 173.625 C44.90734801 188.29181001 28.41583898 198.15763824 10.21484375 201.625 C1.74546974 202.44931177 -6.84070101 202.10253865 -15.3371582 201.94433594 C-18.23842003 201.89955088 -21.13750987 201.89708464 -24.0390625 201.8984375 C-24.91518692 201.86849701 -25.79131134 201.83855652 -26.69398499 201.80770874 C-31.59545787 201.82754299 -34.162497 202.45143097 -37.71435547 205.94458008 C-38.76906276 207.14474863 -39.7940934 208.37176161 -40.78515625 209.625 C-41.2957811 210.25935974 -41.80640594 210.89371948 -42.33250427 211.54730225 C-43.72153516 213.31126722 -45.04022592 215.11234156 -46.34765625 216.9375 C-46.81727783 217.58468994 -47.28689941 218.23187988 -47.77075195 218.89868164 C-51.40858829 223.96726197 -54.74523336 229.17366149 -57.78515625 234.625 C-66.58664052 234.1956593 -75.15364431 233.4999272 -83.85546875 232.03515625 C-87.88075658 231.47161595 -91.72764939 231.48745739 -95.78515625 231.625 C-96.00429687 232.34300781 -96.2234375 233.06101562 -96.44921875 233.80078125 C-98.06691091 239.08129671 -99.69368157 244.35643094 -101.38671875 249.61328125 C-101.65919434 250.46301514 -101.93166992 251.31274902 -102.21240234 252.18823242 C-102.75604585 253.88094795 -103.30318471 255.57254531 -103.85400391 257.26293945 C-104.22984619 258.43602661 -104.22984619 258.43602661 -104.61328125 259.6328125 C-104.83918945 260.33035645 -105.06509766 261.02790039 -105.29785156 261.74658203 C-105.91071155 263.78554623 -105.91071155 263.78554623 -105.78515625 266.625 C-94.89515625 271.905 -84.00515625 277.185 -72.78515625 282.625 C-72.97265625 298.125 -72.97265625 298.125 -73.05541992 302.90429688 C-73.11274418 312.85036382 -71.88050857 321.92183757 -69.78515625 331.625 C-69.38036787 333.79001151 -68.98337723 335.95651025 -68.59765625 338.125 C-68.35982422 339.43984375 -68.35982422 339.43984375 -68.1171875 340.78125 C-68.00761719 341.3896875 -67.89804688 341.998125 -67.78515625 342.625 C-88.40505757 357.89464975 -88.40505757 357.89464975 -96.78515625 363.625 C-96.21107946 367.10143851 -95.3382028 369.85134099 -93.67578125 372.953125 C-93.25039062 373.75363281 -92.825 374.55414063 -92.38671875 375.37890625 C-91.94070312 376.20261719 -91.4946875 377.02632812 -91.03515625 377.875 C-90.60460937 378.68324219 -90.1740625 379.49148438 -89.73046875 380.32421875 C-86.80888352 385.79125699 -83.81035613 391.21473383 -80.78515625 396.625 C-72.31006964 394.94773155 -64.35694765 392.17537852 -56.22851562 389.28320312 C-55.19919922 388.92806641 -54.16988281 388.57292969 -53.109375 388.20703125 C-52.18213623 387.87936768 -51.25489746 387.5517041 -50.29956055 387.21411133 C-47.63486379 386.58978729 -46.30911814 386.63510152 -43.78515625 387.625 C-42.21484375 389.12109375 -42.21484375 389.12109375 -40.66015625 391.0625 C-29.62567095 404.14558173 -16.71275611 414.30066784 -1.78515625 422.625 C-2.17043797 431.27356063 -2.61824149 439.67827527 -4.375 448.17578125 C-5.0193669 452.02357215 -4.91277955 455.7324894 -4.78515625 459.625 C1.68058381 462.63232096 8.39470161 464.57971769 15.21484375 466.625 C18.68826153 467.71113811 22.16106941 468.79914591 25.6328125 469.890625 C28.08805547 470.71618926 28.08805547 470.71618926 30.21484375 470.625 C30.57666748 469.81832886 30.57666748 469.81832886 30.94580078 468.99536133 C32.07643823 466.47575486 33.20814049 463.95662792 34.33984375 461.4375 C34.71882812 460.59251953 35.0978125 459.74753906 35.48828125 458.87695312 C38.68217683 451.77053547 41.94031687 444.69458724 45.21484375 437.625 C46.54153076 437.6564209 46.54153076 437.6564209 47.89501953 437.68847656 C65.82204139 438.05580498 82.6539947 437.75930039 100.21484375 433.625 C101.88011433 433.28476071 103.54599615 432.94723683 105.21484375 432.625 C112.64248405 442.22177419 119.95163347 451.90328039 127.21484375 461.625 C138.28384618 456.42430893 149.30784333 451.15856791 160.21484375 445.625 C157.95409503 436.7252843 154.99253943 428.19483301 151.73632812 419.61523438 C151.38248047 418.64005859 151.02863281 417.66488281 150.6640625 416.66015625 C150.17425903 415.35123413 150.17425903 415.35123413 149.67456055 414.01586914 C149.11493047 411.10537664 149.59462731 410.05432576 151.21484375 407.625 C152.7734375 406.08984375 152.7734375 406.08984375 154.65234375 404.5625 C164.54655177 396.12015946 172.20401947 387.52926516 179.21484375 376.625 C179.91222656 375.54605469 180.60960937 374.46710938 181.328125 373.35546875 C182.97275513 370.78800007 184.59806618 368.21002718 186.21484375 365.625 C190.29867814 366.09995798 194.38181216 366.58069331 198.46484375 367.0625 C200.20314453 367.26456055 200.20314453 367.26456055 201.9765625 367.47070312 C203.09160156 367.60283203 204.20664062 367.73496094 205.35546875 367.87109375 C206.38188477 367.99154053 207.40830078 368.1119873 208.46582031 368.23608398 C210.78443573 368.56410835 212.95352583 369.03780695 215.21484375 369.625 C216.63019153 369.68956879 218.04822064 369.71111039 219.46484375 369.6875 C220.70234375 369.666875 221.93984375 369.64625 223.21484375 369.625 C225.55468362 362.69907398 227.76157785 355.73989117 229.90234375 348.75 C230.22267578 347.71875 230.54300781 346.6875 230.87304688 345.625 C231.17533203 344.63757813 231.47761719 343.65015625 231.7890625 342.6328125 C232.06322998 341.74223145 232.33739746 340.85165039 232.61987305 339.93408203 C233.3396016 337.53823163 233.3396016 337.53823163 233.21484375 334.625 C222.65484375 329.345 212.09484375 324.065 201.21484375 318.625 C201.27671875 313.695625 201.33859375 308.76625 201.40234375 303.6875 C201.46423444 291.98721296 200.9145109 281.0557858 198.21484375 269.625 C197.80695693 267.43971544 197.40974871 265.25238738 197.02734375 263.0625 C196.75698969 261.58324566 196.48637358 260.10403897 196.21484375 258.625 C205.81161794 251.1973597 215.49312414 243.88821028 225.21484375 236.625 C223.68869369 232.62622485 221.87770683 228.83560922 219.95703125 225.01171875 C219.64911652 224.39730423 219.34120178 223.78288971 219.0239563 223.14985657 C218.04780584 221.20311728 217.06887136 219.25779367 216.08984375 217.3125 C215.42429423 215.98642093 214.75892774 214.66024998 214.09375 213.33398438 C212.46956407 210.09659059 210.84287965 206.86045974 209.21484375 203.625 C200.30680889 205.90023135 191.73939378 208.84073946 183.1171875 212.015625 C182.13878906 212.36625 181.16039062 212.716875 180.15234375 213.078125 C179.27449219 213.39942383 178.39664062 213.72072266 177.4921875 214.05175781 C175.21484375 214.625 175.21484375 214.625 172.21484375 213.625 C170.7421875 212.12890625 170.7421875 212.12890625 169.15234375 210.1875 C158.31850971 197.52925732 145.24590748 186.12470969 130.21484375 178.625 C129.55484375 178.625 128.89484375 178.625 128.21484375 178.625 C128.33601562 178.07714844 128.4571875 177.52929688 128.58203125 176.96484375 C130.98871071 165.57939861 132.56288401 154.27347245 132.21484375 142.625 C125.16799093 139.69178244 118.05507945 137.17115764 110.77734375 134.875 C109.79830078 134.55917969 108.81925781 134.24335938 107.81054688 133.91796875 C106.87275391 133.62019531 105.93496094 133.32242188 104.96875 133.015625 C104.12642822 132.74782227 103.28410645 132.48001953 102.41625977 132.20410156 C100.11067982 131.49779822 100.11067982 131.49779822 97.21484375 131.625 Z " fill="#1B3752" transform="translate(258.78515625,22.375)"/>
<path d="M0 0 C5.77579043 1.28350898 11.32763591 2.59226334 16.9375 4.375 C17.62263672 4.59051514 18.30777344 4.80603027 19.01367188 5.02807617 C24.45150666 6.76544648 29.74398087 8.77168371 35 11 C35.2995999 19.27748738 34.41275102 27.04031761 33 35.1875 C32.80921875 36.33025391 32.6184375 37.47300781 32.421875 38.65039062 C31.95582628 41.43503174 31.4817577 44.21804145 31 47 C32.16994507 47.46031616 32.16994507 47.46031616 33.36352539 47.92993164 C49.06115684 54.30114366 66.6204034 68.9306051 76 83 C84.67711918 80.4732132 93.22568948 77.60513768 101.78125 74.69726562 C102.8125 74.34986328 103.84375 74.00246094 104.90625 73.64453125 C105.83759766 73.32846924 106.76894531 73.01240723 107.72851562 72.68676758 C110 72 110 72 112 72 C114.14650905 76.19406555 116.28240641 80.39330135 118.40869141 84.59765625 C119.13334344 86.02685811 119.86086243 87.45461012 120.59130859 88.88085938 C121.64138658 90.9324403 122.68100817 92.98903232 123.71875 95.046875 C124.04685669 95.68244324 124.37496338 96.31801147 124.7130127 96.97283936 C126.39296824 100.33106036 127 102.15108513 127 106 C125.29101563 107.73583984 125.29101563 107.73583984 122.90625 109.4609375 C122.04 110.09773438 121.17375 110.73453125 120.28125 111.390625 C119.3634375 112.04546875 118.445625 112.7003125 117.5 113.375 C116.613125 114.02210938 115.72625 114.66921875 114.8125 115.3359375 C113.05690324 116.61649043 111.29783655 117.89230115 109.53515625 119.16308594 C105.99030354 121.73160209 102.49127802 124.35931977 99 127 C99.19335938 127.84820312 99.38671875 128.69640625 99.5859375 129.5703125 C99.97652344 131.32988281 99.97652344 131.32988281 100.375 133.125 C100.75785156 134.83042969 100.75785156 134.83042969 101.1484375 136.5703125 C103.52545247 148.44966648 104.26744756 159.80225456 104.125 171.875 C104.08375 176.86625 104.0425 181.8575 104 187 C114.56 192.28 125.12 197.56 136 203 C134.34922124 210.42850442 132.49329477 217.68391386 130.4375 225 C130.12103516 226.14339844 129.80457031 227.28679687 129.47851562 228.46484375 C129.17494141 229.54894531 128.87136719 230.63304687 128.55859375 231.75 C128.28329834 232.73484375 128.00800293 233.7196875 127.72436523 234.734375 C127 237 127 237 126 238 C117.59624988 238.49732338 109.45772489 236.73853909 101.203125 235.33398438 C100.0790625 235.15029297 98.955 234.96660156 97.796875 234.77734375 C96.77948242 234.60452881 95.76208984 234.43171387 94.71386719 234.25366211 C92.06493658 234.00606955 90.44102427 233.97019289 88 235 C86.26239949 237.45569051 84.74647739 239.84232083 83.25 242.4375 C75.1290073 255.90031442 64.81163817 268.66903047 52 278 C54.5267868 286.67711918 57.39486232 295.22568948 60.30273438 303.78125 C60.82383789 305.328125 60.82383789 305.328125 61.35546875 306.90625 C61.67153076 307.83759766 61.98759277 308.76894531 62.31323242 309.72851562 C63 312 63 312 63 314 C52.44 319.28 41.88 324.56 31 330 C25.37565036 324.37565036 25.37565036 324.37565036 23.09765625 321.29296875 C22.59943359 320.62330078 22.10121094 319.95363281 21.58789062 319.26367188 C21.08451172 318.57853516 20.58113281 317.89339844 20.0625 317.1875 C19.31323242 316.17719727 19.31323242 316.17719727 18.54882812 315.14648438 C17.544264 313.79194306 16.54115696 312.43631985 15.53955078 311.07958984 C13.04297952 307.70727872 10.52154374 304.35365878 8 301 C7.40880371 301.12286377 6.81760742 301.24572754 6.20849609 301.37231445 C4.55034691 301.71243311 2.88903836 302.03717103 1.2265625 302.35546875 C-0.95500469 302.79125396 -3.12753704 303.27451911 -5.2890625 303.80078125 C-20.63661264 307.15309293 -36.37965554 306.26948307 -52 306 C-53.97761124 310.21654561 -55.95305974 314.43409495 -57.92651367 318.65258789 C-58.59812063 320.08743618 -59.27031704 321.52200872 -59.94311523 322.95629883 C-60.91024509 325.01831961 -61.87524867 327.08132375 -62.83984375 329.14453125 C-63.14091537 329.78526077 -63.441987 330.4259903 -63.75218201 331.08613586 C-64.97369784 333.70338757 -66.08554312 336.25662937 -67 339 C-73.9406531 337.40110609 -80.58832155 335.50984072 -87.24609375 332.98046875 C-91.06641818 331.62032487 -94.95417134 330.60935316 -98.8828125 329.61328125 C-101 329 -101 329 -102 328 C-102.25991359 321.45667535 -101.5938527 315.37743456 -100.5 308.9375 C-99.94086409 305.63053853 -99.43382594 302.32577057 -99 299 C-98.88567627 298.26322021 -98.77135254 297.52644043 -98.65356445 296.76733398 C-98.34791184 294.40823032 -98.34791184 294.40823032 -99 291 C-101.47327835 288.90136458 -103.36922707 287.64124956 -106.1875 286.1875 C-107.67013555 285.3429566 -109.14795269 284.48990401 -110.62109375 283.62890625 C-111.36214355 283.19723145 -112.10319336 282.76555664 -112.86669922 282.32080078 C-123.39992249 275.79931556 -135.13976144 265.29035784 -142 255 C-150.47508661 256.67726845 -158.4282086 259.44962148 -166.55664062 262.34179688 C-167.58595703 262.69693359 -168.61527344 263.05207031 -169.67578125 263.41796875 C-170.60302002 263.74563232 -171.53025879 264.0732959 -172.4855957 264.41088867 C-175.25430264 265.05958173 -176.46423088 265.29693022 -179 264 C-180.61572266 261.54736328 -180.61572266 261.54736328 -182.1640625 258.3203125 C-182.72867188 257.16402344 -183.29328125 256.00773437 -183.875 254.81640625 C-184.45885584 253.58618534 -185.04218371 252.35571373 -185.625 251.125 C-186.77981614 248.72980231 -187.94122424 246.33784484 -189.1015625 243.9453125 C-189.61025879 242.87812988 -190.11895508 241.81094727 -190.64306641 240.71142578 C-191.98862582 237.88307741 -191.98862582 237.88307741 -194 235 C-194 234.01 -194 233.02 -194 232 C-192.5222168 230.59301758 -192.5222168 230.59301758 -190.44921875 229.14453125 C-189.69237793 228.60787842 -188.93553711 228.07122559 -188.15576172 227.51831055 C-187.34123535 226.95539307 -186.52670898 226.39247559 -185.6875 225.8125 C-184.03766589 224.64857148 -182.38792619 223.48450911 -180.73828125 222.3203125 C-179.52519287 221.47194824 -179.52519287 221.47194824 -178.28759766 220.60644531 C-175.29036571 218.50166557 -172.33122964 216.34946086 -169.375 214.1875 C-168.51648438 213.56230469 -167.65796875 212.93710937 -166.7734375 212.29296875 C-166.18820313 211.86628906 -165.60296875 211.43960938 -165 211 C-165.17390259 210.09290283 -165.17390259 210.09290283 -165.35131836 209.16748047 C-165.88078442 206.40346126 -166.40915123 203.63923299 -166.9375 200.875 C-167.21110352 199.44800781 -167.21110352 199.44800781 -167.49023438 197.9921875 C-167.66748047 197.0640625 -167.84472656 196.1359375 -168.02734375 195.1796875 C-168.18968506 194.33132324 -168.35202637 193.48295898 -168.51928711 192.60888672 C-168.67792236 191.7479541 -168.83655762 190.88702148 -169 190 C-169.18304688 189.06414062 -169.36609375 188.12828125 -169.5546875 187.1640625 C-170.07151544 183.49186396 -170.1252873 179.8938841 -170.09765625 176.1953125 C-170.0962413 175.4713327 -170.09482635 174.74735291 -170.09336853 174.00143433 C-170.08781075 171.70924593 -170.07526633 169.41715843 -170.0625 167.125 C-170.05747953 165.56250142 -170.05291759 164.00000129 -170.04882812 162.4375 C-170.03785519 158.62496165 -170.0206201 154.81249788 -170 151 C-173.43575329 149.26734739 -176.87392579 147.53954662 -180.3125 145.8125 C-181.74819336 145.08836914 -181.74819336 145.08836914 -183.21289062 144.34960938 C-189.74094695 141.07459122 -196.32922949 137.97340229 -203 135 C-201.79203716 127.94017026 -199.91339604 121.40049648 -197.4375 114.6875 C-196.80809597 112.96336881 -196.18169244 111.23813869 -195.55859375 109.51171875 C-195.14565063 108.38963013 -195.14565063 108.38963013 -194.72436523 107.24487305 C-193.95159737 104.84999591 -193.44909323 102.47423407 -193 100 C-186.12740866 99.83065483 -179.66377905 100.46914573 -172.875 101.5 C-169.25429703 102.04531619 -165.63325367 102.54620146 -162 103 C-160.71867187 103.17917969 -159.43734375 103.35835938 -158.1171875 103.54296875 C-154.688502 103.29614822 -154.688502 103.29614822 -152.515625 99.95703125 C-151.73815561 98.58792497 -150.98416112 97.20530943 -150.25 95.8125 C-146.92988859 90.00798682 -143.44996489 84.7424633 -139.0625 79.6875 C-138.60198242 79.15552002 -138.14146484 78.62354004 -137.66699219 78.07543945 C-136.46062623 76.70276287 -135.23141349 75.35025206 -134 74 C-133.62955566 73.45794922 -133.25911133 72.91589844 -132.87744141 72.35742188 C-129.78567356 70.12202146 -126.28269834 70.63545978 -122.61328125 70.70703125 C-121.79627243 70.71127609 -120.97926361 70.71552094 -120.13749695 70.71989441 C-117.52882893 70.73668309 -114.92093438 70.77433481 -112.3125 70.8125 C-110.54363095 70.82754663 -108.77474979 70.84123508 -107.00585938 70.85351562 C-102.67027504 70.88658714 -98.33526864 70.9383701 -94 71 C-97.03545029 73.43468083 -100.08934319 75.83336584 -103.1875 78.1875 C-104.79692432 79.45166827 -106.40091635 80.72277663 -108 82 C-108.78632813 82.62390625 -109.57265625 83.2478125 -110.3828125 83.890625 C-131.1854248 101.4156553 -144.05537532 128.23468011 -147 155 C-147.25996418 160.02508074 -147.28069149 165.03165374 -147.25 170.0625 C-147.25773437 171.33416016 -147.26546875 172.60582031 -147.2734375 173.91601562 C-147.24986612 185.40117116 -145.80359439 195.92581788 -141.9375 206.75 C-141.48286377 208.02907227 -141.48286377 208.02907227 -141.01904297 209.33398438 C-130.00965242 239.11430253 -108.23659538 260.87549307 -79.875 274.3125 C-74.41753575 276.77435014 -68.76111267 278.41451668 -63 280 C-62.09507812 280.34289062 -61.19015625 280.68578125 -60.2578125 281.0390625 C-33.42768287 288.95298563 -1.67022053 282.57845786 22.44750977 269.70092773 C29.53232066 265.77128896 35.87552633 261.32463569 42 256 C42.6084375 255.52304687 43.216875 255.04609375 43.84375 254.5546875 C49.4163805 250.12191324 53.66830828 244.61344008 58 239 C58.91458984 237.82630859 58.91458984 237.82630859 59.84765625 236.62890625 C78.0451899 212.04772753 84.7347854 179.5778029 80.3125 149.546875 C75.00802375 120.06453741 58.04040301 92.73738383 33.46704102 75.56665039 C24.34593995 69.41320388 14.84709779 64.44317482 4.5 60.6875 C3.87311279 60.45708008 3.24622559 60.22666016 2.6003418 59.98925781 C-10.37107949 55.55196639 -22.89021417 54.57419726 -36.4375 54.8125 C-37.95897085 54.82760266 -39.48045651 54.84128101 -41.00195312 54.85351562 C-44.66828562 54.88601383 -48.33404167 54.93747381 -52 55 C-51.61473145 54.55342041 -51.22946289 54.10684082 -50.83251953 53.64672852 C-47.79538244 50.11658638 -44.79164598 46.56854712 -41.875 42.9375 C-41.23304688 42.14214844 -40.59109375 41.34679687 -39.9296875 40.52734375 C-37.86701281 37.98494908 -37.86701281 37.98494908 -36.3359375 34.71484375 C-34 32 -34 32 -31.99755859 31.52416992 C-29.54753589 31.40817578 -27.1995807 31.47687159 -24.75 31.625 C-21.8625 31.74875 -18.975 31.8725 -16 32 C-10.72 21.44 -5.44 10.88 0 0 Z " fill="#FDFDFD" transform="translate(356,154)"/>
<path d="M0 0 C7.41853814 4.14225768 12.30890366 11.09235973 15.0078125 19.12109375 C15.24832153 22.22798157 15.24832153 22.22798157 15.23486328 25.74731445 C15.23515533 26.39178024 15.23544739 27.03624603 15.23574829 27.70024109 C15.23436255 29.81592596 15.21883757 31.93125217 15.203125 34.046875 C15.19939217 35.51946317 15.19654647 36.99205384 15.19454956 38.46464539 C15.18693433 42.32967047 15.16730413 46.19454388 15.1451416 50.05950928 C15.12463758 54.00775094 15.11553812 57.95601725 15.10546875 61.90429688 C15.0840561 69.64329812 15.04994583 77.38217463 15.0078125 85.12109375 C11.3778125 85.12109375 7.7478125 85.12109375 4.0078125 85.12109375 C4.0078125 72.58109375 4.0078125 60.04109375 4.0078125 47.12109375 C-8.2021875 47.12109375 -20.4121875 47.12109375 -32.9921875 47.12109375 C-32.9921875 59.99109375 -32.9921875 72.86109375 -32.9921875 86.12109375 C-36.9521875 86.12109375 -40.9121875 86.12109375 -44.9921875 86.12109375 C-45.08285544 77.67119008 -45.1561135 69.22166987 -45.19943619 60.77140903 C-45.22023761 56.84685129 -45.24841701 52.92264598 -45.29394531 48.99829102 C-45.33767168 45.20515965 -45.36138049 41.41236551 -45.37169647 37.61900139 C-45.37904018 36.17781205 -45.39337994 34.73663943 -45.41510773 33.29559517 C-45.58276973 21.70615438 -43.94315536 13.56653534 -35.9296875 4.9140625 C-26.01560458 -4.26046181 -12.18027424 -5.80874465 0 0 Z " fill="#1B3751" transform="translate(275.9921875,278.87890625)"/>
<path d="M0 0 C38.33333333 0 38.33333333 0 47.8125 5.6875 C53.29506979 11.48335949 55.60804518 17.267466 55.5859375 25.22070312 C55.54339844 26.62739258 55.54339844 26.62739258 55.5 28.0625 C55.50386719 29.47499023 55.50386719 29.47499023 55.5078125 30.91601562 C55.41269753 37.75002641 54.66224242 43.73007181 50.203125 49.20703125 C49.55859375 49.73683594 48.9140625 50.26664062 48.25 50.8125 C47.61578125 51.35519531 46.9815625 51.89789063 46.328125 52.45703125 C38.90791147 57.37479022 32.80185331 57.37976691 24.0625 57.1875 C20.081875 57.125625 16.10125 57.06375 12 57 C12 67.89 12 78.78 12 90 C8.04 90 4.08 90 0 90 C0 60.3 0 30.6 0 0 Z " fill="#1F3A51" transform="translate(307,275)"/>
<path d="M0 0 C13.2 0 26.4 0 40 0 C38.16614077 3.66771845 36.74937171 5.46834996 33.875 8.25 C33.15054688 8.95640625 32.42609375 9.6628125 31.6796875 10.390625 C31.12539062 10.92171875 30.57109375 11.4528125 30 12 C34.87724437 17.8797505 40.13886878 23.26880817 45.5546875 28.65234375 C46.45623566 29.55247696 47.35778381 30.45261017 48.28665161 31.38002014 C50.66198217 33.75072823 53.03945405 36.11924515 55.41802979 38.48669434 C57.85344717 40.91180728 60.28596912 43.33982085 62.71875 45.76757812 C67.47652769 50.51437128 72.2371538 55.25829281 77 60 C75.60403514 62.90619135 74.26935799 64.97121766 71.9609375 67.234375 C71.38085938 67.80800781 70.80078125 68.38164062 70.203125 68.97265625 C69.59984375 69.55917969 68.9965625 70.14570313 68.375 70.75 C67.76398438 71.35199219 67.15296875 71.95398438 66.5234375 72.57421875 C65.02011376 74.05405305 63.51065144 75.52764676 62 77 C58.48109194 75.49484133 56.20556035 73.45879258 53.50683594 70.765625 C52.62622498 69.89131836 51.74561401 69.01701172 50.83831787 68.11621094 C49.8867478 67.16106205 48.93543964 66.20565216 47.984375 65.25 C47.00389341 64.27086602 46.02311513 63.29202907 45.04205322 62.31347656 C42.99123841 60.26560571 40.94407365 58.21417216 38.89941406 56.16015625 C36.27428192 53.52359985 33.64023305 50.89616355 31.00341415 48.27130127 C28.9787041 46.25380379 26.95876392 44.23158501 24.94025421 42.20788574 C23.97045069 41.23674562 22.99915258 40.26709572 22.02635956 39.2989502 C20.67127264 37.94892166 19.32324314 36.59182027 17.97558594 35.234375 C17.20599548 34.46319336 16.43640503 33.69201172 15.64349365 32.89746094 C14 31 14 31 14 29 C13.49210937 29.44730469 12.98421875 29.89460938 12.4609375 30.35546875 C11.77257812 30.96003906 11.08421875 31.56460938 10.375 32.1875 C9.70210937 32.77917969 9.02921875 33.37085938 8.3359375 33.98046875 C5.58794684 36.35623994 2.79063625 38.67446979 0 41 C0 27.47 0 13.94 0 0 Z " fill="#F16253" transform="translate(93,100)"/>
<path d="M0 0 C3.47609534 1.49346271 5.73290945 3.47974419 8.40136719 6.14257812 C9.2619574 6.99686401 10.12254761 7.8511499 11.00921631 8.73132324 C11.92914368 9.65529907 12.84907104 10.5792749 13.796875 11.53125 C14.75493637 12.48796371 15.71329443 13.4443804 16.67193604 14.4005127 C18.67567264 16.40130563 20.67575889 18.40565949 22.67333984 20.41259766 C25.2379383 22.98862107 27.81145211 25.55552099 30.38773727 28.11985016 C32.36612446 30.0910246 34.339741 32.06691997 36.3119278 34.04429626 C37.7207719 35.45512771 39.13365318 36.86192389 40.54656982 38.26867676 C41.39455139 39.12296265 42.24253296 39.97724854 43.11621094 40.85742188 C43.8680365 41.61083862 44.61986206 42.36425537 45.39447021 43.14050293 C47 45 47 45 47 47 C51.27916187 44.79558328 54.20393632 41.90132762 57.44921875 38.42578125 C59 37 59 37 61 37 C61 50.2 61 63.4 61 77 C47.8 77 34.6 77 21 77 C21 76.34 21 75.68 21 75 C22.64453125 73.4140625 22.64453125 73.4140625 24.8125 71.625 C27.7843058 69.16744111 29.62230978 67.17025363 32 64 C16.49 48.49 0.98 32.98 -15 17 C-13.35412625 13.7082525 -12.4470074 12.20294843 -9.9609375 9.765625 C-9.38085938 9.19199219 -8.80078125 8.61835937 -8.203125 8.02734375 C-7.59984375 7.44082031 -6.9965625 6.85429688 -6.375 6.25 C-5.76398438 5.64800781 -5.15296875 5.04601562 -4.5234375 4.42578125 C-3.02011376 2.94594695 -1.51065144 1.47235324 0 0 Z " fill="#31A3DB" transform="translate(174,77)"/>
<path d="M0 0 C11.55 0 23.1 0 35 0 C35 3.96 35 7.92 35 12 C31.37 12 27.74 12 24 12 C24 35.43 24 58.86 24 83 C27.63 83 31.26 83 35 83 C35 86.96 35 90.92 35 95 C23.45 95 11.9 95 0 95 C0 91.04 0 87.08 0 83 C3.96 83 7.92 83 12 83 C12 59.9 12 36.8 12 13 C8.04 13 4.08 13 0 13 C0 8.71 0 4.42 0 0 Z " fill="#1F3A51" transform="translate(374,275)"/>
<path d="M0 0 C3.320625 -0.061875 6.64125 -0.12375 10.0625 -0.1875 C11.09511963 -0.21481201 12.12773926 -0.24212402 13.19165039 -0.27026367 C19.8000613 -0.32954622 24.64429389 0.22429248 29.8984375 4.5703125 C31.70891127 8.56362698 31.59373223 12.54128674 31.625 16.875 C31.67011719 17.76058594 31.71523438 18.64617187 31.76171875 19.55859375 C31.80924326 24.11415755 31.48563256 27.24730613 28.23828125 30.609375 C23.17424477 34.25872513 17.54148566 33.64962586 11.5625 33.375 C5.8390625 33.189375 5.8390625 33.189375 0 33 C0 22.11 0 11.22 0 0 Z " fill="#F7BB5D" transform="translate(319,287)"/>
<path d="M0 0 C4.426225 3.4524555 7.34514004 7.09792012 9.125 12.4375 C9.125 16.7275 9.125 21.0175 9.125 25.4375 C-3.085 25.4375 -15.295 25.4375 -27.875 25.4375 C-27.875 8.31424581 -27.875 8.31424581 -24.4765625 3.95703125 C-17.97238321 -2.21400715 -8.20736089 -4.13050189 0 0 Z " fill="#F4BA5D" transform="translate(270.875,289.5625)"/>
<path d="M0 0 C5.61 0 11.22 0 17 0 C17 5.61 17 11.22 17 17 C11.39 17 5.78 17 0 17 C0 11.39 0 5.78 0 0 Z " fill="#193651" transform="translate(49,339)"/>
<path d="M0 0 C5.61 0 11.22 0 17 0 C17 5.61 17 11.22 17 17 C11.39 17 5.78 17 0 17 C0 11.39 0 5.78 0 0 Z " fill="#193551" transform="translate(49,292)"/>
<path d="M0 0 C5.61 0 11.22 0 17 0 C17 5.28 17 10.56 17 16 C11.39 16 5.78 16 0 16 C0 10.72 0 5.44 0 0 Z " fill="#193551" transform="translate(49,387)"/>
</svg>
