<?xml version="1.0" encoding="UTF-8"?>
<svg version="1.1" xmlns="http://www.w3.org/2000/svg" width="512" height="512">
<path d="M0 0 C0.99829834 -0.00287018 1.99659668 -0.00574036 3.02514648 -0.00869751 C5.12972584 -0.01073332 7.23432433 -0.00523733 9.33886719 0.00732422 C12.55186456 0.02338434 15.76360404 0.00745869 18.9765625 -0.01171875 C21.02604443 -0.00973623 23.07552558 -0.00589238 25.125 0 C26.08140381 -0.00607269 27.03780762 -0.01214539 28.02319336 -0.0184021 C33.24005159 0.03634343 37.17219766 0.27158495 41.5625 3.3984375 C45.31575875 7.77464053 46.05052603 10.84891453 45.953125 16.546875 C45.94746521 17.20426666 45.94180542 17.86165833 45.93597412 18.53897095 C45.91376275 20.61789941 45.8636042 22.69503913 45.8125 24.7734375 C45.79241489 26.19138118 45.77416765 27.60935215 45.7578125 29.02734375 C45.71395067 32.48494627 45.64503437 35.94151701 45.5625 39.3984375 C48.6957605 40.36059169 50.38184377 40.83844143 53.5625 40.3984375 C57.14064253 37.93368192 59.91296569 34.8020043 62.8125 31.5859375 C64.37596227 29.9087921 65.94351355 28.23544686 67.515625 26.56640625 C68.19786133 25.81641357 68.88009766 25.0664209 69.58300781 24.29370117 C72.78270589 21.23015206 75.53647546 20.10064846 79.9375 20.0234375 C80.66710937 19.99507812 81.39671875 19.96671875 82.1484375 19.9375 C88.26942299 21.10623186 92.91148712 26.42804653 97.16796875 30.66796875 C97.7738533 31.2671965 98.37973785 31.86642426 99.00398254 32.48381042 C100.27634587 33.74609965 101.54605755 35.01106677 102.81323242 36.27856445 C104.74435732 38.20530762 106.69092349 40.11547214 108.63867188 42.02539062 C109.87858294 43.25943402 111.11754772 44.49442908 112.35546875 45.73046875 C112.93362839 46.29425735 113.51178802 46.85804596 114.10746765 47.43891907 C118.81334198 52.19831852 121.46847102 56.43652461 121.6875 63.3359375 C120.44129814 69.99930254 114.92762801 74.1398073 110.171875 78.546875 C109.57858398 79.10930908 108.98529297 79.67174316 108.37402344 80.2512207 C107.1820273 81.3762273 105.97188484 82.48236224 104.74316406 83.56713867 C103.09910657 85.11781638 101.74556116 86.47088317 100.5625 88.3984375 C100.52778614 92.21076344 100.52778614 92.21076344 101.5625 95.3984375 C102.37404541 95.38272705 103.18559082 95.3670166 104.02172852 95.35083008 C107.72274724 95.28820843 111.42365417 95.24935978 115.125 95.2109375 C116.40181641 95.18580078 117.67863281 95.16066406 118.99414062 95.13476562 C131.42656825 95.03788957 131.42656825 95.03788957 136.5625 98.3984375 C140.31080554 102.47320836 141.00582269 105.64665912 140.9140625 110.96875 C140.86378906 112.10957031 140.86378906 112.10957031 140.8125 113.2734375 C140.79445313 114.0571875 140.77640625 114.8409375 140.7578125 115.6484375 C140.71105148 117.56563939 140.63932003 119.48220465 140.5625 121.3984375 C141.28840332 121.37749023 142.01430664 121.35654297 142.76220703 121.33496094 C146.07049555 121.251501 149.37856211 121.19968211 152.6875 121.1484375 C153.82960938 121.11492187 154.97171875 121.08140625 156.1484375 121.046875 C162.6075299 120.97176927 166.70306067 120.95274009 171.5625 125.3984375 C176.79206545 131.05202177 176.71368433 135.76037107 176.72363281 143.21850586 C176.72859772 144.10838699 176.73356262 144.99826813 176.73867798 145.91511536 C176.75327233 148.85617854 176.76009622 151.79718782 176.765625 154.73828125 C176.77137763 156.78324892 176.77713535 158.82821657 176.78289795 160.8731842 C176.79339943 165.15951794 176.79924803 169.44583295 176.80273438 173.73217773 C176.80822465 179.22459272 176.83226774 184.7167605 176.86070633 190.20909786 C176.87932616 194.4324262 176.88453791 198.65569483 176.88607025 202.87906075 C176.88909756 204.90406207 176.89712872 206.92906232 176.91025543 208.95402336 C176.92730599 211.78586576 176.92543834 214.61710174 176.91894531 217.44897461 C176.9281601 218.28498199 176.93737488 219.12098938 176.9468689 219.98233032 C176.91419983 224.52968055 176.73575687 227.84774038 173.5625 231.3984375 C171.9125 231.7284375 170.2625 232.0584375 168.5625 232.3984375 C168.5625 238.9984375 168.5625 245.5984375 168.5625 252.3984375 C170.2125 252.7284375 171.8625 253.0584375 173.5625 253.3984375 C176.54329847 257.02714167 176.94154485 259.97074217 176.96122742 264.58039856 C176.98003464 266.44602951 176.98003464 266.44602951 176.9992218 268.34934998 C176.99804786 269.71963527 176.99658875 271.08992035 176.99487305 272.46020508 C177.00389321 273.90920853 177.01422105 275.35820434 177.02575684 276.80718994 C177.05332338 280.73447475 177.06261085 284.66161475 177.06861091 288.58898377 C177.07799549 292.69566725 177.10419895 296.8022426 177.12861633 300.90885925 C177.17228271 308.68247611 177.20082881 316.45607199 177.22393972 324.22977418 C177.25099065 333.08105357 177.29490222 341.9322242 177.34022844 350.78342593 C177.43307669 368.98837237 177.5047566 387.19334757 177.5625 405.3984375 C178.17303223 405.58889648 178.78356445 405.77935547 179.41259766 405.97558594 C180.21745605 406.2337207 181.02231445 406.49185547 181.8515625 406.7578125 C183.04579834 407.13631348 183.04579834 407.13631348 184.26416016 407.52246094 C189.03794013 409.34191309 191.83800112 411.9823715 194.1953125 416.58984375 C197.49025054 424.73040404 196.60671639 434.82917745 193.5 442.8984375 C188.37263981 453.46824705 180.59628103 459.85224892 169.64671421 463.95865345 C163.89894478 465.83550369 158.39510367 465.80644152 152.39476013 465.75920105 C150.59462946 465.76304596 150.59462946 465.76304596 148.75813252 465.76696855 C145.44900564 465.77103768 142.14041779 465.76173113 138.83135641 465.74663436 C135.2547946 465.73362609 131.67824814 465.73806683 128.10166931 465.74034119 C121.91231317 465.74191091 115.72305222 465.73253333 109.53372002 465.71562767 C100.58510438 465.69120122 91.63653458 465.68342868 82.68788923 465.6796637 C68.16779527 465.67310492 53.647752 465.65315936 39.12768555 465.62475586 C25.02645114 465.59720042 10.92523052 465.57597411 -3.17602539 465.56323242 C-4.04586359 465.56244425 -4.91570179 465.56165608 -5.81189872 465.56084403 C-10.17581173 465.55692879 -14.53972483 465.5531377 -18.90363801 465.54940832 C-55.08162778 465.51833029 -91.25955994 465.46551015 -127.4375 465.3984375 C-127.72488037 466.32350098 -128.01226074 467.24856445 -128.30834961 468.20166016 C-129.62130662 471.91881889 -131.58319971 474.71676144 -134 477.7734375 C-134.67144043 478.62651489 -134.67144043 478.62651489 -135.35644531 479.49682617 C-147.08924466 494.08405391 -163.88855399 503.51483588 -182.50390625 506.01171875 C-204.31304621 508.15581493 -224.26653545 503.0521943 -241.4375 489.3984375 C-246.15965602 485.37858514 -250.46171396 481.69758509 -252.91796875 475.91015625 C-255.19332789 470.36443873 -255.19332789 470.36443873 -259.4375 466.3984375 C-265.87126168 464.96072539 -272.41194642 465.33892112 -278.95703125 465.55078125 C-289.0432992 465.71833472 -297.49955497 461.84258802 -304.9375 455.1484375 C-313.92865909 445.2581625 -317.12640489 437.50535641 -316.7734375 423.9296875 C-316.21286596 418.03716804 -314.8844133 414.50640455 -310.37890625 410.625 C-306.02995683 407.50079688 -302.74670572 406.19868539 -297.4375 405.3984375 C-297.43920874 404.54602643 -297.43920874 404.54602643 -297.440952 403.67639494 C-297.50809729 369.99019139 -297.55956527 336.30400306 -297.59069599 302.61774716 C-297.59444807 298.5723131 -297.59833104 294.52687917 -297.60229492 290.48144531 C-297.60308185 289.67607781 -297.60386878 288.8707103 -297.60467956 288.04093772 C-297.61773078 275.00333729 -297.64138306 261.96577658 -297.66895839 248.92819971 C-297.69702049 235.54881673 -297.71367796 222.16945455 -297.71976548 208.79004335 C-297.72388026 200.53531336 -297.73687293 192.28069563 -297.7612494 184.0260002 C-297.77711652 178.36418931 -297.78189815 172.7024364 -297.77800413 167.04060489 C-297.77608409 163.77479644 -297.78065576 160.50922517 -297.79511642 157.24344254 C-297.81004171 153.69904454 -297.80645297 150.15512688 -297.79826355 146.61071777 C-297.80700207 145.58346447 -297.8157406 144.55621116 -297.82474393 143.49782896 C-297.78548487 137.2115039 -297.51927516 130.70426408 -292.98554009 125.84091711 C-288.32760238 121.84979693 -285.73286751 121.27377032 -279.70516968 121.27818298 C-279.00517337 121.27732856 -278.30517707 121.27647413 -277.58396876 121.27559382 C-275.22701473 121.27394033 -272.87013112 121.27945824 -270.51318359 121.28491211 C-268.82818097 121.28519404 -267.14317822 121.28503614 -265.45817566 121.2844696 C-260.87371887 121.28418184 -256.28928806 121.29007517 -251.70483732 121.29704356 C-246.91753488 121.3032806 -242.1302319 121.30388118 -237.34292603 121.30506897 C-228.27295764 121.30818125 -219.20300126 121.31639325 -210.13303816 121.32641846 C-199.80912696 121.3375828 -189.4852152 121.34309086 -179.16129947 121.34811389 C-157.92002627 121.35857594 -136.67876389 121.37617339 -115.4375 121.3984375 C-115.52451172 119.55378906 -115.52451172 119.55378906 -115.61328125 117.671875 C-115.66020005 116.03910062 -115.70569794 114.40628498 -115.75 112.7734375 C-115.8128418 111.56107422 -115.8128418 111.56107422 -115.87695312 110.32421875 C-115.96311279 106.0851634 -115.81447993 103.2764925 -113.0987854 99.89767456 C-108.40396608 95.48872751 -103.98100632 95.14574478 -97.7265625 95.203125 C-96.48261719 95.20957031 -95.23867187 95.21601562 -93.95703125 95.22265625 C-92.02923828 95.24779297 -92.02923828 95.24779297 -90.0625 95.2734375 C-88.75410156 95.28246094 -87.44570312 95.29148437 -86.09765625 95.30078125 C-82.8774163 95.32428665 -79.65755293 95.35714663 -76.4375 95.3984375 C-75.3786017 92.56196625 -74.95301921 91.32382901 -75.4375 88.3984375 C-78.10886645 84.74634378 -81.41377532 81.81284503 -84.75 78.7734375 C-86.52339912 77.12150408 -88.29059697 75.46288213 -90.05078125 73.796875 C-90.84266846 73.07161621 -91.63455566 72.34635742 -92.45043945 71.59912109 C-95.04110772 68.72993769 -96.26699045 66.06464483 -96.66015625 62.22265625 C-95.83874505 51.26382873 -84.82774914 43.60231329 -77.44799805 36.22363281 C-75.73782134 34.51124308 -74.03584064 32.79096706 -72.33398438 31.0703125 C-71.24007234 29.97347041 -70.14568822 28.8770989 -69.05078125 27.78125 C-68.54654129 27.26982452 -68.04230133 26.75839905 -67.52278137 26.23147583 C-63.60209316 22.33604291 -60.64335474 20.12134723 -55.0625 20.0234375 C-54.33289063 19.99507812 -53.60328125 19.96671875 -52.8515625 19.9375 C-45.00048362 21.43657331 -39.55223336 29.34388712 -34.53515625 34.99414062 C-30.98624596 38.98128271 -30.98624596 38.98128271 -26.14746094 40.65380859 C-23.68833542 40.40521924 -23.68833542 40.40521924 -20.4375 39.3984375 C-20.45844727 38.52106934 -20.47939453 37.64370117 -20.50097656 36.73974609 C-20.569426 33.46327067 -20.61943051 30.18756238 -20.65722656 26.91064453 C-20.67725843 25.49645955 -20.70449248 24.08235653 -20.73925781 22.66845703 C-20.78815489 20.62772331 -20.81055123 18.5880906 -20.828125 16.546875 C-20.84907227 15.32145996 -20.87001953 14.09604492 -20.89160156 12.83349609 C-20.33599384 8.63059255 -19.18936693 6.60704346 -16.4375 3.3984375 C-11.26496616 -0.28553444 -6.10967201 -0.03879341 0 0 Z M-17.25 103.0234375 C-21.15503738 107.79831733 -25.4375 115.08280393 -25.4375 121.3984375 C-0.3575 121.3984375 24.7225 121.3984375 50.5625 121.3984375 C47.13157001 109.96200421 43.14681138 101.76408905 32.73046875 95.54296875 C15.90246555 86.65899589 -3.81018086 89.03089852 -17.25 103.0234375 Z " fill="#6AD8E6" transform="translate(316.4375,2.6015625)"/>
<path d="M0 0 C0.99829834 -0.00287018 1.99659668 -0.00574036 3.02514648 -0.00869751 C5.12972584 -0.01073332 7.23432433 -0.00523733 9.33886719 0.00732422 C12.55186456 0.02338434 15.76360404 0.00745869 18.9765625 -0.01171875 C21.02604443 -0.00973623 23.07552558 -0.00589238 25.125 0 C26.08140381 -0.00607269 27.03780762 -0.01214539 28.02319336 -0.0184021 C33.24005159 0.03634343 37.17219766 0.27158495 41.5625 3.3984375 C45.31575875 7.77464053 46.05052603 10.84891453 45.953125 16.546875 C45.94746521 17.20426666 45.94180542 17.86165833 45.93597412 18.53897095 C45.91376275 20.61789941 45.8636042 22.69503913 45.8125 24.7734375 C45.79241489 26.19138118 45.77416765 27.60935215 45.7578125 29.02734375 C45.71395067 32.48494627 45.64503437 35.94151701 45.5625 39.3984375 C48.6957605 40.36059169 50.38184377 40.83844143 53.5625 40.3984375 C57.14064253 37.93368192 59.91296569 34.8020043 62.8125 31.5859375 C64.37596227 29.9087921 65.94351355 28.23544686 67.515625 26.56640625 C68.19786133 25.81641357 68.88009766 25.0664209 69.58300781 24.29370117 C72.78270589 21.23015206 75.53647546 20.10064846 79.9375 20.0234375 C80.66710937 19.99507812 81.39671875 19.96671875 82.1484375 19.9375 C88.26942299 21.10623186 92.91148712 26.42804653 97.16796875 30.66796875 C97.7738533 31.2671965 98.37973785 31.86642426 99.00398254 32.48381042 C100.27634587 33.74609965 101.54605755 35.01106677 102.81323242 36.27856445 C104.74435732 38.20530762 106.69092349 40.11547214 108.63867188 42.02539062 C109.87858294 43.25943402 111.11754772 44.49442908 112.35546875 45.73046875 C112.93362839 46.29425735 113.51178802 46.85804596 114.10746765 47.43891907 C118.81334198 52.19831852 121.46847102 56.43652461 121.6875 63.3359375 C120.44129814 69.99930254 114.92762801 74.1398073 110.171875 78.546875 C109.57858398 79.10930908 108.98529297 79.67174316 108.37402344 80.2512207 C107.1820273 81.3762273 105.97188484 82.48236224 104.74316406 83.56713867 C103.09910657 85.11781638 101.74556116 86.47088317 100.5625 88.3984375 C100.52778614 92.21076344 100.52778614 92.21076344 101.5625 95.3984375 C102.37404541 95.38272705 103.18559082 95.3670166 104.02172852 95.35083008 C107.72274724 95.28820843 111.42365417 95.24935978 115.125 95.2109375 C116.40181641 95.18580078 117.67863281 95.16066406 118.99414062 95.13476562 C131.42656825 95.03788957 131.42656825 95.03788957 136.5625 98.3984375 C140.31080554 102.47320836 141.00582269 105.64665912 140.9140625 110.96875 C140.86378906 112.10957031 140.86378906 112.10957031 140.8125 113.2734375 C140.79445313 114.0571875 140.77640625 114.8409375 140.7578125 115.6484375 C140.71105148 117.56563939 140.63932003 119.48220465 140.5625 121.3984375 C141.28840332 121.37749023 142.01430664 121.35654297 142.76220703 121.33496094 C146.07049555 121.251501 149.37856211 121.19968211 152.6875 121.1484375 C153.82960938 121.11492187 154.97171875 121.08140625 156.1484375 121.046875 C162.6075299 120.97176927 166.70306067 120.95274009 171.5625 125.3984375 C176.79206545 131.05202177 176.71368433 135.76037107 176.72363281 143.21850586 C176.72859772 144.10838699 176.73356262 144.99826813 176.73867798 145.91511536 C176.75327233 148.85617854 176.76009622 151.79718782 176.765625 154.73828125 C176.77137763 156.78324892 176.77713535 158.82821657 176.78289795 160.8731842 C176.79339943 165.15951794 176.79924803 169.44583295 176.80273438 173.73217773 C176.80822465 179.22459272 176.83226774 184.7167605 176.86070633 190.20909786 C176.87932616 194.4324262 176.88453791 198.65569483 176.88607025 202.87906075 C176.88909756 204.90406207 176.89712872 206.92906232 176.91025543 208.95402336 C176.92730599 211.78586576 176.92543834 214.61710174 176.91894531 217.44897461 C176.9281601 218.28498199 176.93737488 219.12098938 176.9468689 219.98233032 C176.91047104 225.04870791 176.32173802 228.63919948 172.5625 232.3984375 C169.3125 232.7734375 169.3125 232.7734375 165.5625 232.3984375 C163.9125 230.7484375 162.2625 229.0984375 160.5625 227.3984375 C160.5625 197.3684375 160.5625 167.3384375 160.5625 136.3984375 C14.7025 136.3984375 -131.1575 136.3984375 -281.4375 136.3984375 C-281.4375 225.4984375 -281.4375 314.5984375 -281.4375 406.3984375 C-274.8375 406.0684375 -268.2375 405.7384375 -261.4375 405.3984375 C-257.67100321 400.00579227 -257.67100321 400.00579227 -255.2109375 394.47265625 C-249.34673948 379.75690375 -233.09716471 370.35813304 -219.33886719 364.21289062 C-204.5063777 357.85937432 -183.48722134 358.08175991 -168.4765625 363.87890625 C-160.97345377 366.94179051 -153.84357914 370.37846905 -147.4375 375.3984375 C-146.70402344 375.95789063 -145.97054687 376.51734375 -145.21484375 377.09375 C-136.49288 384.24486265 -129.91238456 394.08674698 -125.4375 404.3984375 C-125.4375 405.0584375 -125.4375 405.7184375 -125.4375 406.3984375 C-31.0575 406.3984375 63.3225 406.3984375 160.5625 406.3984375 C160.3645146 357.5873869 160.3645146 357.5873869 160.11206055 308.77661133 C160.08947754 299.34118652 160.08947754 299.34118652 160.08528137 294.92558289 C160.08061849 291.83812029 160.06186418 288.75108651 160.03462219 285.66374207 C160.00033494 281.72581139 159.99004209 277.78850457 159.99713862 273.85043848 C159.99565467 272.40508928 159.98573334 270.95971837 159.96642435 269.5144974 C159.94154839 267.56193138 159.95053626 265.6090215 159.96122742 263.65632629 C159.95661845 262.56215802 159.95200949 261.46798975 159.94726086 260.34066486 C160.77355067 256.38914044 162.44446656 254.880046 165.5625 252.3984375 C171.41023663 251.59185314 171.41023663 251.59185314 174.4375 253.7109375 C176.74596226 257.17363089 176.69663791 260.30468939 176.72071838 264.33988953 C176.73540161 266.20139648 176.73540161 266.20139648 176.75038147 268.10050964 C176.75628564 269.47805748 176.76209608 270.85560571 176.76782227 272.2331543 C176.77740111 273.68185709 176.78741119 275.13055709 176.79782104 276.57925415 C176.82487551 280.51488353 176.84588214 284.45052491 176.86582303 288.3861959 C176.88767923 292.49819362 176.91506971 296.61015432 176.94187927 300.72212219 C176.99181111 308.50997325 177.03674812 316.29784485 177.07990164 324.0857361 C177.12926981 332.95144131 177.1841895 341.8171094 177.23958123 350.68277872 C177.35340881 368.92129717 177.46024617 387.15985067 177.5625 405.3984375 C178.17303223 405.58889648 178.78356445 405.77935547 179.41259766 405.97558594 C180.21745605 406.2337207 181.02231445 406.49185547 181.8515625 406.7578125 C183.04579834 407.13631348 183.04579834 407.13631348 184.26416016 407.52246094 C189.03794013 409.34191309 191.83800112 411.9823715 194.1953125 416.58984375 C197.49025054 424.73040404 196.60671639 434.82917745 193.5 442.8984375 C188.37263981 453.46824705 180.59628103 459.85224892 169.64671421 463.95865345 C163.89894478 465.83550369 158.39510367 465.80644152 152.39476013 465.75920105 C150.59462946 465.76304596 150.59462946 465.76304596 148.75813252 465.76696855 C145.44900564 465.77103768 142.14041779 465.76173113 138.83135641 465.74663436 C135.2547946 465.73362609 131.67824814 465.73806683 128.10166931 465.74034119 C121.91231317 465.74191091 115.72305222 465.73253333 109.53372002 465.71562767 C100.58510438 465.69120122 91.63653458 465.68342868 82.68788923 465.6796637 C68.16779527 465.67310492 53.647752 465.65315936 39.12768555 465.62475586 C25.02645114 465.59720042 10.92523052 465.57597411 -3.17602539 465.56323242 C-4.04586359 465.56244425 -4.91570179 465.56165608 -5.81189872 465.56084403 C-10.17581173 465.55692879 -14.53972483 465.5531377 -18.90363801 465.54940832 C-55.08162778 465.51833029 -91.25955994 465.46551015 -127.4375 465.3984375 C-127.72488037 466.32350098 -128.01226074 467.24856445 -128.30834961 468.20166016 C-129.62130662 471.91881889 -131.58319971 474.71676144 -134 477.7734375 C-134.67144043 478.62651489 -134.67144043 478.62651489 -135.35644531 479.49682617 C-147.08924466 494.08405391 -163.88855399 503.51483588 -182.50390625 506.01171875 C-204.31304621 508.15581493 -224.26653545 503.0521943 -241.4375 489.3984375 C-246.15965602 485.37858514 -250.46171396 481.69758509 -252.91796875 475.91015625 C-255.19332789 470.36443873 -255.19332789 470.36443873 -259.4375 466.3984375 C-265.87126168 464.96072539 -272.41194642 465.33892112 -278.95703125 465.55078125 C-289.0432992 465.71833472 -297.49955497 461.84258802 -304.9375 455.1484375 C-313.92865909 445.2581625 -317.12640489 437.50535641 -316.7734375 423.9296875 C-316.21286596 418.03716804 -314.8844133 414.50640455 -310.37890625 410.625 C-306.02995683 407.50079688 -302.74670572 406.19868539 -297.4375 405.3984375 C-297.43920874 404.54602643 -297.43920874 404.54602643 -297.440952 403.67639494 C-297.50809729 369.99019139 -297.55956527 336.30400306 -297.59069599 302.61774716 C-297.59444807 298.5723131 -297.59833104 294.52687917 -297.60229492 290.48144531 C-297.60308185 289.67607781 -297.60386878 288.8707103 -297.60467956 288.04093772 C-297.61773078 275.00333729 -297.64138306 261.96577658 -297.66895839 248.92819971 C-297.69702049 235.54881673 -297.71367796 222.16945455 -297.71976548 208.79004335 C-297.72388026 200.53531336 -297.73687293 192.28069563 -297.7612494 184.0260002 C-297.77711652 178.36418931 -297.78189815 172.7024364 -297.77800413 167.04060489 C-297.77608409 163.77479644 -297.78065576 160.50922517 -297.79511642 157.24344254 C-297.81004171 153.69904454 -297.80645297 150.15512688 -297.79826355 146.61071777 C-297.80700207 145.58346447 -297.8157406 144.55621116 -297.82474393 143.49782896 C-297.78548487 137.2115039 -297.51927516 130.70426408 -292.98554009 125.84091711 C-288.32760238 121.84979693 -285.73286751 121.27377032 -279.70516968 121.27818298 C-279.00517337 121.27732856 -278.30517707 121.27647413 -277.58396876 121.27559382 C-275.22701473 121.27394033 -272.87013112 121.27945824 -270.51318359 121.28491211 C-268.82818097 121.28519404 -267.14317822 121.28503614 -265.45817566 121.2844696 C-260.87371887 121.28418184 -256.28928806 121.29007517 -251.70483732 121.29704356 C-246.91753488 121.3032806 -242.1302319 121.30388118 -237.34292603 121.30506897 C-228.27295764 121.30818125 -219.20300126 121.31639325 -210.13303816 121.32641846 C-199.80912696 121.3375828 -189.4852152 121.34309086 -179.16129947 121.34811389 C-157.92002627 121.35857594 -136.67876389 121.37617339 -115.4375 121.3984375 C-115.52451172 119.55378906 -115.52451172 119.55378906 -115.61328125 117.671875 C-115.66020005 116.03910062 -115.70569794 114.40628498 -115.75 112.7734375 C-115.8128418 111.56107422 -115.8128418 111.56107422 -115.87695312 110.32421875 C-115.96311279 106.0851634 -115.81447993 103.2764925 -113.0987854 99.89767456 C-108.40396608 95.48872751 -103.98100632 95.14574478 -97.7265625 95.203125 C-96.48261719 95.20957031 -95.23867187 95.21601562 -93.95703125 95.22265625 C-92.02923828 95.24779297 -92.02923828 95.24779297 -90.0625 95.2734375 C-88.75410156 95.28246094 -87.44570312 95.29148437 -86.09765625 95.30078125 C-82.8774163 95.32428665 -79.65755293 95.35714663 -76.4375 95.3984375 C-75.3786017 92.56196625 -74.95301921 91.32382901 -75.4375 88.3984375 C-78.10886645 84.74634378 -81.41377532 81.81284503 -84.75 78.7734375 C-86.52339912 77.12150408 -88.29059697 75.46288213 -90.05078125 73.796875 C-90.84266846 73.07161621 -91.63455566 72.34635742 -92.45043945 71.59912109 C-95.04110772 68.72993769 -96.26699045 66.06464483 -96.66015625 62.22265625 C-95.83874505 51.26382873 -84.82774914 43.60231329 -77.44799805 36.22363281 C-75.73782134 34.51124308 -74.03584064 32.79096706 -72.33398438 31.0703125 C-71.24007234 29.97347041 -70.14568822 28.8770989 -69.05078125 27.78125 C-68.54654129 27.26982452 -68.04230133 26.75839905 -67.52278137 26.23147583 C-63.60209316 22.33604291 -60.64335474 20.12134723 -55.0625 20.0234375 C-54.33289063 19.99507812 -53.60328125 19.96671875 -52.8515625 19.9375 C-45.00048362 21.43657331 -39.55223336 29.34388712 -34.53515625 34.99414062 C-30.98624596 38.98128271 -30.98624596 38.98128271 -26.14746094 40.65380859 C-23.68833542 40.40521924 -23.68833542 40.40521924 -20.4375 39.3984375 C-20.45844727 38.52106934 -20.47939453 37.64370117 -20.50097656 36.73974609 C-20.569426 33.46327067 -20.61943051 30.18756238 -20.65722656 26.91064453 C-20.67725843 25.49645955 -20.70449248 24.08235653 -20.73925781 22.66845703 C-20.78815489 20.62772331 -20.81055123 18.5880906 -20.828125 16.546875 C-20.84907227 15.32145996 -20.87001953 14.09604492 -20.89160156 12.83349609 C-20.33599384 8.63059255 -19.18936693 6.60704346 -16.4375 3.3984375 C-11.26496616 -0.28553444 -6.10967201 -0.03879341 0 0 Z M-17.25 103.0234375 C-21.15503738 107.79831733 -25.4375 115.08280393 -25.4375 121.3984375 C-0.3575 121.3984375 24.7225 121.3984375 50.5625 121.3984375 C47.13157001 109.96200421 43.14681138 101.76408905 32.73046875 95.54296875 C15.90246555 86.65899589 -3.81018086 89.03089852 -17.25 103.0234375 Z " fill="#010101" transform="translate(316.4375,2.6015625)"/>
<path d="M0 0 C1.01880776 -0.00445784 2.03761552 -0.00891569 3.08729625 -0.01350862 C4.77126156 -0.01323207 4.77126156 -0.01323207 6.48924637 -0.01294994 C7.67926797 -0.01662663 8.86928957 -0.02030332 10.09537244 -0.02409142 C13.40435354 -0.03322022 16.71328503 -0.03782837 20.02227402 -0.04048073 C23.5888585 -0.04438344 27.15542862 -0.05396176 30.72200394 -0.0626936 C39.33783938 -0.08245833 47.95367601 -0.09252395 56.56952846 -0.10142139 C60.62613494 -0.10580402 64.68274011 -0.11117087 68.73934555 -0.11641026 C82.22291544 -0.13342208 95.70648451 -0.14791672 109.19006348 -0.155159 C112.68930691 -0.15706891 116.18855033 -0.15898924 119.68779373 -0.16094494 C120.55752057 -0.16142868 121.4272474 -0.16191242 122.3233296 -0.16241082 C136.41547822 -0.1707129 150.507542 -0.19605302 164.59965357 -0.22852562 C179.0650728 -0.26158692 193.5304489 -0.27960689 207.99590611 -0.28280324 C216.11882872 -0.28496913 224.24162759 -0.2937294 232.3645134 -0.31926441 C239.2816323 -0.3409587 246.19859741 -0.34902812 253.11574647 -0.33929763 C256.64476912 -0.33474926 260.17347438 -0.33666985 263.70245361 -0.35605907 C267.52946587 -0.37690413 271.35603966 -0.36671718 275.18309402 -0.35352612 C276.29681468 -0.36449536 277.41053533 -0.37546461 278.55800509 -0.38676625 C284.96584418 -0.3333433 288.8712436 0.32956576 294.09013748 4.13422108 C298.39429302 8.6950028 297.51824256 14.81517822 297.49419022 20.71405506 C297.50448509 22.47096668 297.50448509 22.47096668 297.51498795 24.26337147 C297.53329188 28.13580917 297.52941313 32.00784314 297.52373123 35.88031483 C297.52620686 37.89142413 297.53055377 39.90252349 297.53508431 41.91362911 C297.54912166 48.23533256 297.54757501 54.55690085 297.5361824 60.87860584 C297.52470271 67.39242908 297.53877572 73.90584051 297.56557888 80.41960949 C297.58775683 86.01978716 297.59436856 91.61983576 297.58850247 97.22005421 C297.58513647 100.56151472 297.5892366 103.90250044 297.60475349 107.24396038 C297.61962314 110.97128312 297.60901446 114.69769831 297.59184647 118.42499256 C297.60151443 119.52700504 297.6111824 120.62901752 297.62114334 121.76442432 C297.56389498 127.69720673 297.31632216 131.59331437 293.09013748 136.13422108 C287.93084786 140.42188507 284.086157 140.70765175 277.67056656 140.64215565 C276.7297508 140.64839561 275.78893503 140.65463557 274.8196097 140.66106462 C271.6711671 140.67700301 268.52349776 140.66438681 265.37504959 140.6517992 C263.11629154 140.65721989 260.85753703 140.66434224 258.59878922 140.67303944 C252.46668484 140.69128083 246.33484954 140.68420198 240.20274043 140.67152309 C233.78820997 140.661401 227.37370265 140.67078647 220.9591713 140.67706776 C209.49787134 140.68481219 198.03672052 140.67237747 186.57544578 140.65203041 C176.18501869 140.63415553 165.79477034 140.63726764 155.40434647 140.65570545 C143.33424049 140.67711387 131.26426951 140.68507871 119.19413763 140.6732564 C112.80620091 140.6670159 106.4183873 140.66620135 100.03045845 140.67940235 C94.02626327 140.6909436 88.0224062 140.6829663 82.0182476 140.65982533 C79.81275749 140.6545293 77.60723899 140.6560672 75.4017601 140.66487598 C72.39502881 140.67577928 69.38938636 140.66213046 66.38272476 140.64215565 C65.50646358 140.65107853 64.6302024 140.66000142 63.72738785 140.6691947 C59.73345714 140.61759848 57.57771877 140.42204859 54.07185078 138.35247517 C52.09013748 136.13422108 52.09013748 136.13422108 51.09013748 132.13422108 C44.82013748 132.13422108 38.55013748 132.13422108 32.09013748 132.13422108 C31.43013748 133.78422108 30.77013748 135.43422108 30.09013748 137.13422108 C27.7041222 139.65501416 26.35782104 140.10047003 22.88554764 140.53827381 C15.51423177 140.59624399 15.51423177 140.59624399 12.87334061 140.580266 C10.72847824 140.5717739 8.58629819 140.60049795 6.44169998 140.63226795 C5.06670077 140.63388079 3.69169689 140.63330085 2.31669998 140.63031483 C1.0748494 140.63216785 -0.16700119 140.63402088 -1.44648361 140.63593006 C-6.35115602 139.92543367 -9.47959025 137.76177228 -12.72236252 134.07172108 C-14.74347667 130.77411377 -15.04182315 128.04871144 -15.07722092 124.27162647 C-15.09445709 122.76823467 -15.09445709 122.76823467 -15.11204147 121.23447132 C-15.11944351 120.13573689 -15.12684555 119.03700245 -15.13447189 117.90497303 C-15.14586197 116.74695683 -15.15725204 115.58894062 -15.16898727 114.39583302 C-15.26650232 103.71895036 -15.31792311 93.04142197 -15.35467911 82.36415291 C-15.38223514 74.47703272 -15.4329702 66.59081355 -15.51515341 58.70406848 C-15.57103649 53.15234571 -15.59992816 47.60086669 -15.60915232 42.04887265 C-15.61539609 38.73602493 -15.63697097 35.42447427 -15.68053818 32.11187649 C-15.72670305 28.41067294 -15.72874785 24.7118691 -15.72040939 21.01044178 C-15.74400528 19.9218285 -15.76760117 18.83321522 -15.79191208 17.71161366 C-15.71846029 10.96651345 -14.44047953 7.42522639 -9.70558548 2.56435394 C-6.60208021 0.09268934 -3.81664956 0.00773881 0 0 Z " fill="#B9F199" transform="translate(114.90986251831055,203.86577892303467)"/>
<path d="M0 0 C1.01880776 -0.00445784 2.03761552 -0.00891569 3.08729625 -0.01350862 C4.77126156 -0.01323207 4.77126156 -0.01323207 6.48924637 -0.01294994 C7.67926797 -0.01662663 8.86928957 -0.02030332 10.09537244 -0.02409142 C13.40435354 -0.03322022 16.71328503 -0.03782837 20.02227402 -0.04048073 C23.5888585 -0.04438344 27.15542862 -0.05396176 30.72200394 -0.0626936 C39.33783938 -0.08245833 47.95367601 -0.09252395 56.56952846 -0.10142139 C60.62613494 -0.10580402 64.68274011 -0.11117087 68.73934555 -0.11641026 C82.22291544 -0.13342208 95.70648451 -0.14791672 109.19006348 -0.155159 C112.68930691 -0.15706891 116.18855033 -0.15898924 119.68779373 -0.16094494 C120.55752057 -0.16142868 121.4272474 -0.16191242 122.3233296 -0.16241082 C136.41547822 -0.1707129 150.507542 -0.19605302 164.59965357 -0.22852562 C179.0650728 -0.26158692 193.5304489 -0.27960689 207.99590611 -0.28280324 C216.11882872 -0.28496913 224.24162759 -0.2937294 232.3645134 -0.31926441 C239.2816323 -0.3409587 246.19859741 -0.34902812 253.11574647 -0.33929763 C256.64476912 -0.33474926 260.17347438 -0.33666985 263.70245361 -0.35605907 C267.52946587 -0.37690413 271.35603966 -0.36671718 275.18309402 -0.35352612 C276.29681468 -0.36449536 277.41053533 -0.37546461 278.55800509 -0.38676625 C284.96584418 -0.3333433 288.8712436 0.32956576 294.09013748 4.13422108 C298.39429302 8.6950028 297.51824256 14.81517822 297.49419022 20.71405506 C297.50448509 22.47096668 297.50448509 22.47096668 297.51498795 24.26337147 C297.53329188 28.13580917 297.52941313 32.00784314 297.52373123 35.88031483 C297.52620686 37.89142413 297.53055377 39.90252349 297.53508431 41.91362911 C297.54912166 48.23533256 297.54757501 54.55690085 297.5361824 60.87860584 C297.52470271 67.39242908 297.53877572 73.90584051 297.56557888 80.41960949 C297.58775683 86.01978716 297.59436856 91.61983576 297.58850247 97.22005421 C297.58513647 100.56151472 297.5892366 103.90250044 297.60475349 107.24396038 C297.61962314 110.97128312 297.60901446 114.69769831 297.59184647 118.42499256 C297.60151443 119.52700504 297.6111824 120.62901752 297.62114334 121.76442432 C297.56389498 127.69720673 297.31632216 131.59331437 293.09013748 136.13422108 C287.93084786 140.42188507 284.086157 140.70765175 277.67056656 140.64215565 C276.7297508 140.64839561 275.78893503 140.65463557 274.8196097 140.66106462 C271.6711671 140.67700301 268.52349776 140.66438681 265.37504959 140.6517992 C263.11629154 140.65721989 260.85753703 140.66434224 258.59878922 140.67303944 C252.46668484 140.69128083 246.33484954 140.68420198 240.20274043 140.67152309 C233.78820997 140.661401 227.37370265 140.67078647 220.9591713 140.67706776 C209.49787134 140.68481219 198.03672052 140.67237747 186.57544578 140.65203041 C176.18501869 140.63415553 165.79477034 140.63726764 155.40434647 140.65570545 C143.33424049 140.67711387 131.26426951 140.68507871 119.19413763 140.6732564 C112.80620091 140.6670159 106.4183873 140.66620135 100.03045845 140.67940235 C94.02626327 140.6909436 88.0224062 140.6829663 82.0182476 140.65982533 C79.81275749 140.6545293 77.60723899 140.6560672 75.4017601 140.66487598 C72.39502881 140.67577928 69.38938636 140.66213046 66.38272476 140.64215565 C65.50646358 140.65107853 64.6302024 140.66000142 63.72738785 140.6691947 C59.70430258 140.61722184 57.57162532 140.42084005 54.04450703 138.32122517 C52.09013748 136.13422108 52.09013748 136.13422108 51.52763748 132.63422108 C52.09013748 129.13422108 52.09013748 129.13422108 53.55899048 126.94553471 C57.32255451 124.25229136 60.62847434 124.59247546 65.15098953 124.65320301 C66.07729007 124.64978531 67.0035906 124.64636761 67.95796084 124.64284635 C71.06906399 124.63624552 74.17930882 124.65828023 77.29033279 124.68011951 C79.51749527 124.68124751 81.74465923 124.68061506 83.97182083 124.67834949 C90.02523962 124.67719957 96.07834282 124.70075418 102.13168812 124.72864532 C108.45512235 124.75361251 114.77856342 124.75599729 121.10203934 124.76074696 C131.71792597 124.77177579 142.33368763 124.79677821 152.94951248 124.83246326 C163.88375147 124.86918045 174.81795879 124.89744775 185.75224686 124.91449451 C186.7735724 124.9161025 186.7735724 124.9161025 187.81553078 124.91774297 C193.73825771 124.92699438 199.66098554 124.93560557 205.58371353 124.94415379 C231.08596399 124.98179116 256.58790706 125.06147303 282.09013748 125.13422108 C282.09013748 88.83422108 282.09013748 52.53422108 282.09013748 15.13422108 C189.03013748 15.13422108 95.97013748 15.13422108 0.09013748 15.13422108 C0.09013748 51.43422108 0.09013748 87.73422108 0.09013748 125.13422108 C9.00013748 125.13422108 17.91013748 125.13422108 27.09013748 125.13422108 C28.41013748 126.12422108 29.73013748 127.11422108 31.09013748 128.13422108 C31.87169088 133.60509486 31.87169088 133.60509486 31.09013748 136.13422108 C27.17493847 140.04167534 24.49065224 140.64551741 19.03154373 140.66547108 C18.36477112 140.66929798 17.6979985 140.67312489 17.01102066 140.67706776 C15.60663206 140.67977863 14.20219225 140.67247503 12.79790115 140.65570545 C10.66173144 140.63431215 8.52893674 140.65551152 6.39287186 140.68109608 C5.0224218 140.67845199 3.65197383 140.67332531 2.28154373 140.66547108 C1.04605789 140.66095936 -0.18942795 140.65644764 -1.46235275 140.6517992 C-6.3488832 139.91817945 -9.48798469 137.75221999 -12.72236252 134.07172108 C-14.74347667 130.77411377 -15.04182315 128.04871144 -15.07722092 124.27162647 C-15.09445709 122.76823467 -15.09445709 122.76823467 -15.11204147 121.23447132 C-15.11944351 120.13573689 -15.12684555 119.03700245 -15.13447189 117.90497303 C-15.14586197 116.74695683 -15.15725204 115.58894062 -15.16898727 114.39583302 C-15.26650232 103.71895036 -15.31792311 93.04142197 -15.35467911 82.36415291 C-15.38223514 74.47703272 -15.4329702 66.59081355 -15.51515341 58.70406848 C-15.57103649 53.15234571 -15.59992816 47.60086669 -15.60915232 42.04887265 C-15.61539609 38.73602493 -15.63697097 35.42447427 -15.68053818 32.11187649 C-15.72670305 28.41067294 -15.72874785 24.7118691 -15.72040939 21.01044178 C-15.74400528 19.9218285 -15.76760117 18.83321522 -15.79191208 17.71161366 C-15.71846029 10.96651345 -14.44047953 7.42522639 -9.70558548 2.56435394 C-6.60208021 0.09268934 -3.81664956 0.00773881 0 0 Z " fill="#010202" transform="translate(114.90986251831055,203.86577892303467)"/>
<path d="M0 0 C11.88 0 23.76 0 36 0 C36.3125 14.6875 36.3125 14.6875 36.38793945 19.2956543 C36.42105225 20.50133057 36.45416504 21.70700684 36.48828125 22.94921875 C36.51446533 24.17987061 36.54064941 25.41052246 36.56762695 26.6784668 C37.02955959 30.22707973 37.88873816 32.14377878 40 35 C41.75454739 36.31371505 41.75454739 36.31371505 43.75 37.125 C44.81154297 37.59873047 44.81154297 37.59873047 45.89453125 38.08203125 C46.58933594 38.38496094 47.28414062 38.68789063 48 39 C49.7015625 39.8971875 49.7015625 39.8971875 51.4375 40.8125 C56.027424 42.34247467 59.38895133 42.52896902 64 41 C67.08902261 39.07652613 69.4670745 36.59667363 72 34 C73.12862088 32.8799086 74.25897052 31.76155764 75.390625 30.64453125 C78.61564907 27.45097083 81.81261887 24.23111044 85 21 C90.80891746 25.81867247 96.13065552 31.01256408 101.4375 36.375 C102.67790039 37.62216797 102.67790039 37.62216797 103.94335938 38.89453125 C105.96455531 40.9274104 107.98336335 42.96259963 110 45 C108.5880147 48.22331998 106.90109564 50.3144815 104.375 52.75 C103.66859375 53.4409375 102.9621875 54.131875 102.234375 54.84375 C100.74479167 56.28125 99.25520833 57.71875 97.765625 59.15625 C97.05921875 59.8471875 96.3528125 60.538125 95.625 61.25 C94.97789062 61.87390625 94.33078125 62.4978125 93.6640625 63.140625 C90.57824034 66.58863286 89.43100387 69.76300352 89.5546875 74.4453125 C90.71051935 81.07613733 93.38292924 88.89492344 98.68554688 93.16015625 C102.42020251 95.23325325 104.68901387 95.53431883 108.9296875 95.609375 C110.21875 95.64160156 111.5078125 95.67382812 112.8359375 95.70703125 C114.18228715 95.7217723 115.5286415 95.73609 116.875 95.75 C118.24482903 95.77818712 119.61462335 95.80811837 120.984375 95.83984375 C124.32297602 95.91037757 127.66088515 95.96315985 131 96 C131 99.3 131 102.6 131 106 C111.2 106 91.4 106 71 106 C70.01 102.04 69.02 98.08 68 94 C62.58888988 79.7778787 53.34066835 70.78286182 39.6640625 64.45703125 C26.506 59.36220662 10.1865958 58.42105562 -3 64 C-16.74684145 70.09235019 -25.85346802 79.40670813 -32 93 C-33.03489991 96.24843583 -33.86081087 99.42803862 -34.52734375 102.76953125 C-35 105 -35 105 -36 106 C-37.84118029 106.09381302 -39.68597641 106.11743954 -41.52954102 106.11352539 C-42.71068985 106.11344986 -43.89183868 106.11337433 -45.10877991 106.11329651 C-46.3941716 106.10813522 -47.67956329 106.10297394 -49.00390625 106.09765625 C-50.9661338 106.09553383 -50.9661338 106.09553383 -52.96800232 106.09336853 C-56.45162859 106.0895441 -59.93521339 106.07971446 -63.41882324 106.06866455 C-66.97126708 106.05844882 -70.52371759 106.05387056 -74.07617188 106.04882812 C-81.05079832 106.03809212 -88.02539717 106.0210166 -95 106 C-95 102.7 -95 99.4 -95 96 C-94.1529248 95.9906543 -93.30584961 95.98130859 -92.43310547 95.97167969 C-89.26805648 95.92747388 -86.10395188 95.86577473 -82.93945312 95.79248047 C-81.57401836 95.76438377 -80.20842436 95.74311323 -78.84277344 95.72900391 C-76.87145962 95.70742018 -74.90050369 95.6586454 -72.9296875 95.609375 C-71.15440674 95.5779541 -71.15440674 95.5779541 -69.34326172 95.54589844 C-65.32492825 94.88977213 -63.14635695 93.54940723 -60 91 C-58.60742567 88.48706237 -57.58879375 86.34451611 -56.625 83.6875 C-56.23634766 82.7294043 -56.23634766 82.7294043 -55.83984375 81.75195312 C-54.157916 77.36025288 -53.43001936 73.67276583 -54 69 C-56.90502374 63.29697971 -61.71654566 59.05432907 -66.25 54.625 C-67.36761719 53.52091797 -67.36761719 53.52091797 -68.5078125 52.39453125 C-70.33405762 50.59169953 -72.16482205 48.79373022 -74 47 C-72.4152642 43.13671373 -69.94043113 40.71123077 -66.9921875 37.796875 C-66.50670441 37.3142218 -66.02122131 36.8315686 -65.52102661 36.33428955 C-63.97700134 34.80141438 -62.42615176 33.27565996 -60.875 31.75 C-59.82375991 30.70879639 -58.77297343 29.66713459 -57.72265625 28.625 C-55.15366996 26.07800536 -52.57851839 23.53734823 -50 21 C-44.5366617 25.53202899 -39.55128986 30.38707534 -34.63085938 35.49609375 C-30.56880832 39.64025523 -28.16385197 41.96509916 -22.125 42.0625 C-17.58167206 41.44054192 -13.65021108 39.68312915 -9.5625 37.6875 C-8.94713379 37.39174072 -8.33176758 37.09598145 -7.69775391 36.79125977 C-4.15169252 34.96499379 -2.3601292 33.74203131 -1 30 C-0.63305379 26.70779448 -0.63305379 26.70779448 -0.5859375 23.046875 C-0.55032715 21.83870117 -0.5147168 20.63052734 -0.47802734 19.38574219 C-0.42702881 17.0910498 -0.42702881 17.0910498 -0.375 14.75 C-0.189375 7.44875 -0.189375 7.44875 0 0 Z " fill="#B4C1CC" transform="translate(311,18)"/>
<path d="M0 0 C37.91236013 -0.06861602 75.82471093 -0.12150328 113.73712056 -0.15319599 C118.20959415 -0.15694826 122.68206761 -0.16083121 127.15454102 -0.16479492 C128.04495729 -0.16558185 128.93537356 -0.16636878 129.85277214 -0.16717956 C144.28405147 -0.18024551 158.71529508 -0.20390587 173.1465532 -0.23145839 C187.94633786 -0.25947955 202.74610377 -0.27616928 217.54591388 -0.28226548 C226.68355059 -0.28638877 235.82108633 -0.2994275 244.95869198 -0.3237494 C251.21850384 -0.33956603 257.47826324 -0.34440964 263.73809365 -0.34050413 C267.35363538 -0.3385762 270.96900025 -0.34160127 274.5845108 -0.35761642 C278.49840827 -0.37482736 282.41207272 -0.36899052 286.32600403 -0.36076355 C288.05215013 -0.37387134 288.05215013 -0.37387134 289.81316787 -0.38724393 C291.37920541 -0.37828421 291.37920541 -0.37828421 292.97688007 -0.36914349 C293.88099418 -0.37028265 294.78510829 -0.37142181 295.71661979 -0.37259549 C298 0 298 0 299.78660125 1.29260272 C301.91151954 4.28261709 301.55615101 7.5395048 301 11 C298.1583518 19.31105709 292.65552727 24.10264066 285 28 C281.97701837 28.95336722 279.24992333 29.12444687 276.0880928 29.12304783 C275.09432766 29.12503888 274.10056252 29.12702993 273.07668328 29.12908131 C271.44245278 29.12471205 271.44245278 29.12471205 269.77520752 29.12025452 C268.6161445 29.12110894 267.45708148 29.12196337 266.26289535 29.12284368 C263.0452724 29.12420722 259.82768962 29.12107729 256.61007142 29.11606562 C253.14044333 29.11175089 249.67081715 29.11320827 246.20118713 29.1139679 C240.18966477 29.11449248 234.17815325 29.1113525 228.16663361 29.10573006 C219.47496454 29.09760621 210.78330073 29.09499893 202.09162828 29.09374207 C187.99028177 29.09155294 173.88894103 29.08489662 159.78759766 29.07543945 C146.08870472 29.06626174 132.38981336 29.05918266 118.69091797 29.05493164 C117.84664911 29.05466892 117.00238026 29.05440619 116.1325275 29.05413551 C111.89711788 29.05283048 107.66170825 29.05156677 103.42629862 29.05032361 C68.28419496 29.03995533 33.14209801 29.0223408 -2 29 C-1.84660156 28.08089844 -1.69320312 27.16179687 -1.53515625 26.21484375 C-0.793183 21.02103099 -0.64535417 15.79974364 -0.4375 10.5625 C-0.39431641 9.54478516 -0.35113281 8.52707031 -0.30664062 7.47851562 C-0.20131418 4.98578972 -0.09918328 2.49297662 0 0 Z " fill="#EFF8FC" transform="translate(196,424)"/>
<path d="M0 0 C0.96921387 0.00016113 1.93842773 0.00032227 2.93701172 0.00048828 C12.08009913 0.14600567 19.11114617 2.21180749 27.25 6.375 C25.92853252 10.07225392 24.31692831 12.87363747 21.90625 15.96484375 C21.24149658 16.82513184 20.57674316 17.68541992 19.8918457 18.57177734 C19.18503662 19.47621582 18.47822754 20.3806543 17.75 21.3125 C16.2939603 23.19797452 14.83953392 25.08469601 13.38671875 26.97265625 C12.67821777 27.89320801 11.9697168 28.81375977 11.23974609 29.76220703 C7.09982965 35.19845068 3.17783681 40.78454835 -0.75 46.375 C-1.42204468 47.26082764 -1.42204468 47.26082764 -2.10766602 48.16455078 C-2.56197998 48.77024902 -3.01629395 49.37594727 -3.484375 50 C-3.90299805 50.5465625 -4.32162109 51.093125 -4.75292969 51.65625 C-6.69822528 55.00955092 -6.30094824 57.57957877 -5.75 61.375 C-3.03524409 65.36170448 0.14474045 68.01780257 4 70.875 C9.20464823 74.7797965 14.28331841 78.80930989 19.3125 82.9375 C25.82676727 88.27170321 32.45905974 93.39754947 39.25 98.375 C35.71807924 106.48275898 26.90699483 109.70516164 19.30078125 113.17578125 C7.73543654 117.72195388 -9.82975013 117.36364973 -21.19921875 112.625 C-22.04097656 112.2125 -22.88273437 111.8 -23.75 111.375 C-24.66394531 110.9625 -25.57789063 110.55 -26.51953125 110.125 C-38.15575522 104.39639743 -46.6260607 95.71934657 -52.75 84.375 C-53.15992187 83.62476563 -53.56984375 82.87453125 -53.9921875 82.1015625 C-60.15970421 69.63147397 -60.41799805 53.62869963 -56.75 40.375 C-49.86315656 23.1865071 -38.61262106 10.84775358 -21.515625 3.34765625 C-14.21367502 0.77959757 -7.70370417 -0.01195609 0 0 Z " fill="#FC989F" transform="translate(123.75,377.625)"/>
<path d="M0 0 C5.61 0 11.22 0 17 0 C17 88.77 17 177.54 17 269 C17.99 269.33 18.98 269.66 20 270 C13.4 270 6.8 270 0 270 C0 180.9 0 91.8 0 0 Z " fill="#02C6DC" transform="translate(35,139)"/>
<path d="M0 0 C0.9590625 0.03673828 0.9590625 0.03673828 1.9375 0.07421875 C2.576875 0.07035156 3.21625 0.06648437 3.875 0.0625 C7.19891296 1.18935686 8.73348575 3.06474831 10.9375 5.76171875 C11.98813529 8.44382836 12.796086 10.87221657 13.5 13.63671875 C13.80296997 14.74478882 13.80296997 14.74478882 14.11206055 15.87524414 C14.52813813 17.40554125 14.93671462 18.93789694 15.33789062 20.47216797 C15.92137134 22.700133 16.52720237 24.92073899 17.140625 27.140625 C19.9375 37.34495192 19.9375 37.34495192 19.9375 39.76171875 C20.5975 39.76171875 21.2575 39.76171875 21.9375 39.76171875 C22.03417969 38.86582031 22.13085938 37.96992188 22.23046875 37.046875 C23.05436071 31.31137491 24.70160553 25.77278963 26.25 20.19921875 C26.54583984 19.08869141 26.84167969 17.97816406 27.14648438 16.83398438 C28.83750544 10.73096883 30.35640484 5.34281391 34.9375 0.76171875 C41.94251952 0.0612168 41.94251952 0.0612168 45.55078125 2.6015625 C48.90659157 7.04485309 49.46831812 11.2810974 50.375 16.69921875 C50.78112752 18.93775892 51.18874801 21.17602861 51.59765625 23.4140625 C51.80922363 24.59983887 52.02079102 25.78561523 52.23876953 27.00732422 C52.97103594 30.94191294 53.7829839 34.85260843 54.62109375 38.765625 C55.04592356 40.77511505 55.46988684 42.7847867 55.89382935 44.79446411 C56.30388906 46.72125755 56.72494913 48.64569944 57.14624023 50.57006836 C58.5519178 57.35208621 59.32757793 62.93898934 57.9375 69.76171875 C56.3125 71.88671875 56.3125 71.88671875 53.9375 72.76171875 C47.82502949 72.65448243 47.82502949 72.65448243 45.32299805 70.13769531 C43.53714507 67.07515414 42.99592115 64.29032747 42.33203125 60.80859375 C42.13863411 59.81826141 42.13863411 59.81826141 41.94132996 58.80792236 C41.53419665 56.71097243 41.14191589 54.6115603 40.75 52.51171875 C40.47558695 51.08444712 40.2002067 49.65736108 39.92382812 48.23046875 C39.25050651 44.74296434 38.59047026 41.25309781 37.9375 37.76171875 C37.56782104 39.1389209 37.56782104 39.1389209 37.19067383 40.54394531 C36.26380619 43.96243217 35.32091245 47.37564235 34.36694336 50.78662109 C33.95812678 52.26107866 33.5556963 53.7373229 33.15991211 55.21533203 C32.58834973 57.34524454 31.99378115 59.46757801 31.39453125 61.58984375 C31.22347366 62.24728577 31.05241608 62.90472778 30.87617493 63.58209229 C29.57069494 68.08599641 27.92494156 70.30476056 23.9375 72.76171875 C20.375 73.26171875 20.375 73.26171875 16.9375 72.76171875 C13.39963886 69.93010974 12.19872908 67.38853863 11 63.07421875 C10.67644531 61.94242187 10.35289062 60.810625 10.01953125 59.64453125 C9.8488916 59.02868164 9.67825195 58.41283203 9.50244141 57.77832031 C8.65914489 54.76810889 7.76523787 51.77323641 6.87670898 48.77612305 C5.88869569 45.44039698 4.91330036 42.10103555 3.9375 38.76171875 C1.85575261 47.33893358 1.85575261 47.33893358 0.24609375 56.01171875 C0.13112549 56.71876953 0.01615723 57.42582031 -0.10229492 58.15429688 C-0.32121141 59.53061669 -0.52394602 60.90963516 -0.70825195 62.29101562 C-1.51057665 67.22801596 -3.20565132 69.63613801 -7.0625 72.76171875 C-9.5625 73.38671875 -9.5625 73.38671875 -12.0625 72.76171875 C-14.9375 71.01171875 -14.9375 71.01171875 -17.0625 67.76171875 C-17.41826925 58.37250411 -14.92391267 48.7140714 -13.1875 39.51171875 C-12.79813237 37.41283717 -12.41037101 35.31366274 -12.02264404 33.21447754 C-11.76342445 31.82247606 -11.50078595 30.43110677 -11.23468018 29.04040527 C-10.55573017 25.48761209 -9.92409963 21.93652646 -9.37402344 18.36132812 C-9.25727264 17.64479065 -9.14052185 16.92825317 -9.02023315 16.19000244 C-8.69997041 14.21492924 -8.39794721 12.23692309 -8.09716797 10.25878906 C-6.78746296 5.83212212 -4.59011251 1.69521201 0 0 Z " fill="#030402" transform="translate(304.0625,237.23828125)"/>
<path d="M0 0 C1.13824219 -0.03222656 2.27648437 -0.06445312 3.44921875 -0.09765625 C11.50065085 -0.10690014 17.0916043 1.48127336 23.375 6.625 C28.76731546 12.51030033 29.73658747 17.79645243 29.65234375 25.546875 C29.12404798 31.410214 26.85000923 35.58368057 22.4375 39.4375 C19.80759801 41.31600142 17.1545663 42.9835979 14.375 44.625 C15.49648438 45.83736328 15.49648438 45.83736328 16.640625 47.07421875 C17.63550237 48.15356684 18.63028923 49.23299837 19.625 50.3125 C20.36169922 51.10817383 20.36169922 51.10817383 21.11328125 51.91992188 C29.25454561 60.76676248 29.25454561 60.76676248 29.875 65.1875 C29.375 68.625 29.375 68.625 27.8125 71.0625 C24.36599957 73.27179515 22.422545 73.17196554 18.375 72.625 C15.7869654 70.77864685 13.84956859 68.48781568 11.8125 66.0625 C11.00522461 65.14887695 11.00522461 65.14887695 10.18164062 64.21679688 C8.55788361 62.37028619 6.96428498 60.50121902 5.375 58.625 C4.24145225 57.30289921 3.10736299 55.98126246 1.97265625 54.66015625 C1.11542969 53.65855469 0.25820312 52.65695312 -0.625 51.625 C-0.65078125 52.72199219 -0.6765625 53.81898438 -0.703125 54.94921875 C-0.7594269 56.40368448 -0.81677377 57.85811003 -0.875 59.3125 C-0.89626953 60.3943457 -0.89626953 60.3943457 -0.91796875 61.49804688 C-1.14026989 66.36644193 -1.89718711 69.15867038 -5.625 72.625 C-9.125 73.25 -9.125 73.25 -12.625 72.625 C-15.27563887 70.02321614 -16.5017239 68.34486978 -17.13293457 64.65892029 C-17.13611694 63.56289993 -17.13929932 62.46687958 -17.14257812 61.33764648 C-17.15518677 60.08962753 -17.16779541 58.84160858 -17.18078613 57.55577087 C-17.17362684 56.20253939 -17.16542298 54.84931308 -17.15625 53.49609375 C-17.15894654 52.10034414 -17.16283031 50.70459635 -17.16784668 49.30885315 C-17.17373233 46.38939457 -17.16520849 43.47042676 -17.14648438 40.55102539 C-17.12367309 36.81262207 -17.13683595 33.0753661 -17.16077423 29.33700466 C-17.17524003 26.45700967 -17.17062324 23.57728603 -17.16026306 20.69728279 C-17.15759898 19.31899949 -17.1608544 17.94069138 -17.17018127 16.56243706 C-17.18035993 14.63594928 -17.16208984 12.70937484 -17.14257812 10.78295898 C-17.13939575 9.68773422 -17.13621338 8.59250946 -17.13293457 7.46409607 C-15.53760884 -1.4529639 -7.15091552 -0.03968322 0 0 Z " fill="#020301" transform="translate(242.625,237.375)"/>
<path d="M0 0 C93.06 0 186.12 0 282 0 C282 0.33 282 0.66 282 1 C194.55 1 107.1 1 17 1 C17 36.64 17 72.28 17 109 C19.64 109 22.28 109 25 109 C25 109.33 25 109.66 25 110 C16.75 110 8.5 110 0 110 C0 73.7 0 37.4 0 0 Z " fill="#9CE49A" transform="translate(115,219)"/>
<path d="M0 0 C2.90844522 1.77867068 4.97206132 3.41479209 6.9609375 6.19921875 C7.637692 9.88377102 7.45885521 11.44238383 5.3984375 14.57421875 C2.02043372 16.82622127 -0.04218209 16.68160087 -4.0390625 16.19921875 C-4.9053125 15.70421875 -5.7715625 15.20921875 -6.6640625 14.69921875 C-12.3877411 12.15536159 -19.25040405 12.02067297 -25.26171875 13.890625 C-30.29224965 16.53303574 -33.64331576 20.67358179 -36.3515625 25.57421875 C-38.11589448 32.31075904 -37.18436717 38.09808559 -34.0390625 44.19921875 C-31.02908761 49.08353697 -27.55457177 51.57169142 -22.0390625 53.19921875 C-15.96740152 53.89312286 -11.27815077 53.61071809 -6.0390625 50.19921875 C-5.2346875 49.45671875 -4.4303125 48.71421875 -3.6015625 47.94921875 C-1.0390625 46.19921875 -1.0390625 46.19921875 2.5859375 46.26171875 C7.44377503 47.61111806 7.44377503 47.61111806 8.9609375 50.19921875 C9.5859375 52.88671875 9.5859375 52.88671875 8.9609375 56.19921875 C4.49672886 63.22020142 -1.33590064 66.63149813 -9.0390625 69.19921875 C-21.75135471 70.04888352 -31.06133323 68.2799026 -41.0390625 60.19921875 C-47.71873897 53.83573998 -52.56011159 46.43343226 -53.27734375 37.09765625 C-53.53897215 24.67719198 -50.35966567 15.8537002 -41.9140625 6.63671875 C-31.29520817 -3.72930571 -13.37552944 -6.50516363 0 0 Z " fill="#030402" transform="translate(202.0390625,240.80078125)"/>
<path d="M0 0 C10.02783296 7.36738748 15.89349581 18.82768535 18 31 C18.97913036 43.29296919 18.30891079 54.07410133 13.375 65.5 C12.70597656 67.06234375 12.70597656 67.06234375 12.0234375 68.65625 C11.68570313 69.4296875 11.34796875 70.203125 11 71 C5.74735188 69.43342074 2.15433191 66.04556857 -1.9375 62.5625 C-3.44943797 61.29558159 -4.96247616 60.02997513 -6.4765625 58.765625 C-7.23227539 58.13333984 -7.98798828 57.50105469 -8.76660156 56.84960938 C-12.07071559 54.11327708 -15.43271346 51.45444902 -18.8125 48.8125 C-19.38025146 48.367854 -19.94800293 47.92320801 -20.53295898 47.46508789 C-23.33282192 45.27940486 -26.14933753 43.11901544 -29 41 C-27.56538776 36.80299609 -25.50637819 33.83416336 -22.75 30.375 C-18.23836496 24.64538533 -13.87699182 18.8169206 -9.5625 12.9375 C-8.95954102 12.11620605 -8.35658203 11.29491211 -7.73535156 10.44873047 C-6.64526179 8.9636138 -5.55574296 7.47807772 -4.46704102 5.99194336 C-2.98955305 3.98581517 -1.49778369 1.99100735 0 0 Z " fill="#FCDE75" transform="translate(163,394)"/>
<path d="M0 0 C-0.61746094 0.40089844 -1.23492187 0.80179687 -1.87109375 1.21484375 C-16.84942625 11.26879296 -27.71990263 24.78295814 -31.625 42.70166016 C-34.52722033 60.48909645 -31.26603749 77.61951008 -22 93 C-20.19506712 95.32363204 -18.35266282 97.45664858 -16.28515625 99.546875 C-15 101 -15 101 -15 103 C-14.17242187 103.36738281 -14.17242187 103.36738281 -13.328125 103.7421875 C-10.52360509 105.25738114 -8.21896877 107.11084126 -5.75 109.125 C-4.85796875 109.84945312 -3.9659375 110.57390625 -3.046875 111.3203125 C-2.37140625 111.87460937 -1.6959375 112.42890625 -1 113 C-7.28757524 115.27422934 -14.09220683 111.28214507 -19.84375 108.74609375 C-31.42201819 102.90705333 -39.86764171 94.3599424 -46 83 C-46.40992187 82.24976563 -46.81984375 81.49953125 -47.2421875 80.7265625 C-53.40970421 68.25647397 -53.66799805 52.25369963 -50 39 C-43.51990769 22.82669482 -33.17895156 10.61825788 -17.25 3.0625 C-5.73522783 -1.73947569 -5.73522783 -1.73947569 0 0 Z " fill="#F97E85" transform="translate(117,379)"/>
<path d="M0 0 C0.72822464 0.00424484 1.45644928 0.00848969 2.20674133 0.01286316 C4.53013252 0.02964142 6.85265275 0.0672902 9.17578125 0.10546875 C10.75194059 0.12051678 12.32811354 0.13420498 13.90429688 0.14648438 C17.76596002 0.1795419 21.62697303 0.23131681 25.48828125 0.29296875 C25.48304443 0.88722656 25.47780762 1.48148437 25.47241211 2.09375 C25.45142534 4.82681185 25.4385528 7.55985665 25.42578125 10.29296875 C25.41321289 11.69482422 25.41321289 11.69482422 25.40039062 13.125 C25.38119233 18.61571276 25.67486195 23.86163356 26.48828125 29.29296875 C4.75510465 30.13697561 4.75510465 30.13697561 -2.75 23.234375 C-7.73772715 17.98087199 -10.20621035 13.89796793 -10.82421875 6.60546875 C-10.51171875 3.29296875 -10.51171875 3.29296875 -9.46166992 1.60424805 C-6.48351691 -0.39846384 -3.46176088 -0.07588496 0 0 Z " fill="#DAF0F7" transform="translate(25.51171875,423.70703125)"/>
<path d="M0 0 C4.83113726 4.02915342 9.01206498 8.13666461 13 13 C12.46890625 14.03898437 11.9378125 15.07796875 11.390625 16.1484375 C5.18999676 28.35028857 0.57734706 39.4494026 -2 53 C-2.33 53 -2.66 53 -3 53 C-3.10997314 52.46125244 -3.21994629 51.92250488 -3.33325195 51.36743164 C-5.29715528 43.84439528 -9.63062366 39.65915874 -15.1875 34.4375 C-16.03248047 33.61958984 -16.87746094 32.80167969 -17.74804688 31.95898438 C-19.8189911 29.95824165 -21.90261256 27.97294182 -24 26 C-22.4152642 22.13671373 -19.94043113 19.71123077 -16.9921875 16.796875 C-16.50670441 16.3142218 -16.02122131 15.8315686 -15.52102661 15.33428955 C-13.97700134 13.80141438 -12.42615176 12.27565996 -10.875 10.75 C-9.82375991 9.70879639 -8.77297343 8.66713459 -7.72265625 7.625 C-5.15366996 5.07800536 -2.57851839 2.53734823 0 0 Z " fill="#9DA9B7" transform="translate(261,39)"/>
<path d="M0 0 C5.94 0 11.88 0 18 0 C17.98839844 1.43472656 17.97679688 2.86945313 17.96484375 4.34765625 C17.95545978 6.25260286 17.94636023 8.15755088 17.9375 10.0625 C17.92912109 11.00544922 17.92074219 11.94839844 17.91210938 12.91992188 C17.89418897 18.0630768 18.10740389 22.93258427 19 28 C10.73662265 29.02883947 10.73662265 29.02883947 7.140625 26.8984375 C2.32023791 21.85442421 0.13256344 14.75632671 -1 8 C-0.67 5.36 -0.34 2.72 0 0 Z " fill="#F1FAFE" transform="translate(33,424)"/>
<path d="M0 0 C1.02451301 3.23392606 0.95041862 5.64525388 0.44140625 8.984375 C0.2549353 10.24846191 0.2549353 10.24846191 0.06469727 11.53808594 C-0.10102783 12.59801758 -0.26675293 13.65794922 -0.4375 14.75 C-0.953125 18.1325 -1.46875 21.515 -2 25 C-14.21 25 -26.42 25 -39 25 C-39 21.7 -39 18.4 -39 15 C-38.1529248 14.9906543 -37.30584961 14.98130859 -36.43310547 14.97167969 C-33.26805648 14.92747388 -30.10395188 14.86577473 -26.93945312 14.79248047 C-25.57401836 14.76438377 -24.20842436 14.74311323 -22.84277344 14.72900391 C-20.87145962 14.70742018 -18.90050369 14.6586454 -16.9296875 14.609375 C-15.15440674 14.5779541 -15.15440674 14.5779541 -13.34326172 14.54589844 C-9.34498019 13.89304628 -7.14548101 12.51222473 -4 10 C-2.46688914 7.47969117 -2.46688914 7.47969117 -1.625 4.75 C-1.14933594 3.41195312 -1.14933594 3.41195312 -0.6640625 2.046875 C-0.33535156 1.03367187 -0.33535156 1.03367187 0 0 Z " fill="#9EAAB8" transform="translate(255,99)"/>
<path d="M0 0 C11.36242083 -0.4940183 11.36242083 -0.4940183 14.359375 1.828125 C16 4 16 4 16.5 7 C15.89445555 10.63326668 14.8441085 11.74144325 12 14 C9.47524538 15.26237731 7.68799534 15.09856404 4.875 15.0625 C3.26625 15.041875 1.6575 15.02125 0 15 C0 10.05 0 5.1 0 0 Z " fill="#B2E994" transform="translate(241,253)"/>
</svg>
