<?xml version="1.0" encoding="iso-8859-1"?>
<!-- Generator: Adobe Illustrator 19.0.0, SVG Export Plug-In . SVG Version: 6.00 Build 0)  -->
<svg version="1.1" id="Layer_1" xmlns="http://www.w3.org/2000/svg" xmlns:xlink="http://www.w3.org/1999/xlink" x="0px" y="0px"
	 viewBox="0 0 512 512" style="enable-background:new 0 0 512 512;" xml:space="preserve">
<path style="fill:#81A4E3;" d="M162.133,341.333h128V179.2H25.6v162.133h119.467H162.133z M116.967,210.833l-51.2,51.2
	c-1.667,1.667-3.85,2.5-6.033,2.5c-2.183,0-4.367-0.833-6.033-2.5c-3.333-3.333-3.333-8.733,0-12.067l51.2-51.2
	c3.333-3.333,8.733-3.333,12.067,0C120.3,202.1,120.3,207.5,116.967,210.833z"/>
<circle style="fill:#314E55;" cx="418.133" cy="256" r="8.533"/>
<path style="fill:#D8D8D8;" d="M341.333,102.4v307.2H460.8V102.4H341.333z M418.133,281.6c-14.117,0-25.6-11.483-25.6-25.6
	c0-14.117,11.483-25.6,25.6-25.6s25.6,11.483,25.6,25.6C443.733,270.117,432.25,281.6,418.133,281.6z M443.733,145.067H358.4V128
	h85.333V145.067z"/>
<g>
	<path style="fill:#314E55;" d="M17.067,358.4h128V384h-34.133v17.067h85.333V384h-34.133v-25.6h136.533
		c4.717,0,8.533-3.817,8.533-8.533v-179.2c0-4.717-3.817-8.533-8.533-8.533h-281.6c-4.717,0-8.533,3.817-8.533,8.533v179.2
		C8.533,354.583,12.35,358.4,17.067,358.4z M25.6,179.2h264.533v162.133h-128h-17.067H25.6V179.2z"/>
	<rect x="358.4" y="128" style="fill:#314E55;" width="85.333" height="17.067"/>
	<path style="fill:#314E55;" d="M418.133,230.4c-14.117,0-25.6,11.483-25.6,25.6c0,14.117,11.483,25.6,25.6,25.6
		s25.6-11.483,25.6-25.6C443.733,241.883,432.25,230.4,418.133,230.4z M418.133,264.533c-4.708,0-8.533-3.825-8.533-8.533
		c0-4.708,3.825-8.533,8.533-8.533c4.708,0,8.533,3.825,8.533,8.533C426.667,260.708,422.842,264.533,418.133,264.533z"/>
	<path style="fill:#314E55;" d="M104.9,198.767l-51.2,51.2c-3.333,3.333-3.333,8.733,0,12.067c1.667,1.667,3.85,2.5,6.033,2.5
		c2.183,0,4.367-0.833,6.033-2.5l51.2-51.2c3.333-3.333,3.333-8.733,0-12.067C113.633,195.434,108.233,195.433,104.9,198.767z"/>
	<path style="fill:#314E55;" d="M477.867,409.6V93.867c0-4.717-3.817-8.533-8.533-8.533H332.8c-4.717,0-8.533,3.817-8.533,8.533
		V409.6H0v17.067h332.8h136.533H512V409.6H477.867z M341.333,409.6V102.4H460.8v307.2H341.333z"/>
</g>
<g>
</g>
<g>
</g>
<g>
</g>
<g>
</g>
<g>
</g>
<g>
</g>
<g>
</g>
<g>
</g>
<g>
</g>
<g>
</g>
<g>
</g>
<g>
</g>
<g>
</g>
<g>
</g>
<g>
</g>
</svg>
