<?xml version="1.0" encoding="iso-8859-1"?>
<!-- Generator: Adobe Illustrator 19.0.0, SVG Export Plug-In . SVG Version: 6.00 Build 0)  -->
<svg version="1.1" id="Capa_1" xmlns="http://www.w3.org/2000/svg" xmlns:xlink="http://www.w3.org/1999/xlink" x="0px" y="0px"
	 viewBox="0 0 512.093 512.093" style="enable-background:new 0 0 512.093 512.093;" xml:space="preserve">
<g transform="translate(-1 -1)">
	<path style="fill:#285680;" d="M512.353,237.762c3.852,50.523-7.395,101.051-32.313,145.17c-1.489,2.604-2.278,5.55-2.29,8.549
		v121.563l-65.872-39.493c-5.833-3.425-13.097-3.271-18.779,0.398c-97.387,61.088-223.551,49.777-308.518-27.661
		S-23.323,244.276,28.492,141.655S194.168-16.471,306.926,5.925S503.691,123.128,512.353,237.762z"/>
	<circle style="fill:#4482C3;" cx="257.061" cy="257.044" r="203.034"/>
	<g>
		<circle style="fill:#E6E7E8;" cx="257.061" cy="142.286" r="35.31"/>
		<path style="fill:#E6E7E8;" d="M239.405,257.044v70.621c0,4.875-3.952,8.828-8.828,8.828h-17.655
			c-4.875,0-8.828,3.952-8.828,8.828v35.31c0,4.875,3.952,8.828,8.828,8.828h105.931c4.875,0,8.828-3.952,8.828-8.828v-35.31
			c0-4.875-3.952-8.828-8.828-8.828h-17.655c-4.875,0-8.828-3.952-8.828-8.828V221.734c0-4.875-3.952-8.828-8.828-8.828H221.75
			c-4.875,0-8.828,3.952-8.828,8.828v17.655c0,4.875,3.952,8.828,8.828,8.828h8.828
			C235.453,248.217,239.405,252.169,239.405,257.044z"/>
	</g>
</g>
<g>
</g>
<g>
</g>
<g>
</g>
<g>
</g>
<g>
</g>
<g>
</g>
<g>
</g>
<g>
</g>
<g>
</g>
<g>
</g>
<g>
</g>
<g>
</g>
<g>
</g>
<g>
</g>
<g>
</g>
</svg>
