<?xml version="1.0" encoding="iso-8859-1"?>
<!-- Generator: Adobe Illustrator 19.0.0, SVG Export Plug-In . SVG Version: 6.00 Build 0)  -->
<svg version="1.1" id="Capa_1" xmlns="http://www.w3.org/2000/svg" xmlns:xlink="http://www.w3.org/1999/xlink" x="0px" y="0px"
	 viewBox="0 0 511.765 511.765" style="enable-background:new 0 0 511.765 511.765;" xml:space="preserve">
<g>
	<path style="fill:#98A9D5;" d="M376.306,143.594V467.33c0.649,7.858-2.334,15.582-8.096,20.964l-3.666,2.145l-0.138,0.069
		l-30.79,17.712l-0.415,0.277l-2.906,1.73l-0.276,0.138c-7.78,2.677-16.37,1.468-23.109-3.252L170.33,428.238
		c-20.549-13.3-33.507-35.617-34.871-60.056V44.446c-0.649-7.858,2.333-15.581,8.095-20.964l3.667-2.145l0.208-0.138h0.069
		l30.65-17.643l0.208-0.208l3.667-2.076h0.069c7.699-2.514,16.132-1.258,22.763,3.39l136.579,78.876
		C361.96,96.859,374.912,119.163,376.306,143.594z"/>
	<path style="fill:#687492;" d="M376.306,143.594V467.33c0.649,7.858-2.334,15.582-8.096,20.964l-3.666,2.145l-0.138,0.069
		l-30.79,17.712c5.762-5.383,8.745-13.106,8.096-20.964V163.59c-1.365-24.44-14.29-46.768-34.802-60.125L170.33,24.658
		c-0.138-0.069-0.208-0.138-0.346-0.138V24.45c-6.597-4.483-14.89-5.682-22.486-3.252l30.65-17.643l0.208-0.208l3.667-2.076h0.069
		c7.699-2.514,16.132-1.258,22.763,3.39l136.579,78.876C361.961,96.859,374.912,119.164,376.306,143.594z"/>
	<polygon style="fill:#BDDCF3;" points="321.04,454.904 156.148,359.7 156.148,69.243 321.04,164.441 	"/>
	<g>
		<path style="fill:#FFFFFF;" d="M173.814,130.185c-1.57-0.001-2.942-1.058-3.343-2.575s0.27-3.115,1.634-3.891l23.554-13.419
			c1.661-0.944,3.772-0.363,4.716,1.297c0.944,1.661,0.363,3.772-1.297,4.716l-23.554,13.419
			C175.002,130.028,174.413,130.184,173.814,130.185z"/>
		<path style="fill:#FFFFFF;" d="M173.814,163.962c-1.57-0.001-2.942-1.058-3.343-2.575s0.27-3.115,1.634-3.891l11.777-6.709
			c1.074-0.611,2.393-0.602,3.459,0.023c1.066,0.625,1.718,1.771,1.709,3.007s-0.675,2.373-1.749,2.984l-11.777,6.709
			C175.002,163.805,174.413,163.961,173.814,163.962z"/>
		<path style="fill:#FFFFFF;" d="M209.152,143.834c-1.57,0.001-2.944-1.055-3.347-2.573c-0.403-1.518,0.267-3.116,1.631-3.894
			l17.662-10.068c1.075-0.618,2.398-0.614,3.469,0.009c1.071,0.624,1.727,1.773,1.719,3.013c-0.007,1.24-0.677,2.381-1.756,2.992
			l-17.662,10.068C210.344,143.677,209.753,143.833,209.152,143.834z"/>
		<path style="fill:#FFFFFF;" d="M173.814,197.733c-1.57-0.001-2.942-1.058-3.343-2.575c-0.401-1.517,0.27-3.115,1.634-3.891
			l53-30.189c1.074-0.611,2.393-0.602,3.459,0.023s1.718,1.771,1.709,3.007s-0.675,2.373-1.749,2.984l-53,30.189
			C175.002,197.576,174.413,197.731,173.814,197.733z"/>
		<path style="fill:#FFFFFF;" d="M250.375,154.125c-1.57,0.001-2.944-1.055-3.347-2.573c-0.403-1.518,0.267-3.116,1.631-3.894
			l5.885-3.358c1.075-0.618,2.398-0.614,3.469,0.009c1.071,0.624,1.727,1.773,1.72,3.013c-0.008,1.24-0.677,2.381-1.756,2.992
			l-5.885,3.358C251.568,153.968,250.976,154.124,250.375,154.125z"/>
	</g>
	<g>
		<path style="fill:#687492;" d="M256.794,105.55c-0.608,0.001-1.205-0.16-1.73-0.466l-36.399-21.02
			c-1.07-0.618-1.729-1.759-1.729-2.995s0.66-2.377,1.73-2.994c1.07-0.617,2.389-0.616,3.458,0.002l36.399,21.02
			c1.354,0.783,2.014,2.378,1.609,3.889C259.727,104.498,258.358,105.549,256.794,105.55L256.794,105.55z"/>
		<path style="fill:#687492;" d="M311.402,137.071c-0.607,0-1.203-0.159-1.73-0.459l-6.068-3.5
			c-1.072-0.618-1.732-1.761-1.733-2.998c-0.001-1.237,0.659-2.381,1.73-3c1.071-0.619,2.391-0.62,3.463-0.002l6.068,3.5
			c1.359,0.782,2.022,2.38,1.616,3.894C314.342,136.02,312.969,137.072,311.402,137.071z"/>
		<path style="fill:#687492;" d="M287.132,123.064c-0.608,0.001-1.205-0.16-1.73-0.466l-6.068-3.507
			c-1.652-0.956-2.217-3.07-1.262-4.722c0.955-1.653,3.069-2.219,4.722-1.264l6.068,3.507c1.354,0.783,2.014,2.378,1.609,3.889
			S288.696,123.063,287.132,123.064z"/>
	</g>
	<path style="fill:#EBECED;" d="M255.034,456.285l-32.879-18.982c-4.825-3.47-7.728-9.016-7.829-14.958
		c0-5.741,3.523-8.404,7.829-5.918l32.879,18.982c4.825,3.47,7.728,9.016,7.829,14.958
		C262.863,456.108,259.34,458.771,255.034,456.285z"/>
</g>
<g>
</g>
<g>
</g>
<g>
</g>
<g>
</g>
<g>
</g>
<g>
</g>
<g>
</g>
<g>
</g>
<g>
</g>
<g>
</g>
<g>
</g>
<g>
</g>
<g>
</g>
<g>
</g>
<g>
</g>
</svg>
