<?xml version="1.0" encoding="iso-8859-1"?>
<!-- Generator: Adobe Illustrator 19.0.0, SVG Export Plug-In . SVG Version: 6.00 Build 0)  -->
<svg version="1.1" id="Capa_1" xmlns="http://www.w3.org/2000/svg" xmlns:xlink="http://www.w3.org/1999/xlink" x="0px" y="0px"
	 viewBox="0 0 511.929 511.929" style="enable-background:new 0 0 511.929 511.929;" xml:space="preserve">
<g>
	<path style="fill:#687492;" d="M59.747,20.999L92.889,1.834l1.107-0.623c4.257-1.964,9.238-1.516,13.077,1.176l332.385,191.931
		c12.619,9.056,20.193,23.561,20.411,39.092v240.709c0.556,5.861-1.613,11.652-5.881,15.706l-0.138,0.069l-1.315,0.83l-0.415,0.208
		l-32.519,18.75L59.747,20.999z"/>
	<path style="fill:#98A9D5;" d="M425.343,253.336v240.709c0.537,5.811-1.573,11.554-5.743,15.637l-2.768,1.591
		c-4.044,1.292-8.457,0.654-11.97-1.73L72.547,317.613c-12.638-9.047-20.237-23.551-20.48-39.092V37.812
		c-0.598-6.031,1.746-11.98,6.296-15.983c0.415-0.277,0.899-0.554,1.384-0.83c4.22-1.777,9.058-1.254,12.8,1.384l332.316,191.862
		C417.525,223.271,425.13,237.788,425.343,253.336z"/>
	<polygon style="fill:#BDDCF3;" points="379.659,452.753 97.769,290 97.769,79.132 379.659,241.879 	"/>
	<g>

			<ellipse transform="matrix(-0.505 -0.8631 0.8631 -0.505 293.0224 893.0347)" style="fill:#687492;" cx="402.59" cy="362.493" rx="27.212" ry="15.713"/>

			<ellipse transform="matrix(-0.505 -0.8631 0.8631 -0.505 -38.7293 316.4937)" style="fill:#687492;" cx="71.39" cy="169.353" rx="9.071" ry="6.919"/>
	</g>
	<g>
		<path style="fill:#FFFFFF;" d="M122.279,152.972c-1.57,0.001-2.944-1.056-3.345-2.575c-0.401-1.518,0.27-3.116,1.636-3.892
			l24.514-13.963c1.074-0.611,2.393-0.602,3.459,0.023c1.066,0.625,1.718,1.771,1.709,3.007c-0.008,1.236-0.675,2.373-1.749,2.984
			l-24.514,13.963C123.468,152.817,122.878,152.973,122.279,152.972z"/>
		<path style="fill:#FFFFFF;" d="M122.279,188.118c-1.57,0.001-2.944-1.056-3.345-2.575s0.27-3.116,1.636-3.892l12.257-6.983
			c1.074-0.611,2.393-0.602,3.459,0.023c1.066,0.625,1.718,1.771,1.709,3.007c-0.008,1.236-0.675,2.373-1.749,2.984l-12.257,6.983
			C123.468,187.962,122.878,188.118,122.279,188.118z"/>
		<path style="fill:#FFFFFF;" d="M159.049,167.172c-1.57,0.001-2.944-1.056-3.345-2.575c-0.401-1.518,0.27-3.116,1.636-3.892
			l18.385-10.473c1.074-0.611,2.393-0.602,3.459,0.023s1.718,1.771,1.709,3.007c-0.008,1.236-0.675,2.373-1.749,2.984
			l-18.385,10.473C160.238,167.016,159.649,167.172,159.049,167.172z"/>
		<path style="fill:#FFFFFF;" d="M122.279,223.263c-1.57,0.001-2.944-1.057-3.345-2.575c-0.401-1.518,0.27-3.116,1.636-3.892
			l55.155-31.419c1.074-0.611,2.393-0.602,3.459,0.023c1.066,0.625,1.718,1.771,1.709,3.007s-0.675,2.373-1.749,2.984
			l-55.155,31.419C123.468,223.107,122.878,223.263,122.279,223.263z"/>
		<path style="fill:#FFFFFF;" d="M201.948,177.881c-1.569,0-2.942-1.056-3.345-2.573c-0.403-1.517,0.266-3.115,1.629-3.893
			l6.128-3.493c1.66-0.945,3.773-0.367,4.72,1.292s0.371,3.772-1.287,4.721l-6.128,3.493
			C203.141,177.726,202.55,177.882,201.948,177.881z"/>
	</g>
</g>
</svg>
