<?xml version="1.0" encoding="UTF-8"?>
<svg version="1.1" xmlns="http://www.w3.org/2000/svg" width="512" height="512">
<path d="M0 0 C0.7286174 -0.0066568 1.4572348 -0.0133136 2.20793152 -0.02017212 C3.74512217 -0.03026432 5.28235633 -0.0349902 6.81958008 -0.03466797 C9.15065187 -0.03903009 11.47981092 -0.07535107 13.81054688 -0.11328125 C23.31546123 -0.18909491 29.92089566 0.28236295 37.12890625 6.87109375 C39.80959549 10.4197202 40.77884265 14.4746112 42.02905273 18.68798828 C44.65761391 27.81092619 44.65761391 27.81092619 50.46337891 35.00537109 C55.13581389 37.42656844 60.07390802 38.6466305 65.18847656 39.77832031 C68.8889603 40.73054033 72.00033815 42.63492101 75.25 44.5859375 C78.87845134 45.87844707 81.83949538 44.98696437 85.31225586 43.49560547 C86.75413306 42.80712204 88.19122619 42.1085527 89.62402344 41.40136719 C97.8417477 37.36072371 105.03039336 34.51539372 114.35546875 36.3359375 C117.54296875 37.7734375 117.54296875 37.7734375 120.35546875 40.3359375 C121.11214844 40.99207031 121.86882812 41.64820313 122.6484375 42.32421875 C143.52288444 60.60909739 143.52288444 60.60909739 144.61352539 69.42089844 C144.88574358 76.71070882 142.81973453 82.0376894 139.79296875 88.5859375 C135.66333026 96.6746892 135.66333026 96.6746892 136.35546875 105.3359375 C137.39428208 107.94246671 138.53842098 110.48372455 139.73046875 113.0234375 C141.99254389 117.90161746 143.69519696 122.32304447 144.66796875 127.6484375 C145.22469035 130.24417236 145.22469035 130.24417236 146.35546875 132.3359375 C148.61094032 133.67482381 150.62564778 134.10249766 153.1953125 134.6171875 C161.71419156 136.5547323 171.95064848 140.2806741 177.41015625 147.3671875 C181.03832177 154.92336693 180.68866983 162.46362556 180.66796875 170.7109375 C180.68408203 171.98710937 180.70019531 173.26328125 180.71679688 174.578125 C180.72092024 182.56096384 180.48471278 189.79530762 175.83984375 196.53515625 C169.59316909 201.89547842 159.77304008 207.3359375 151.35546875 207.3359375 C151.35546875 207.9959375 151.35546875 208.6559375 151.35546875 209.3359375 C152.16854492 209.54875366 152.16854492 209.54875366 152.99804688 209.76586914 C160.47120548 211.85490111 167.51838907 214.79732813 174.64169312 217.83111572 C186.54473601 222.89779744 198.5003833 227.82264102 210.5234375 232.59765625 C211.64319977 233.04272018 212.76296204 233.48778412 213.91665649 233.94633484 C219.47751519 236.15445308 225.04165216 238.35392939 230.609375 240.54467773 C232.67455108 241.36293701 234.73965839 242.18136988 236.8046875 243 C238.20426949 243.54614204 238.20426949 243.54614204 239.63212585 244.10331726 C255.36597555 250.36090418 255.36597555 250.36090418 260.29296875 256.3359375 C260.83824219 256.9753125 261.38351562 257.6146875 261.9453125 258.2734375 C266.69648575 265.22252192 265.98609773 273.28329052 265.35546875 281.3359375 C263.75613741 288.01668865 258.9798923 292.65777027 253.35546875 296.3359375 C241.27599855 302.3359375 241.27599855 302.3359375 237.35546875 302.3359375 C237.35546875 302.9959375 237.35546875 303.6559375 237.35546875 304.3359375 C238.0825 304.46871094 238.80953125 304.60148437 239.55859375 304.73828125 C249.30995525 306.82202191 256.48817745 311.39285675 262.8046875 319.10546875 C266.72713616 325.42267554 266.21356807 333.20769139 265.35546875 340.3359375 C263.31943824 347.20979272 259.53033834 352.64773282 253.35546875 356.3359375 C249.69230763 358.06001665 246.02721819 359.62968851 242.26953125 361.13671875 C239.50887108 362.0542678 239.50887108 362.0542678 238.35546875 363.3359375 C239.45246094 363.79484375 240.54945313 364.25375 241.6796875 364.7265625 C243.13429027 365.34594174 244.58870763 365.96575652 246.04296875 366.5859375 C246.76419922 366.88628906 247.48542969 367.18664062 248.22851562 367.49609375 C254.11818023 370.02407764 258.74911047 372.74275585 262.10546875 378.3984375 C262.5128125 379.07003906 262.92015625 379.74164063 263.33984375 380.43359375 C266.69146752 386.71144288 266.57511768 396.14615905 264.6015625 402.92578125 C263.63843279 404.89358744 262.65784901 406.57531233 261.35546875 408.3359375 C260.81229004 409.11839844 260.26911133 409.90085937 259.70947266 410.70703125 C256.9636387 413.77352575 254.08418705 415.38084002 250.42578125 417.109375 C249.72800568 417.44786469 249.0302301 417.78635437 248.31130981 418.13510132 C240.07899889 422.05593002 231.62118052 425.4372 223.15008545 428.8013916 C219.07233908 430.42089668 215.00076931 432.05569392 210.92861938 433.68920898 C208.76077659 434.55863233 206.59262024 435.42727425 204.42416382 436.29516602 C192.99370432 440.87210081 181.59231478 445.51970507 170.19268799 450.17279053 C164.45338159 452.51535837 158.71303009 454.85536185 152.97265625 457.1953125 C151.87496918 457.64280853 150.7772821 458.09030457 149.64633179 458.55136108 C139.67698169 462.61458616 129.70056438 466.66022376 119.72158813 470.69973755 C109.85575801 474.69390818 99.99607232 478.70292929 90.140625 482.72265625 C88.97943649 483.19626083 87.81824799 483.66986542 86.62187195 484.15782166 C85.44961563 484.63594803 84.27735931 485.1140744 83.06958008 485.60668945 C47.07152157 500.28900537 47.07152157 500.28900537 31.16796875 506.6484375 C29.37178101 507.36713013 29.37178101 507.36713013 27.53930664 508.1003418 C15.82095323 512.77190146 5.74292333 514.36142386 -6.33520508 509.44335938 C-7.36540771 508.99541016 -8.39561035 508.54746094 -9.45703125 508.0859375 C-11.25798543 507.34228542 -13.05896318 506.59868977 -14.86039734 505.85620117 C-16.91308054 505.00547183 -18.96065992 504.14324436 -21.0078125 503.27929688 C-26.2238638 501.08440697 -31.46469763 498.95150698 -36.70703125 496.8203125 C-38.71144175 496.00508484 -40.71583596 495.18981712 -42.72021484 494.37451172 C-43.74153503 493.95909119 -44.76285522 493.54367065 -45.81512451 493.11566162 C-50.06910316 491.38298158 -54.32012624 489.64311516 -58.57113647 487.90316772 C-71.64355404 482.55282321 -84.73322445 477.24629637 -97.83203125 471.9609375 C-115.91945424 464.66119899 -133.9873518 457.31444949 -152.04763794 449.94784546 C-170.55826816 442.39825709 -189.08459651 434.88828123 -207.625 427.41210938 C-211.90690724 425.68516243 -216.18719203 423.95427268 -220.46566772 422.21884155 C-221.85410473 421.65622868 -223.24306792 421.0949114 -224.63272095 420.53530884 C-226.32465406 419.85350611 -228.01400894 419.16531468 -229.703125 418.4765625 C-230.58282959 418.11981445 -231.46253418 417.76306641 -232.36889648 417.39550781 C-238.82263727 414.39054751 -242.82192455 409.75085647 -245.76171875 403.31640625 C-247.88465185 396.14915867 -248.14127752 387.60143763 -244.95703125 380.7109375 C-239.10389072 371.26841462 -229.70302823 367.02542717 -219.64453125 363.3359375 C-220.71832031 362.82804687 -221.79210937 362.32015625 -222.8984375 361.796875 C-242.31343215 352.46975122 -242.31343215 352.46975122 -245.984375 343.09375 C-247.67360805 336.03695397 -248.10057255 327.60579994 -245.14453125 320.8359375 C-239.73527608 312.18861608 -230.95512657 307.81308185 -221.64453125 304.3359375 C-220.65453125 304.3359375 -219.66453125 304.3359375 -218.64453125 304.3359375 C-218.64453125 303.6759375 -218.64453125 303.0159375 -218.64453125 302.3359375 C-219.32773438 302.23410156 -220.0109375 302.13226563 -220.71484375 302.02734375 C-230.07054897 299.81939732 -239.50710847 294.62734768 -244.64453125 286.3359375 C-248.04735728 279.5186717 -247.88385225 270.57397271 -245.76953125 263.34375 C-240.71184865 252.39652911 -231.75919194 248.69981916 -221.01953125 244.3984375 C-219.66921593 243.84626142 -218.31937272 243.29292963 -216.9699707 242.73852539 C-213.31601798 241.24142916 -209.65534219 239.76147891 -205.99310303 238.28479004 C-201.90052023 236.63133511 -197.8140758 234.96281245 -193.7265625 233.296875 C-185.96440432 230.13664752 -178.19805424 226.98702794 -170.42211914 223.86083984 C-168.11089063 222.93095193 -165.80685431 221.9884094 -163.50561523 221.03369141 C-162.62591064 220.67065918 -161.74620605 220.30762695 -160.83984375 219.93359375 C-159.75533936 219.47932007 -159.75533936 219.47932007 -158.64892578 219.01586914 C-155.06140594 217.798909 -152.41333229 217.82491363 -148.64453125 218.3359375 C-145.9140625 220.3671875 -145.9140625 220.3671875 -143.64453125 222.3359375 C-142.66871094 221.9028125 -141.69289063 221.4696875 -140.6875 221.0234375 C-139.40246945 220.4606504 -138.11730623 219.89816616 -136.83203125 219.3359375 C-136.18943359 219.04976562 -135.54683594 218.76359375 -134.88476562 218.46875 C-131.96696656 217.19882709 -129.86187411 216.3359375 -126.64453125 216.3359375 C-127.13953125 212.8709375 -127.13953125 212.8709375 -127.64453125 209.3359375 C-128.37285156 209.20541992 -129.10117188 209.07490234 -129.8515625 208.94042969 C-134.30142419 207.97733025 -138.4174125 206.25227996 -142.64453125 204.5859375 C-143.53398437 204.25078125 -144.4234375 203.915625 -145.33984375 203.5703125 C-152.47471532 200.75896012 -157.0705888 197.30512527 -160.64453125 190.3359375 C-162.37768825 185.00999694 -161.86893248 179.24684451 -161.88476562 173.71118164 C-161.89441844 171.67226527 -161.92544297 169.63438102 -161.95703125 167.59570312 C-162.02030273 151.5642929 -162.02030273 151.5642929 -157.28540039 145.63354492 C-152.48506457 141.02837409 -146.44753852 138.82201319 -140.33203125 136.4609375 C-138.8305957 135.85765625 -138.8305957 135.85765625 -137.29882812 135.2421875 C-129.9788345 132.3359375 -129.9788345 132.3359375 -127.64453125 132.3359375 C-127.45890625 131.45808594 -127.45890625 131.45808594 -127.26953125 130.5625 C-125.49322213 123.16861331 -122.63692454 116.57359404 -119.25 109.79541016 C-116.90050216 104.85691309 -116.11805123 101.79627118 -117.64453125 96.3359375 C-119.20439547 92.3522151 -121.00900171 88.48750972 -122.84960938 84.62695312 C-125.97558246 77.66841267 -127.1095946 71.40393008 -124.47265625 64.08203125 C-122.36710038 60.91919839 -120.01093643 58.13803064 -117.39453125 55.3984375 C-116.90291504 54.87556152 -116.41129883 54.35268555 -115.90478516 53.81396484 C-114.92923004 52.78010069 -113.95032713 51.74938319 -112.96777344 50.72216797 C-111.86187248 49.56362449 -110.77085125 48.39090117 -109.68359375 47.21484375 C-104.02825089 41.25416547 -98.39363576 36.10120583 -89.89453125 35.3984375 C-82.25244457 35.68818486 -75.70556828 38.94751185 -68.89160156 42.22094727 C-68.02631836 42.63143311 -67.16103516 43.04191895 -66.26953125 43.46484375 C-65.49867188 43.84713135 -64.7278125 44.22941895 -63.93359375 44.62329102 C-58.20538873 46.40663471 -52.81076171 42.63604608 -47.78710938 40.12695312 C-47.17158203 39.82853516 -46.55605469 39.53011719 -45.921875 39.22265625 C-44.94069702 38.74505859 -44.94069702 38.74505859 -43.93969727 38.2578125 C-41.64453125 37.3359375 -41.64453125 37.3359375 -38.65991211 36.6484375 C-32.34637353 35.16705309 -32.34637353 35.16705309 -27.8605957 30.77319336 C-26.46799799 27.54067867 -25.35775442 24.3276102 -24.33203125 20.9609375 C-19.58864719 6.3194122 -19.58864719 6.3194122 -12.64453125 2.3359375 C-8.46643732 0.23961163 -4.59372447 0.0147574 0 0 Z " fill="#373738" transform="translate(246.64453125,-0.3359375)"/>
<path d="M0 0 C1.084021 0.00523682 2.16804199 0.01047363 3.28491211 0.01586914 C4.45473633 0.0190918 5.62456055 0.02231445 6.82983398 0.02563477 C8.0615332 0.03401367 9.29323242 0.04239258 10.56225586 0.05102539 C12.41560547 0.05779297 12.41560547 0.05779297 14.30639648 0.06469727 C17.37089703 0.07652931 20.43530307 0.09301366 23.49975586 0.11352539 C26.13227337 5.07925954 28.55691889 9.98981643 30.35131836 15.32446289 C33.14204619 24.62839737 33.14204619 24.62839737 38.89819336 32.08227539 C41.75676648 33.07805462 44.51873004 33.58983167 47.49975586 34.11352539 C50.16488871 34.94717218 52.76589621 35.93189363 55.37475586 36.92602539 C56.05538086 37.17473389 56.73600586 37.42344238 57.43725586 37.6796875 C63.17197751 39.8281639 68.2411232 42.63637648 73.43725586 45.89086914 C78.49508993 47.91013198 82.32454527 46.9669676 87.2121582 45.04931641 C91.27075072 43.25720622 95.27572004 41.36363177 99.27514648 39.44360352 C100.26063477 38.99049805 101.24612305 38.53739258 102.26147461 38.07055664 C103.14794678 37.64750244 104.03441895 37.22444824 104.94775391 36.78857422 C108.23630601 35.91869509 109.55171815 36.49585025 112.49975586 38.11352539 C115.12904509 40.14175435 117.40823195 42.51228562 119.74975586 44.86352539 C120.38655273 45.47196289 121.02334961 46.08040039 121.67944336 46.70727539 C122.28530273 47.31055664 122.89116211 47.91383789 123.51538086 48.53540039 C124.06484375 49.07777344 124.61430664 49.62014648 125.18041992 50.17895508 C126.99977538 52.84671464 127.31105347 54.90205768 127.49975586 58.11352539 C126.6953125 60.79492187 126.6953125 60.79492187 125.40991211 63.48461914 C124.95551758 64.47139648 124.50112305 65.45817383 124.03295898 66.47485352 C123.54762695 67.48999023 123.06229492 68.50512695 122.56225586 69.55102539 C117.9935044 78.4192516 117.9935044 78.4192516 117.49975586 88.11352539 C118.51073523 90.78762492 119.80452208 93.23999842 121.18725586 95.73852539 C126.29286635 105.45056618 130.4170079 115.12520366 132.43334961 125.96899414 C133.33814794 128.40597202 133.33814794 128.40597202 136.20166016 129.09863281 C137.29003174 129.43354736 138.37840332 129.76846191 139.49975586 130.11352539 C141.45270825 130.88882137 143.39796416 131.68374178 145.33569336 132.49633789 C146.29523926 132.89739746 147.25478516 133.29845703 148.2434082 133.71166992 C149.44175293 134.21553223 150.64009766 134.71939453 151.87475586 135.23852539 C155.71100586 136.84727539 159.54725586 138.45602539 163.49975586 140.11352539 C163.49975586 149.02352539 163.49975586 157.93352539 163.49975586 167.11352539 C151.6534906 172.70389776 151.6534906 172.70389776 146.40209961 174.70727539 C145.73057861 174.96428223 145.05905762 175.22128906 144.3671875 175.48608398 C143.06183356 175.97905064 141.75247526 176.4615701 140.43896484 176.93237305 C136.57393289 178.39386577 134.70835569 179.65911701 132.49975586 183.11352539 C131.49277941 185.4901556 131.49277941 185.4901556 130.70288086 188.07836914 C130.38706055 189.03743164 130.07124023 189.99649414 129.74584961 190.98461914 C129.41713867 191.9965332 129.08842773 193.00844727 128.74975586 194.05102539 C126.08501262 202.05523543 123.25487402 209.23485545 118.74975586 216.39477539 C116.71320178 220.8242805 116.79104598 224.14853247 118.44897461 228.74536133 C119.7391212 231.77435691 121.10046607 234.75841633 122.49975586 237.73852539 C123.44569831 239.76846675 124.38353536 241.80220977 125.31225586 243.84008789 C125.73120117 244.7329248 126.15014648 245.62576172 126.58178711 246.5456543 C127.58897664 249.36310629 127.9327095 251.15114851 127.49975586 254.11352539 C125.21980784 257.44949732 122.24574443 260.15531299 119.37475586 262.98852539 C118.61420898 263.78516602 117.85366211 264.58180664 117.07006836 265.40258789 C111.45547335 271.0171829 111.45547335 271.0171829 107.59350586 271.40649414 C106.57256836 270.97981445 105.55163086 270.55313477 104.49975586 270.11352539 C103.74065918 269.79738281 102.9815625 269.48124023 102.19946289 269.15551758 C98.55545232 267.60094062 94.96276121 265.94324523 91.37475586 264.26391602 C84.99879979 261.40208559 79.93837278 259.44776484 73.17016602 261.98779297 C70.56636325 263.18062651 68.03574035 264.47030769 65.49975586 265.80102539 C57.66464687 269.75699746 50.1551643 272.73315896 41.65209961 274.88305664 C37.07271127 276.67055023 35.22835567 279.58418717 33.14355469 283.96020508 C32.75192139 284.97501953 32.36028809 285.98983398 31.95678711 287.03540039 C31.52301758 288.14270508 31.08924805 289.25000977 30.64233398 290.39086914 C30.2034082 291.5368457 29.76448242 292.68282227 29.31225586 293.86352539 C28.42501903 296.15079402 27.53580594 298.43729738 26.64428711 300.72290039 C26.06191284 302.23835449 26.06191284 302.23835449 25.46777344 303.78442383 C24.49975586 306.11352539 24.49975586 306.11352539 23.49975586 307.11352539 C21.50010604 307.20110542 19.49739476 307.22049115 17.49584961 307.21118164 C16.2809082 307.20795898 15.0659668 307.20473633 13.81420898 307.20141602 C11.89511719 307.18884766 11.89511719 307.18884766 9.93725586 307.17602539 C8.65399414 307.17151367 7.37073242 307.16700195 6.04858398 307.16235352 C2.86559564 307.15052085 -0.31730176 307.13403607 -3.50024414 307.11352539 C-3.81775635 306.28103271 -4.13526855 305.44854004 -4.46240234 304.59082031 C-5.64694271 301.49649755 -6.83859913 298.40511516 -8.03515625 295.31542969 C-8.55104838 293.9789694 -9.06409957 292.64140879 -9.57421875 291.30273438 C-10.30899474 289.37600436 -11.05397894 287.45349438 -11.80102539 285.53149414 C-12.24615479 284.37415771 -12.69128418 283.21682129 -13.14990234 282.02441406 C-14.38520393 279.36151389 -15.19501118 277.86867501 -17.50024414 276.11352539 C-19.9624685 275.24569221 -22.36573026 274.4952026 -24.87524414 273.80102539 C-33.26189347 271.33621046 -41.13231006 268.07545846 -48.80102539 263.84399414 C-49.46489258 263.47918945 -50.12875977 263.11438477 -50.81274414 262.73852539 C-51.34512695 262.42141602 -51.87750977 262.10430664 -52.42602539 261.77758789 C-60.66474626 259.13995597 -67.32156838 262.80058695 -74.75024414 266.17602539 C-76.87581242 267.13558949 -79.00586797 268.08529272 -81.14086914 269.02368164 C-82.07447266 269.44786377 -83.00807617 269.8720459 -83.9699707 270.30908203 C-86.77825324 271.20191211 -87.82897111 271.28820277 -90.50024414 270.11352539 C-93.50820189 267.8309472 -96.12512604 265.13602979 -98.81274414 262.48852539 C-99.94292969 261.43858398 -99.94292969 261.43858398 -101.09594727 260.36743164 C-106.41958496 255.13599916 -106.41958496 255.13599916 -106.76586914 250.74633789 C-104.74470134 244.94483771 -102.2440689 239.41647411 -99.65063477 233.85180664 C-97.37015918 228.77838904 -95.63712616 224.78066441 -96.50024414 219.11352539 C-97.61515156 216.49038026 -98.74741652 214.14668771 -100.12524414 211.67602539 C-103.73707413 204.86259994 -106.58784795 197.99079327 -109.17602539 190.73461914 C-109.61301758 189.5396582 -110.05000977 188.34469727 -110.50024414 187.11352539 C-111.07838867 185.27467773 -111.07838867 185.27467773 -111.66821289 183.39868164 C-114.16600803 178.91969291 -116.85036988 177.92381152 -121.50024414 176.11352539 C-122.32766113 175.77144043 -123.15507813 175.42935547 -124.00756836 175.0769043 C-126.64119031 173.9999384 -129.28632005 172.95831834 -131.93774414 171.92602539 C-133.72901825 171.22652714 -135.519434 170.52482539 -137.30883789 169.82055664 C-138.09057373 169.51609619 -138.87230957 169.21163574 -139.67773438 168.89794922 C-141.50024414 168.11352539 -141.50024414 168.11352539 -142.50024414 167.11352539 C-142.58782417 165.11387557 -142.6072099 163.11116429 -142.59790039 161.10961914 C-142.59467773 159.89467773 -142.59145508 158.67973633 -142.58813477 157.42797852 C-142.57975586 156.14858398 -142.57137695 154.86918945 -142.56274414 153.55102539 C-142.55823242 152.26776367 -142.5537207 150.98450195 -142.54907227 149.66235352 C-142.5372396 146.47936517 -142.52075482 143.29646777 -142.50024414 140.11352539 C-135.82881032 137.3228057 -129.15517739 134.54185891 -122.43774414 131.86352539 C-121.8015918 131.60829102 -121.16543945 131.35305664 -120.51000977 131.09008789 C-117.85618328 130.02967352 -115.21225613 129.01752939 -112.50024414 128.11352539 C-111.74844736 126.22542467 -111.74844736 126.22542467 -111.31274414 123.80102539 C-109.8735602 117.99098651 -107.83948947 112.53722405 -105.62524414 106.98852539 C-105.29758057 106.15409912 -104.96991699 105.31967285 -104.63232422 104.45996094 C-102.93063501 100.23795901 -101.08885949 96.33793667 -98.74243164 92.43383789 C-96.4724504 88.37244066 -95.68840261 85.83834224 -96.50024414 81.11352539 C-98.37682612 76.0958107 -100.72447895 71.30436892 -103.03344727 66.47485352 C-103.71503906 64.9946875 -103.71503906 64.9946875 -104.41040039 63.48461914 C-104.83458252 62.59701904 -105.25876465 61.70941895 -105.69580078 60.79492188 C-106.69583698 57.46156903 -106.44357478 55.44745371 -105.50024414 52.11352539 C-104.1809082 50.17895508 -104.1809082 50.17895508 -102.51586914 48.53540039 C-101.91000977 47.93211914 -101.30415039 47.32883789 -100.67993164 46.70727539 C-99.72473633 45.79461914 -99.72473633 45.79461914 -98.75024414 44.86352539 C-98.12891602 44.23961914 -97.50758789 43.61571289 -96.86743164 42.97290039 C-93.61874327 39.79274975 -91.01710267 37.26248117 -86.50024414 36.11352539 C-83.73291016 36.89624023 -83.73291016 36.89624023 -80.75415039 38.32446289 C-79.6694043 38.82719727 -78.5846582 39.32993164 -77.46704102 39.84790039 C-76.34362305 40.38930664 -75.22020508 40.93071289 -74.06274414 41.48852539 C-71.83971463 42.54820785 -69.61197187 43.59807147 -67.37915039 44.63696289 C-66.39503174 45.11053223 -65.41091309 45.58410156 -64.39697266 46.07202148 C-59.69404583 47.76293475 -56.61114826 47.62634825 -52.09008789 45.53930664 C-50.86704361 44.84464151 -49.64978733 44.13971177 -48.43774414 43.42602539 C-39.23481855 38.2672408 -29.75785322 34.50500678 -19.52368164 31.88696289 C-16.04361563 30.55674461 -14.75814099 28.65526919 -13.16577148 25.31030273 C-12.72700684 24.20122559 -12.28824219 23.09214844 -11.83618164 21.94946289 C-11.35407227 20.74547852 -10.87196289 19.54149414 -10.37524414 18.30102539 C-9.87483505 17.03035309 -9.37483989 15.7595177 -8.87524414 14.48852539 C-7.886629 11.99489206 -6.89307951 9.50330378 -5.89868164 7.01196289 C-5.46217285 5.9051416 -5.02566406 4.79832031 -4.57592773 3.65795898 C-3.08878199 0.14024838 -3.08878199 0.14024838 0 0 Z " fill="#C3DBEE" transform="translate(245.500244140625,16.886474609375)"/>
<path d="M0 0 C2.34503971 2.12185946 3.59585277 3.93667713 4.75390625 6.87109375 C5.05103516 7.61037109 5.34816406 8.34964844 5.65429688 9.11132812 C5.95400391 9.87896484 6.25371094 10.64660156 6.5625 11.4375 C7.16667088 12.95754775 7.77210035 14.47709598 8.37890625 15.99609375 C8.6426001 16.66825928 8.90629395 17.3404248 9.17797852 18.03295898 C9.96231694 20.04299966 9.96231694 20.04299966 11.16381836 21.93774414 C12.56563232 25.39500619 11.37986739 28.03616916 10.06030273 31.38427734 C9.68848877 32.1933252 9.3166748 33.00237305 8.93359375 33.8359375 C8.53076172 34.73570312 8.12792969 35.63546875 7.71289062 36.5625 C6.86489781 38.43249947 6.01075478 40.29972257 5.15039062 42.1640625 C2.45336377 48.224797 0.74085689 52.98648134 2.8125 59.58984375 C5.62967033 65.15931536 8.78408207 69.2192829 13.42578125 73.40625 C15 75 15 75 15 77 C15.85078125 77.37125 15.85078125 77.37125 16.71875 77.75 C20.21912089 79.66801145 22.87451276 82.41735435 25.78125 85.125 C30.17286107 88.83622062 33.63207356 89.43287194 39.27587891 89.31591797 C43.93470332 88.77563129 47.94006587 86.97237622 52.1875 85.0625 C66.1361606 78.93947158 66.1361606 78.93947158 71.7109375 81.00390625 C73.02964844 81.77541016 73.02964844 81.77541016 74.375 82.5625 C77.991565 84.61612736 81.12646512 86.13258586 85.203125 86.859375 C89.98767589 87.81925662 94.21722935 88.76565016 98 92 C102.37593899 98.80687668 104.78607949 106.64932949 107.12475586 114.34619141 C108.5246765 118.92931354 108.5246765 118.92931354 111.8125 122.125 C112.534375 122.41375 113.25625 122.7025 114 123 C114.72147217 123.34184326 115.44294434 123.68368652 116.1862793 124.03588867 C121.44803639 125.83881091 127.09778587 125.33229613 132.60961914 125.31567383 C134.79559702 125.31252435 136.98020577 125.33596042 139.16601562 125.36132812 C146.33408685 125.39320809 152.43169104 125.19124482 159 122 C160.485 121.505 160.485 121.505 162 121 C163.88233095 118.00928493 164.7632018 114.71493606 165.78515625 111.3515625 C172.00064427 92.44553517 172.00064427 92.44553517 178.01953125 89.23046875 C181.57201172 87.87305617 185.21893284 87.14069139 188.95507812 86.47460938 C193.10389985 85.51170233 196.64721929 83.13454473 200.2890625 81.00390625 C206.25038487 78.79632722 211.43568941 81.46464525 216.88085938 83.93164062 C218.49383017 84.68176921 220.10327865 85.4395216 221.70898438 86.20507812 C228.18781637 89.11555261 234.08565617 90.38766147 241.06469727 88.41699219 C247.37327276 85.69177599 251.99661823 80.62930994 256.75 75.8125 C258.00490234 74.59336914 258.00490234 74.59336914 259.28515625 73.34960938 C264.64755 67.97438694 269.55862141 62.69276628 270.16943359 54.81469727 C269.73472164 47.46122709 266.14900549 41.01448188 263.0625 34.46484375 C262.65773438 33.57410156 262.25296875 32.68335938 261.8359375 31.765625 C261.46001465 30.96930664 261.0840918 30.17298828 260.69677734 29.35253906 C259.17145861 24.20258416 261.87073855 19.80418902 264.0625 15.1875 C264.61035156 14.02605469 265.15820312 12.86460937 265.72265625 11.66796875 C266.14417969 10.78753906 266.56570313 9.90710938 267 9 C270.58804388 9.62207199 273.76192679 10.58650387 277.13354492 11.95507812 C278.1402121 12.36120331 279.14687927 12.76732849 280.18405151 13.1857605 C281.2718692 13.62977203 282.35968689 14.07378357 283.48046875 14.53125 C284.62613312 14.99467804 285.77179749 15.45810608 286.95217896 15.93557739 C290.05650193 17.19232712 293.159211 18.45289751 296.26102066 19.71582794 C301.42499825 21.81782138 306.59141058 23.91383422 311.75726128 26.01121902 C313.7158171 26.80666931 315.67407898 27.60284034 317.63233948 28.39901733 C325.72950889 31.68863746 333.84519442 34.92856618 341.9765625 38.1328125 C344.85233883 39.27235104 347.72762437 40.4131172 350.60269165 41.55444336 C352.39982842 42.26443331 354.19895529 42.96940772 356.00009155 43.66918945 C358.48070603 44.63360962 360.95370736 45.61549842 363.42578125 46.6015625 C364.1429129 46.87461212 364.86004456 47.14766174 365.59890747 47.4289856 C369.95435613 49.19168808 372.48849916 51.00977974 375 55 C375.59050333 58.54301998 375.41221661 60.28108896 373.6237793 63.40014648 C369.80585587 67.18325494 365.4780244 68.66394231 360.51953125 70.59765625 C359.46026428 71.02434601 358.40099731 71.45103577 357.30963135 71.89065552 C353.81578861 73.29466609 350.31426086 74.67837053 346.8125 76.0625 C344.3612856 77.04380097 341.91069062 78.0266505 339.46069336 79.01098633 C335.05606619 80.77991843 330.64971595 82.54440997 326.24095249 84.30300808 C315.82394977 88.4591895 305.44339893 92.70306413 295.06600952 96.95700073 C277.26479329 104.24993035 259.43511207 111.47192934 241.59619141 118.67202759 C227.28993702 124.44699484 212.99705627 130.25391236 198.71481323 136.0880127 C195.60092417 137.35931266 192.48623998 138.62864535 189.37133789 139.89746094 C181.0484919 143.28958833 172.72727252 146.68337591 164.43977356 150.16116333 C161.45619498 151.41257167 158.46876688 152.65462084 155.48092651 153.89581299 C153.51153653 154.71905147 151.54894825 155.55712007 149.58618164 156.39599609 C147.84002563 157.12036865 147.84002563 157.12036865 146.05859375 157.859375 C144.57830688 158.48537598 144.57830688 158.48537598 143.06811523 159.12402344 C136.16240291 161.09567107 130.88441483 160.03066421 124.42578125 157.24609375 C123.7170134 156.95416641 123.00824554 156.66223907 122.27799988 156.36146545 C119.95062289 155.39959428 117.63186466 154.41851448 115.3125 153.4375 C113.66337739 152.75241918 112.01362514 152.06885229 110.36328125 151.38671875 C106.93714866 149.96922652 103.51380996 148.54527588 100.09228516 147.11669922 C93.01182007 144.16615548 85.89938435 141.29526464 78.78659058 138.42376709 C74.92384969 136.86324596 71.0636528 135.29645473 67.203125 133.73046875 C61.92614667 131.59084841 56.64864649 129.4525224 51.3704834 127.31582642 C32.01115357 119.47874276 12.66719766 111.6046837 -6.66714478 103.70614624 C-18.73123807 98.77783926 -30.7985317 93.85788775 -42.87915039 88.97021484 C-45.8780525 87.75688664 -48.87594857 86.54113158 -51.87280273 85.32275391 C-53.32925214 84.73076429 -54.78571365 84.13880446 -56.2421875 83.546875 C-57.31017326 83.1127681 -57.31017326 83.1127681 -58.3997345 82.66989136 C-63.01090622 80.79859989 -67.63058309 78.94977164 -72.2552948 77.11221313 C-75.43515239 75.84602892 -78.61030833 74.56833385 -81.78469849 73.28851318 C-83.28428817 72.68710216 -84.78594229 72.09080929 -86.2897644 71.50006104 C-88.35630516 70.68772398 -90.41490215 69.85773397 -92.47265625 69.0234375 C-93.64062744 68.55856934 -94.80859863 68.09370117 -96.01196289 67.61474609 C-99.33154386 65.8208325 -100.95485048 64.14785084 -103 61 C-103.59326599 57.44040406 -103.41490503 55.71387965 -101.59936523 52.59008789 C-97.88544756 48.88942549 -93.74682109 47.4424415 -88.91015625 45.55859375 C-87.90537231 45.15378784 -86.90058838 44.74898193 -85.86535645 44.33190918 C-82.60280728 43.02069043 -79.33273471 41.72941474 -76.0625 40.4375 C-73.82934042 39.54208109 -71.59683754 38.64502266 -69.36499023 37.74633789 C-64.94911041 35.96999421 -60.53072939 34.20017357 -56.109375 32.4375 C-48.85933499 29.54671111 -41.61621278 26.63986827 -34.39279175 23.68313599 C-32.59920465 22.95245297 -30.80073749 22.23378563 -29.00219727 21.51538086 C-27.95088623 21.08620361 -26.8995752 20.65702637 -25.81640625 20.21484375 C-24.47751343 19.67525024 -24.47751343 19.67525024 -23.11157227 19.12475586 C-20.69080627 18.04926162 -20.69080627 18.04926162 -19 15 C-19 13.88625 -19 12.7725 -19 11.625 C-18 8 -18 8 -15.99609375 6.5390625 C-13.37014278 5.2160643 -10.73764974 4.07227888 -8 3 C-7.19433594 2.67902344 -6.38867188 2.35804688 -5.55859375 2.02734375 C-3.71779876 1.31934568 -1.86045202 0.65460349 0 0 Z " fill="#447FC4" transform="translate(120,215)"/>
<path d="M0 0 C1.084021 0.00523682 2.16804199 0.01047363 3.28491211 0.01586914 C4.45473633 0.0190918 5.62456055 0.02231445 6.82983398 0.02563477 C8.0615332 0.03401367 9.29323242 0.04239258 10.56225586 0.05102539 C12.41560547 0.05779297 12.41560547 0.05779297 14.30639648 0.06469727 C17.37089703 0.07652931 20.43530307 0.09301366 23.49975586 0.11352539 C26.13227337 5.07925954 28.55691889 9.98981643 30.35131836 15.32446289 C33.14204619 24.62839737 33.14204619 24.62839737 38.89819336 32.08227539 C41.75676648 33.07805462 44.51873004 33.58983167 47.49975586 34.11352539 C50.16488871 34.94717218 52.76589621 35.93189363 55.37475586 36.92602539 C56.05538086 37.17473389 56.73600586 37.42344238 57.43725586 37.6796875 C63.17197751 39.8281639 68.2411232 42.63637648 73.43725586 45.89086914 C78.49508993 47.91013198 82.32454527 46.9669676 87.2121582 45.04931641 C91.27075072 43.25720622 95.27572004 41.36363177 99.27514648 39.44360352 C100.26063477 38.99049805 101.24612305 38.53739258 102.26147461 38.07055664 C103.14794678 37.64750244 104.03441895 37.22444824 104.94775391 36.78857422 C108.23630601 35.91869509 109.55171815 36.49585025 112.49975586 38.11352539 C115.12904509 40.14175435 117.40823195 42.51228562 119.74975586 44.86352539 C120.38655273 45.47196289 121.02334961 46.08040039 121.67944336 46.70727539 C122.28530273 47.31055664 122.89116211 47.91383789 123.51538086 48.53540039 C124.06484375 49.07777344 124.61430664 49.62014648 125.18041992 50.17895508 C126.99977538 52.84671464 127.31105347 54.90205768 127.49975586 58.11352539 C126.6953125 60.79492187 126.6953125 60.79492187 125.40991211 63.48461914 C124.95551758 64.47139648 124.50112305 65.45817383 124.03295898 66.47485352 C123.54762695 67.48999023 123.06229492 68.50512695 122.56225586 69.55102539 C117.9935044 78.4192516 117.9935044 78.4192516 117.49975586 88.11352539 C118.51073523 90.78762492 119.80452208 93.23999842 121.18725586 95.73852539 C126.29286635 105.45056618 130.4170079 115.12520366 132.43334961 125.96899414 C133.33814794 128.40597202 133.33814794 128.40597202 136.20166016 129.09863281 C137.29003174 129.43354736 138.37840332 129.76846191 139.49975586 130.11352539 C141.45270825 130.88882137 143.39796416 131.68374178 145.33569336 132.49633789 C146.29523926 132.89739746 147.25478516 133.29845703 148.2434082 133.71166992 C149.44175293 134.21553223 150.64009766 134.71939453 151.87475586 135.23852539 C155.71100586 136.84727539 159.54725586 138.45602539 163.49975586 140.11352539 C163.49975586 149.02352539 163.49975586 157.93352539 163.49975586 167.11352539 C151.6534906 172.70389776 151.6534906 172.70389776 146.40209961 174.70727539 C145.73057861 174.96428223 145.05905762 175.22128906 144.3671875 175.48608398 C143.06183356 175.97905064 141.75247526 176.4615701 140.43896484 176.93237305 C136.57393289 178.39386577 134.70835569 179.65911701 132.49975586 183.11352539 C131.49277941 185.4901556 131.49277941 185.4901556 130.70288086 188.07836914 C130.38706055 189.03743164 130.07124023 189.99649414 129.74584961 190.98461914 C129.41713867 191.9965332 129.08842773 193.00844727 128.74975586 194.05102539 C126.08501262 202.05523543 123.25487402 209.23485545 118.74975586 216.39477539 C116.71320178 220.8242805 116.79104598 224.14853247 118.44897461 228.74536133 C119.7391212 231.77435691 121.10046607 234.75841633 122.49975586 237.73852539 C123.44569831 239.76846675 124.38353536 241.80220977 125.31225586 243.84008789 C125.73120117 244.7329248 126.15014648 245.62576172 126.58178711 246.5456543 C127.58897664 249.36310629 127.9327095 251.15114851 127.49975586 254.11352539 C125.21980784 257.44949732 122.24574443 260.15531299 119.37475586 262.98852539 C118.61420898 263.78516602 117.85366211 264.58180664 117.07006836 265.40258789 C111.45547335 271.0171829 111.45547335 271.0171829 107.59350586 271.40649414 C106.57256836 270.97981445 105.55163086 270.55313477 104.49975586 270.11352539 C103.74065918 269.79738281 102.9815625 269.48124023 102.19946289 269.15551758 C98.55545232 267.60094062 94.96276121 265.94324523 91.37475586 264.26391602 C84.99879979 261.40208559 79.93837278 259.44776484 73.17016602 261.98779297 C70.56636325 263.18062651 68.03574035 264.47030769 65.49975586 265.80102539 C57.66464687 269.75699746 50.1551643 272.73315896 41.65209961 274.88305664 C37.07271127 276.67055023 35.22835567 279.58418717 33.14355469 283.96020508 C32.75192139 284.97501953 32.36028809 285.98983398 31.95678711 287.03540039 C31.52301758 288.14270508 31.08924805 289.25000977 30.64233398 290.39086914 C30.2034082 291.5368457 29.76448242 292.68282227 29.31225586 293.86352539 C28.42501903 296.15079402 27.53580594 298.43729738 26.64428711 300.72290039 C26.06191284 302.23835449 26.06191284 302.23835449 25.46777344 303.78442383 C24.49975586 306.11352539 24.49975586 306.11352539 23.49975586 307.11352539 C21.50010604 307.20110542 19.49739476 307.22049115 17.49584961 307.21118164 C16.2809082 307.20795898 15.0659668 307.20473633 13.81420898 307.20141602 C11.89511719 307.18884766 11.89511719 307.18884766 9.93725586 307.17602539 C8.65399414 307.17151367 7.37073242 307.16700195 6.04858398 307.16235352 C2.86559564 307.15052085 -0.31730176 307.13403607 -3.50024414 307.11352539 C-3.81775635 306.28103271 -4.13526855 305.44854004 -4.46240234 304.59082031 C-5.64694271 301.49649755 -6.83859913 298.40511516 -8.03515625 295.31542969 C-8.55104838 293.9789694 -9.06409957 292.64140879 -9.57421875 291.30273438 C-10.30899474 289.37600436 -11.05397894 287.45349438 -11.80102539 285.53149414 C-12.24615479 284.37415771 -12.69128418 283.21682129 -13.14990234 282.02441406 C-14.38520393 279.36151389 -15.19501118 277.86867501 -17.50024414 276.11352539 C-19.9624685 275.24569221 -22.36573026 274.4952026 -24.87524414 273.80102539 C-33.26189347 271.33621046 -41.13231006 268.07545846 -48.80102539 263.84399414 C-49.46489258 263.47918945 -50.12875977 263.11438477 -50.81274414 262.73852539 C-51.34512695 262.42141602 -51.87750977 262.10430664 -52.42602539 261.77758789 C-60.66474626 259.13995597 -67.32156838 262.80058695 -74.75024414 266.17602539 C-76.87581242 267.13558949 -79.00586797 268.08529272 -81.14086914 269.02368164 C-82.07447266 269.44786377 -83.00807617 269.8720459 -83.9699707 270.30908203 C-86.77825324 271.20191211 -87.82897111 271.28820277 -90.50024414 270.11352539 C-93.50820189 267.8309472 -96.12512604 265.13602979 -98.81274414 262.48852539 C-99.94292969 261.43858398 -99.94292969 261.43858398 -101.09594727 260.36743164 C-106.41958496 255.13599916 -106.41958496 255.13599916 -106.76586914 250.74633789 C-104.74470134 244.94483771 -102.2440689 239.41647411 -99.65063477 233.85180664 C-97.37015918 228.77838904 -95.63712616 224.78066441 -96.50024414 219.11352539 C-97.61515156 216.49038026 -98.74741652 214.14668771 -100.12524414 211.67602539 C-103.73707413 204.86259994 -106.58784795 197.99079327 -109.17602539 190.73461914 C-109.61301758 189.5396582 -110.05000977 188.34469727 -110.50024414 187.11352539 C-111.07838867 185.27467773 -111.07838867 185.27467773 -111.66821289 183.39868164 C-114.16600803 178.91969291 -116.85036988 177.92381152 -121.50024414 176.11352539 C-122.32766113 175.77144043 -123.15507813 175.42935547 -124.00756836 175.0769043 C-126.64119031 173.9999384 -129.28632005 172.95831834 -131.93774414 171.92602539 C-133.72901825 171.22652714 -135.519434 170.52482539 -137.30883789 169.82055664 C-138.09057373 169.51609619 -138.87230957 169.21163574 -139.67773438 168.89794922 C-141.50024414 168.11352539 -141.50024414 168.11352539 -142.50024414 167.11352539 C-142.58782417 165.11387557 -142.6072099 163.11116429 -142.59790039 161.10961914 C-142.59467773 159.89467773 -142.59145508 158.67973633 -142.58813477 157.42797852 C-142.57975586 156.14858398 -142.57137695 154.86918945 -142.56274414 153.55102539 C-142.55823242 152.26776367 -142.5537207 150.98450195 -142.54907227 149.66235352 C-142.5372396 146.47936517 -142.52075482 143.29646777 -142.50024414 140.11352539 C-135.82881032 137.3228057 -129.15517739 134.54185891 -122.43774414 131.86352539 C-121.8015918 131.60829102 -121.16543945 131.35305664 -120.51000977 131.09008789 C-117.85618328 130.02967352 -115.21225613 129.01752939 -112.50024414 128.11352539 C-111.74844736 126.22542467 -111.74844736 126.22542467 -111.31274414 123.80102539 C-109.8735602 117.99098651 -107.83948947 112.53722405 -105.62524414 106.98852539 C-105.29758057 106.15409912 -104.96991699 105.31967285 -104.63232422 104.45996094 C-102.93063501 100.23795901 -101.08885949 96.33793667 -98.74243164 92.43383789 C-96.4724504 88.37244066 -95.68840261 85.83834224 -96.50024414 81.11352539 C-98.37682612 76.0958107 -100.72447895 71.30436892 -103.03344727 66.47485352 C-103.71503906 64.9946875 -103.71503906 64.9946875 -104.41040039 63.48461914 C-104.83458252 62.59701904 -105.25876465 61.70941895 -105.69580078 60.79492188 C-106.69583698 57.46156903 -106.44357478 55.44745371 -105.50024414 52.11352539 C-104.1809082 50.17895508 -104.1809082 50.17895508 -102.51586914 48.53540039 C-101.91000977 47.93211914 -101.30415039 47.32883789 -100.67993164 46.70727539 C-99.72473633 45.79461914 -99.72473633 45.79461914 -98.75024414 44.86352539 C-98.12891602 44.23961914 -97.50758789 43.61571289 -96.86743164 42.97290039 C-93.61874327 39.79274975 -91.01710267 37.26248117 -86.50024414 36.11352539 C-83.73291016 36.89624023 -83.73291016 36.89624023 -80.75415039 38.32446289 C-79.6694043 38.82719727 -78.5846582 39.32993164 -77.46704102 39.84790039 C-76.34362305 40.38930664 -75.22020508 40.93071289 -74.06274414 41.48852539 C-71.83971463 42.54820785 -69.61197187 43.59807147 -67.37915039 44.63696289 C-66.39503174 45.11053223 -65.41091309 45.58410156 -64.39697266 46.07202148 C-59.69404583 47.76293475 -56.61114826 47.62634825 -52.09008789 45.53930664 C-50.86704361 44.84464151 -49.64978733 44.13971177 -48.43774414 43.42602539 C-39.23481855 38.2672408 -29.75785322 34.50500678 -19.52368164 31.88696289 C-16.04361563 30.55674461 -14.75814099 28.65526919 -13.16577148 25.31030273 C-12.72700684 24.20122559 -12.28824219 23.09214844 -11.83618164 21.94946289 C-11.35407227 20.74547852 -10.87196289 19.54149414 -10.37524414 18.30102539 C-9.87483505 17.03035309 -9.37483989 15.7595177 -8.87524414 14.48852539 C-7.886629 11.99489206 -6.89307951 9.50330378 -5.89868164 7.01196289 C-5.46217285 5.9051416 -5.02566406 4.79832031 -4.57592773 3.65795898 C-3.08878199 0.14024838 -3.08878199 0.14024838 0 0 Z M-75.12524414 82.03540039 C-94.83923541 106.30825214 -102.33750706 135.26553055 -100.50024414 166.11352539 C-97.08096057 195.83627334 -80.67790276 223.5713985 -57.50024414 242.11352539 C-31.46856503 260.97518867 -1.6412391 268.00075024 30.23803711 263.42993164 C59.91362186 258.08356229 85.69936628 240.6582033 102.85913086 216.12524414 C118.94708207 192.23127042 125.50505763 161.87769837 120.37011719 133.48950195 C116.38766815 114.3878785 107.758418 97.25903971 95.49975586 82.11352539 C94.84749023 81.28336914 94.19522461 80.45321289 93.52319336 79.59790039 C82.78597314 66.74640128 68.65791151 57.82642289 53.49975586 51.11352539 C52.23518555 50.50444336 52.23518555 50.50444336 50.94506836 49.88305664 C7.54625383 30.28601409 -44.72936126 48.2018879 -75.12524414 82.03540039 Z " fill="#C2DBED" transform="translate(245.500244140625,16.886474609375)"/>
<path d="M0 0 C0.64898758 0.27378983 1.29797516 0.54757965 1.96662903 0.82966614 C3.39426014 1.43194655 4.82110121 2.03610219 6.24725342 2.64187622 C10.28707306 4.35607171 14.33470258 6.05158671 18.3828125 7.74609375 C19.26225525 8.11427719 20.141698 8.48246063 21.04779053 8.86180115 C32.10572216 13.4789244 43.22372959 17.94714253 54.33984375 22.421875 C58.81268273 24.22350501 63.2853172 26.02564199 67.7578125 27.828125 C69.44789429 28.50921074 69.44789429 28.50921074 71.17211914 29.20405579 C82.54848701 33.7913875 93.91050554 38.4136664 105.26928711 43.04434204 C108.63725396 44.41573065 112.00690197 45.78291227 115.37695312 47.14916992 C125.54231398 51.27567095 135.68974705 55.43400816 145.78175354 59.73735046 C150.23425743 61.63396017 154.69513138 63.51041642 159.15664673 65.38571167 C161.24507168 66.27053976 163.3292369 67.16550463 165.40853882 68.07156372 C179.33244733 74.13660888 191.25365183 78.90800054 206.27198792 73.52459717 C209.01111072 72.44653679 211.69163271 71.26225759 214.36740112 70.03613281 C217.41370733 68.6409188 220.48837326 67.31332036 223.56147766 65.97842407 C225.22659558 65.25407749 226.89021962 64.52628815 228.55241394 63.79525757 C237.91599759 59.68487635 247.39804648 55.87602941 256.88809204 52.06903076 C260.9281376 50.44771149 264.96505145 48.8186682 269.00209045 47.18988037 C271.96609201 45.99414785 274.93051497 44.79946529 277.89501953 43.60498047 C285.88036244 40.38649535 293.86092283 37.15624286 301.83984375 33.921875 C302.56182953 33.62930817 303.28381531 33.33674133 304.02767944 33.03530884 C314.6892916 28.71412904 325.3423893 24.37225732 335.99093628 20.01898193 C341.35165776 17.8276061 346.71373777 15.63972393 352.07958984 13.4609375 C360.69193494 9.96150327 369.297196 6.46101805 377.82421875 2.7578125 C378.98147461 2.26450439 380.13873047 1.77119629 381.33105469 1.26293945 C383.32378671 0.41017559 385.30758191 -0.46402653 387.27832031 -1.36645508 C391.50451285 -3.15287939 394.36153845 -4.07479314 398.8203125 -2.66796875 C400.37827995 -2.0150752 401.92581348 -1.33698583 403.46484375 -0.640625 C405.4594369 0.13149188 407.45563712 0.89946556 409.453125 1.6640625 C411.56262489 2.51731386 413.67068065 3.37414347 415.77734375 4.234375 C416.84791016 4.65589844 417.91847656 5.07742188 419.02148438 5.51171875 C428.79418894 9.51381567 428.79418894 9.51381567 431.46484375 14.359375 C432.02734375 17.359375 432.02734375 17.359375 431.46484375 20.359375 C428.02964837 24.39437892 424.8053972 26.4058047 419.9296875 28.390625 C419.2799295 28.65907227 418.63017151 28.92751953 417.96072388 29.20410156 C415.77940287 30.10147059 413.59111679 30.98035487 411.40234375 31.859375 C409.82503021 32.50355616 408.24813811 33.14877 406.67163086 33.79492188 C402.24996876 35.60254466 397.82136305 37.39255766 393.39099121 39.17871094 C390.35096005 40.40532566 387.31249367 41.63574753 384.27441406 42.8671875 C372.09617706 47.80315064 359.91113973 52.72204998 347.72169495 57.63026428 C338.50651235 61.34123295 329.29607441 65.063758 320.08984375 68.796875 C319.37580383 69.08632996 318.66176392 69.37578491 317.92608643 69.67401123 C307.1723117 74.03408797 296.42557415 78.41135763 285.68086243 82.79371643 C279.9686259 85.12339928 274.25574273 87.45146698 268.54125977 89.77563477 C266.23192507 90.71498556 263.92259895 91.65435742 261.61328125 92.59375 C260.46047165 93.06264145 259.30766205 93.5315329 258.11991882 94.01463318 C251.48264751 96.71650042 244.85075993 99.43109392 238.22468853 102.16029549 C232.81297848 104.38900241 227.39660986 106.60619971 221.97879028 108.82000732 C219.6936845 109.75642043 217.4103459 110.69715862 215.12887573 111.64239502 C211.96538259 112.95250109 208.79606096 114.24740376 205.625 115.5390625 C204.23028976 116.12327972 204.23028976 116.12327972 202.80740356 116.71929932 C196.54385777 119.24592906 191.80746398 120.43071181 185.15893555 118.29980469 C184.00562744 117.79868164 182.85231934 117.29755859 181.6640625 116.78125 C180.68560364 116.36393364 180.68560364 116.36393364 179.68737793 115.93818665 C178.26039476 115.32854237 176.83573717 114.7134324 175.41317749 114.09353638 C171.42152446 112.35593371 167.41093517 110.66291413 163.40234375 108.96484375 C162.53667282 108.59705307 161.67100189 108.22926239 160.77909851 107.85032654 C149.80531894 103.20446702 138.72551257 98.82402672 127.65234375 94.421875 C112.24665117 88.2870857 96.86190749 82.10753116 81.52734375 75.796875 C80.72007843 75.46466949 79.91281311 75.13246399 79.08108521 74.79019165 C75.96528955 73.5075922 72.84969175 72.22451441 69.73445129 70.94056702 C63.35962083 68.31365107 56.97662737 65.70709641 50.58984375 63.109375 C48.47524029 62.24874736 46.36065818 61.38806727 44.24609375 60.52734375 C43.06917969 60.0482959 41.89226562 59.56924805 40.6796875 59.07568359 C35.43045959 56.93847494 30.18195462 54.79949308 24.93359375 52.66015625 C23.89522369 52.23691574 22.85685364 51.81367523 21.78701782 51.37760925 C16.40675245 49.18401141 11.02745741 46.98807616 5.64990234 44.7878418 C3.54394909 43.9262603 1.4379921 43.06468793 -0.66796875 42.203125 C-2.20633896 41.57365715 -2.20633896 41.57365715 -3.77578735 40.93147278 C-9.10643347 38.75255757 -14.44206511 36.58739419 -19.78909302 34.44898987 C-22.51346387 33.35853459 -25.23424342 32.25931904 -27.95440674 31.15841675 C-29.72432879 30.44634692 -31.49953998 29.74746757 -33.27490234 29.04907227 C-38.6911479 26.84958807 -42.95124187 25.07832517 -46.53515625 20.359375 C-47.21582529 16.72914014 -46.97143289 15.08148805 -45.0625 11.921875 C-41.64278327 8.45458879 -38.02592744 7.09877056 -33.53515625 5.359375 C-31.82411744 4.67342973 -30.11317988 3.98723186 -28.40234375 3.30078125 C-27.57057617 2.97223145 -26.73880859 2.64368164 -25.88183594 2.30517578 C-23.82966939 1.47807495 -21.80897806 0.61005288 -19.79296875 -0.30078125 C-18.75914063 -0.76355469 -17.7253125 -1.22632813 -16.66015625 -1.703125 C-15.77585937 -2.10660156 -14.8915625 -2.51007813 -13.98046875 -2.92578125 C-9.00648839 -4.37983621 -4.57855837 -1.9471772 0 0 Z " fill="#37679A" transform="translate(63.53515625,315.640625)"/>
<path d="M0 0 C1.08887009 0.44349541 1.08887009 0.44349541 2.19973755 0.89595032 C4.58668094 1.86923652 6.97104022 2.84869574 9.35546875 3.828125 C11.04417195 4.5179382 12.73305809 5.20730371 14.42211914 5.89624023 C17.85355173 7.2964341 21.28408053 8.69880673 24.71386719 10.10302734 C30.08369739 12.30071083 35.45969882 14.48292977 40.83666992 16.66308594 C57.94071744 23.59867693 75.02961181 30.57160778 92.12176514 37.53643799 C108.47333591 44.19990571 108.47333591 44.19990571 124.828125 50.85546875 C125.50166016 51.12951035 126.17519531 51.40355194 126.86914062 51.68589783 C130.00043506 52.95934358 133.13340463 54.22822773 136.26904297 55.4909668 C142.43705272 57.978414 148.57948136 60.50894105 154.6940155 63.12467957 C158.03078133 64.54847211 161.37553309 65.95292288 164.72116089 67.35574341 C166.32181953 68.03274473 167.91880639 68.71851088 169.51150513 69.41403198 C182.33930587 75.01148964 192.34563503 77.60903896 205.98558044 72.55674744 C210.88444929 70.62891514 215.71080037 68.54119958 220.54296875 66.453125 C222.70174518 65.54271252 224.86168677 64.63505859 227.02270508 63.72998047 C231.56572354 61.82520343 236.10384919 59.90937992 240.63916016 57.98632812 C250.67625387 53.74309596 260.77717189 49.65732161 270.87600708 45.56381226 C276.52024886 43.27430991 282.16027341 40.97446347 287.80078125 38.67578125 C290.07973878 37.74752465 292.35871018 36.81930212 294.63769531 35.89111328 C302.81858772 32.55874317 310.99882116 29.22475616 319.17860413 25.8896637 C324.911707 23.55240192 330.64563738 21.21721874 336.3815918 18.88696289 C345.67115022 15.11164753 354.9587008 11.33402649 364.21153259 7.46937561 C367.6858228 6.01898971 371.1642023 4.57857764 374.64303589 3.13912964 C376.22157214 2.48237136 377.79792728 1.82034166 379.37185669 1.15261841 C381.49659094 0.25131522 383.62795816 -0.6320469 385.76171875 -1.51171875 C386.93669922 -2.00534912 388.11167969 -2.49897949 389.32226562 -3.00756836 C397.17530138 -5.23692092 404.91105777 -0.59543936 412.10546875 2.328125 C413.93368164 3.04548828 413.93368164 3.04548828 415.79882812 3.77734375 C417.56129883 4.49083984 417.56129883 4.49083984 419.359375 5.21875 C420.42615479 5.64704102 421.49293457 6.07533203 422.59204102 6.51660156 C425.93490525 8.28552352 428.09531934 10.20536782 430.54296875 13.078125 C431.11757812 17.10039059 430.6245018 19.63630902 428.54296875 23.078125 C421.76383935 27.07281798 414.22363977 29.72277856 406.93066406 32.64599609 C402.82079389 34.293569 398.7155055 35.95250941 394.609375 37.609375 C393.28753708 38.14220093 393.28753708 38.14220093 391.93899536 38.68579102 C382.00966207 42.6906247 372.09919696 46.74149769 362.18859863 50.79241943 C346.1968832 57.32867396 330.19895995 63.84907013 314.18539429 70.331604 C300.90225366 75.70935031 287.63029131 81.11431568 274.36026001 86.52432251 C257.04391464 93.58369796 239.72601717 100.63918659 222.39437866 107.66094971 C220.5985219 108.38858739 218.80280303 109.11656552 217.00723267 109.84490967 C214.54301778 110.84430048 212.07824266 111.84229588 209.61328125 112.83984375 C208.90742386 113.12632278 208.20156647 113.41280182 207.47431946 113.70796204 C206.14869798 114.24365558 204.82075022 114.77363655 203.49029541 115.29721069 C202.1536124 115.83324551 200.82738735 116.39589009 199.51116943 116.9803772 C192.35066951 120.01558476 186.96241938 118.45566127 179.96266174 115.62965393 C179.14224899 115.2890947 178.32183624 114.94853546 177.4765625 114.59765625 C176.59044785 114.23731796 175.70433319 113.87697968 174.79136658 113.50572205 C171.85132072 112.30808523 168.91597594 111.09933896 165.98046875 109.890625 C163.89630253 109.03928849 161.81182311 108.18871838 159.72705078 107.33886719 C155.29565054 105.53101164 150.86613217 103.71864878 146.43798828 101.90283203 C139.53845894 99.07442541 132.63323652 96.26012653 125.7265625 93.44921875 C123.42390565 92.51197236 121.12125265 91.57471651 118.81860352 90.63745117 C117.68093536 90.17438568 116.54326721 89.71132019 115.37112427 89.23422241 C110.759379 87.35635649 106.14856779 85.47620337 101.5377655 83.59602356 C90.04502818 78.90967826 78.5473396 74.23583118 67.04296875 69.578125 C56.54869322 65.32919547 46.05908205 61.06898475 35.57421875 56.796875 C34.43217987 56.33159393 33.29014099 55.86631287 32.11349487 55.38693237 C26.26504255 53.00377638 20.41734577 50.61878854 14.57080078 48.23095703 C4.06330888 43.94158305 -6.4496166 39.66928194 -16.99609375 35.4765625 C-19.55891615 34.45368706 -22.12151293 33.43024811 -24.68408203 32.40673828 C-27.01826762 31.47848244 -29.35661322 30.56134174 -31.6953125 29.64453125 C-33.08745867 29.08909046 -34.47939973 28.53313519 -35.87109375 27.9765625 C-37.05654785 27.50911621 -38.24200195 27.04166992 -39.46337891 26.56005859 C-43.14298103 24.73856252 -45.6092238 22.77373991 -47.45703125 19.078125 C-47.83203125 16.265625 -47.83203125 16.265625 -47.45703125 13.078125 C-43.97130657 8.91200117 -40.58149358 6.94358382 -35.58203125 4.9296875 C-34.93508301 4.66803802 -34.28813477 4.40638855 -33.62158203 4.1368103 C-32.26262557 3.59119912 -30.90106971 3.05202178 -29.53710938 2.51904297 C-27.4552993 1.70244564 -25.38601667 0.85868965 -23.31640625 0.01171875 C-21.98894175 -0.51728546 -20.66083665 -1.04468557 -19.33203125 -1.5703125 C-18.13320313 -2.04645996 -16.934375 -2.52260742 -15.69921875 -3.01318359 C-9.85358367 -4.65154608 -5.41281565 -2.23578383 0 0 Z " fill="#447FC4" transform="translate(64.45703125,375.921875)"/>
<path d="M0 0 C0.76828125 0.64195313 1.5365625 1.28390625 2.328125 1.9453125 C3.32585937 2.72261719 3.32585937 2.72261719 4.34375 3.515625 C23.79723053 19.25238364 34.43678903 44.09064323 39.328125 67.9453125 C39.504646 68.74469238 39.68116699 69.54407227 39.86303711 70.36767578 C44.46065261 95.84884348 36.45493843 125.83297098 22.19921875 147.125 C2.85832383 173.56316245 -21.49128149 189.31449958 -53.50341797 195.49169922 C-58.86450633 196.25922135 -64.24969447 196.17025417 -69.6550293 196.18554688 C-71.70469005 196.19517308 -73.75331156 196.22621075 -75.80273438 196.2578125 C-104.66017019 196.4901927 -130.42928632 182.57368201 -150.921875 163.1328125 C-170.60846912 142.63939075 -182.14088581 114.34371362 -181.921875 85.9453125 C-181.92960938 84.94242187 -181.93734375 83.93953125 -181.9453125 82.90625 C-181.92758814 76.04692369 -181.11656981 69.64380545 -179.671875 62.9453125 C-179.42308594 61.7284375 -179.17429688 60.5115625 -178.91796875 59.2578125 C-171.95496912 30.73306038 -154.01862352 6.36656285 -129.265625 -9.23828125 C-88.44117449 -34.02373057 -36.72522503 -30.37337793 0 0 Z M-126.671875 9.9453125 C-127.66703125 10.68394531 -128.6621875 11.42257813 -129.6875 12.18359375 C-148.08496714 26.59494301 -160.16938581 47.79882599 -163.984375 70.8203125 C-166.9102827 95.77492914 -161.77272652 122.08057355 -146.1328125 142.32421875 C-135.25012468 155.81914066 -122.50732953 165.58340218 -106.734375 172.7578125 C-106.13931152 173.0357666 -105.54424805 173.3137207 -104.93115234 173.60009766 C-93.88297383 178.39337922 -82.15021524 179.48384139 -70.234375 179.3828125 C-68.96247314 179.37451416 -67.69057129 179.36621582 -66.38012695 179.35766602 C-57.1768168 179.19194156 -49.28936218 178.36607146 -40.671875 174.9453125 C-40.02508789 174.69861816 -39.37830078 174.45192383 -38.71191406 174.19775391 C-13.45565837 164.46220243 5.27394306 146.65868327 16.328125 121.9453125 C25.76161909 98.85807698 26.37846297 73.27773214 16.76953125 50.1015625 C12.33689904 40.39541934 7.27309726 32.04297725 0.328125 23.9453125 C-0.12820313 23.34460938 -0.58453125 22.74390625 -1.0546875 22.125 C-13.34331434 6.30431274 -36.58662222 -5.06374743 -56.0234375 -7.7734375 C-82.00888933 -9.77659867 -105.50809074 -6.10291617 -126.671875 9.9453125 Z " fill="#393939" transform="translate(326.671875,85.0546875)"/>
<path d="M0 0 C3.03173088 1.93184712 5.44841226 4.48435011 8 7 C9.19546289 8.11321723 10.39218019 9.22508822 11.58984375 10.3359375 C12.87395762 11.55564953 14.15649853 12.77701959 15.4375 14 C16.06527344 14.58088379 16.69304687 15.16176758 17.33984375 15.76025391 C20.43051379 18.77890998 21.86158796 20.49178479 23.0234375 24.7578125 C23 28 23 28 21.1875 30.875 C18.63191747 33.35756589 17.71412366 33.92065293 14.1875 34.3125 C10.30571912 33.93193325 8.79527955 32.63085134 6 30 C5.87044922 30.96486328 5.87044922 30.96486328 5.73828125 31.94921875 C3.84465195 44.12751363 -0.37725905 54.31383253 -8 64 C-8.62519531 64.8353125 -9.25039063 65.670625 -9.89453125 66.53125 C-19.67993026 78.00503882 -34.68239279 83.91962306 -49.35546875 85.3203125 C-57.21401877 85.60747024 -57.21401877 85.60747024 -60.3046875 83.21875 C-62.34149777 80.55306283 -62.51690927 78.4114491 -62.62890625 75.09765625 C-61.61008464 71.69947487 -59.74301317 70.17740533 -57 68 C-53.72265625 67.3203125 -53.72265625 67.3203125 -50.0625 67.125 C-39.59354382 66.1856444 -29.48490817 61.8850475 -22.38671875 53.875 C-17.59832964 47.40055839 -13 39.23507379 -13 31 C-13.53625 31.495 -14.0725 31.99 -14.625 32.5 C-17.74008151 34.4674199 -19.37170989 34.5923739 -23 34 C-26.51812713 31.47612619 -27.79040457 29.92571313 -28.75 25.6875 C-27.65375677 20.29763746 -24.83678666 17.80574469 -21 14 C-19.90266078 12.87987041 -18.80638713 11.75869636 -17.7109375 10.63671875 C-6.32828032 -0.93752301 -6.32828032 -0.93752301 0 0 Z " fill="#393939" transform="translate(310,145)"/>
<path d="M0 0 C2.15625 2.21875 2.15625 2.21875 2.75 4.21875 C2.7190625 4.87875 2.688125 5.53875 2.65625 6.21875 C2.6459375 6.87875 2.635625 7.53875 2.625 8.21875 C1.99104489 10.92362512 1.14333049 12.26534884 -0.84375 14.21875 C-3.59375 14.90625 -3.59375 14.90625 -6.84375 15.21875 C-19.80902196 16.8898295 -30.86446571 21.76841287 -39.2734375 32.015625 C-43.81673596 38.38980493 -46.40921175 44.39706153 -46.84375 52.21875 C-46.328125 51.703125 -45.8125 51.1875 -45.28125 50.65625 C-42.84375 49.21875 -42.84375 49.21875 -39.34375 49.28125 C-35.49686356 50.31166601 -34.02510087 50.90309668 -31.84375 54.21875 C-31.11305 57.6729682 -31.03303891 59.93181701 -32.9609375 62.9921875 C-34.82160438 65.18610815 -36.80065761 67.19218748 -38.84375 69.21875 C-39.94108922 70.33887959 -41.03736287 71.46005364 -42.1328125 72.58203125 C-52.45503141 83.07798621 -52.45503141 83.07798621 -57.14111328 83.55297852 C-61.66900919 83.14425575 -62.90721459 82.04400155 -66.0859375 78.87109375 C-67.46652344 77.49727539 -67.46652344 77.49727539 -68.875 76.09570312 C-69.34164062 75.61238525 -69.80828125 75.12906738 -70.2890625 74.63110352 C-71.71362888 73.1615329 -73.16960267 71.72981192 -74.6328125 70.29882812 C-82.5741692 62.25091367 -82.5741692 62.25091367 -82.84375 55.21875 C-81.34375 52.34375 -81.34375 52.34375 -78.84375 50.21875 C-74.80814424 49.0447556 -72.76586468 48.80674131 -68.90625 50.53125 C-68.225625 51.088125 -67.545 51.645 -66.84375 52.21875 C-66.84375 52.87875 -66.84375 53.53875 -66.84375 54.21875 C-66.18375 54.21875 -65.52375 54.21875 -64.84375 54.21875 C-64.946875 53.0225 -65.05 51.82625 -65.15625 50.59375 C-65.1140038 37.15945885 -57.13503201 24.56720865 -48.28125 15.03125 C-37.69891966 4.94596851 -14.3690482 -9.00039283 0 0 Z " fill="#393939" transform="translate(261.84375,112.78125)"/>
</svg>
